<?xml version="1.0" encoding="utf-8"?>
<!-- Generator: Adobe Illustrator 17.0.2, SVG Export Plug-In . SVG Version: 6.00 Build 0)  -->
<!DOCTYPE svg PUBLIC "-//W3C//DTD SVG 1.1//EN" "http://www.w3.org/Graphics/SVG/1.1/DTD/svg11.dtd">
<svg version="1.1" id="Layer_1" xmlns="http://www.w3.org/2000/svg" xmlns:xlink="http://www.w3.org/1999/xlink" x="0px" y="0px"
	 width="24px" height="24px" viewBox="-11.5 12.5 24 24" enable-background="new -11.5 12.5 24 24" xml:space="preserve">
<symbol  id="ic_x5F_accountCircle_x0D_" viewBox="-23.5 -24.5 24 24">
	<path fill="#010101" d="M-11.5-2.5c-5.524,0-10-4.477-10-10s4.476-10,10-10c5.523,0,10,4.477,10,10S-5.977-2.5-11.5-2.5z
		 M-11.5-5.5c1.656,0,3-1.344,3-3c0-1.658-1.344-3-3-3s-3,1.342-3,3C-14.5-6.844-13.156-5.5-11.5-5.5z M-11.5-19.7
		c-2.504,0-4.707,1.279-5.998,3.22c0.026,1.987,4.004,3.08,5.998,3.08s5.972-1.093,5.998-3.08C-6.793-18.421-8.996-19.7-11.5-19.7z"
		/>
	<polygon fill="none" points="0.5,-24.5 -23.5,-24.5 -23.5,-0.5 0.5,-0.5 	"/>
</symbol>
<use xlink:href="#ic_x5F_accountCircle_x0D_"  width="24" height="24" id="XMLID_73_" x="-23.5" y="-24.5" transform="matrix(1 0 0 -1 12 12)" overflow="visible"/>
</svg>
