<?xml version="1.0" encoding="utf-8"?>
<!-- Generator: Adobe Illustrator 17.0.2, SVG Export Plug-In . SVG Version: 6.00 Build 0)  -->
<!DOCTYPE svg PUBLIC "-//W3C//DTD SVG 1.1//EN" "http://www.w3.org/Graphics/SVG/1.1/DTD/svg11.dtd">
<svg version="1.1" id="Layer_1" xmlns="http://www.w3.org/2000/svg" xmlns:xlink="http://www.w3.org/1999/xlink" x="0px" y="0px"
	 width="24px" height="24px" viewBox="0 0 24 24" enable-background="new 0 0 24 24" xml:space="preserve">
<symbol  id="ic_x5F_apps_x0D_" viewBox="0 -24.001 24 24">
	<g>
		<polygon fill="#010101" points="4,-8 8,-8 8,-4 4,-4 		"/>
		<polygon fill="#010101" points="4,-20 8,-20 8,-16 4,-16 		"/>
		<polygon fill="#010101" points="4,-14 8,-14 8,-10 4,-10 		"/>
		<polygon fill="#010101" points="10,-14 14,-14 14,-10 10,-10 		"/>
		<polygon fill="#010101" points="10,-20 14,-20 14,-16 10,-16 		"/>
		<polygon fill="#010101" points="10,-8 14,-8 14,-4 10,-4 		"/>
		<polygon fill="#010101" points="16,-14 20,-14 20,-10 16,-10 		"/>
		<polygon fill="#010101" points="16,-4 16,-8 20,-8 20,-4 		"/>
		<polygon fill="#010101" points="16,-20 20,-20 20,-16 16,-16 		"/>
	</g>
	<polygon fill="none" points="24,-24.001 0,-24.001 0,0 24,0 	"/>
</symbol>
<use xlink:href="#ic_x5F_apps_x0D_"  width="24" height="24" id="XMLID_177_" x="0" y="-24.001" transform="matrix(1 0 0 -1 0 -4.760000e-04)" overflow="visible"/>
</svg>
