<?xml version="1.0" encoding="utf-8"?>
<!-- Generator: Adobe Illustrator 17.0.2, SVG Export Plug-In . SVG Version: 6.00 Build 0)  -->
<!DOCTYPE svg PUBLIC "-//W3C//DTD SVG 1.1//EN" "http://www.w3.org/Graphics/SVG/1.1/DTD/svg11.dtd">
<svg version="1.1" id="Layer_1" xmlns="http://www.w3.org/2000/svg" xmlns:xlink="http://www.w3.org/1999/xlink" x="0px" y="0px"
	 width="24px" height="24px" viewBox="0 0 24 24" enable-background="new 0 0 24 24" xml:space="preserve">
<symbol  id="ic_x5F_photo" viewBox="0 -24 24 24">
	<polygon fill="none" points="24,-24 0,-24 0,0 24,0 	"/>
	<path fill="#010101" d="M19-3H5C3.896-3,3-3.896,3-5v-14c0-1.104,0.896-2,2-2h14c1.104,0,2,0.896,2,2v14C21-3.896,20.104-3,19-3z
		 M5-18l3.5,5.5l2.5-3.925L14.5-11l4.5-7H5z"/>
</symbol>
<use xlink:href="#ic_x5F_photo"  width="24" height="24" x="0" y="-24" transform="matrix(1 0 0 -1 4.800000e-05 0)" overflow="visible"/>
</svg>
