<?xml version="1.0" encoding="utf-8"?>
<!-- Generator: Adobe Illustrator 17.0.2, SVG Export Plug-In . SVG Version: 6.00 Build 0)  -->
<!DOCTYPE svg PUBLIC "-//W3C//DTD SVG 1.1//EN" "http://www.w3.org/Graphics/SVG/1.1/DTD/svg11.dtd">
<svg version="1.1" id="Layer_1" xmlns="http://www.w3.org/2000/svg" xmlns:xlink="http://www.w3.org/1999/xlink" x="0px" y="0px"
	 width="24px" height="24px" viewBox="0 0 24 24" enable-background="new 0 0 24 24" xml:space="preserve">
<symbol  id="ic_x5F_search_x0D_" viewBox="0 -24 24 24">
	<g>
		<g>
			<path fill="#010101" d="M15.502-14h-0.794l-0.275,0.274C15.408-12.589,16-11.115,16-9.5C16-5.91,13.09-3,9.5-3S3-5.91,3-9.5
				C3-13.09,5.91-16,9.5-16c1.615,0,3.088,0.592,4.225,1.567l0.276-0.275V-15.5l4.998-4.991L20.49-19L15.502-14z M9.5-14
				C7.015-14,5-11.985,5-9.5C5-7.015,7.015-5,9.5-5S14-7.015,14-9.5C14-11.985,11.985-14,9.5-14z"/>
		</g>
	</g>
	<polygon fill="none" points="24,-24 0,-24 0,0 24,0 	"/>
</symbol>
<use xlink:href="#ic_x5F_search_x0D_"  width="24" height="24" id="XMLID_209_" y="-24" transform="matrix(1 0 0 -1 0 1.300000e-05)" overflow="visible"/>
</svg>
