<?xml version="1.0" encoding="UTF-8" standalone="no"?>
<svg width="24px" height="24px" viewBox="0 0 24 24" version="1.1" xmlns="http://www.w3.org/2000/svg" xmlns:xlink="http://www.w3.org/1999/xlink" xmlns:sketch="http://www.bohemiancoding.com/sketch/ns">
    <title>Slice 1</title>
    <description>Created with Sketch (http://www.bohemiancoding.com/sketch)</description>
    <defs></defs>
    <g id="Page-1" stroke="none" stroke-width="1" fill="none" fill-rule="evenodd" sketch:type="MSPage">
        <path d="M0,8.577 C0,8.571 0,15.429 0,15.427 L3.429,15.427 L10.286,22.286 L10.286,1.715 L3.429,8.577 L0,8.577 L0,8.577 Z M15.429,0 L15.429,2.364 C19.179,3.756 21.858,7.764 21.858,12.001 C21.858,16.235 19.179,20.247 15.429,21.637 L15.429,24.001 C20.388,22.47 24,17.468 24,12.001 C24,6.533 20.388,1.531 15.429,0 L15.429,0 Z M17.143,12.001 C17.143,9.772 15.72,7.893 13.715,7.071 L13.715,16.929 C15.72,16.108 17.143,14.227 17.143,12.001 L17.143,12.001 Z" id="Imported-Layers" fill="#E04A3F" sketch:type="MSShapeGroup"></path>
    </g>
</svg>