<?xml version="1.0" encoding="UTF-8" standalone="no"?>
<svg width="24px" height="24px" viewBox="0 0 24 24" version="1.1" xmlns="http://www.w3.org/2000/svg" xmlns:xlink="http://www.w3.org/1999/xlink" xmlns:sketch="http://www.bohemiancoding.com/sketch/ns">
    <title>docs</title>
    <description>Created with Sketch (http://www.bohemiancoding.com/sketch)</description>
    <defs></defs>
    <g id="Page-1" stroke="none" stroke-width="1" fill="none" fill-rule="evenodd" sketch:type="MSPage">
        <g id="Imported-Layers" sketch:type="MSLayerGroup">
            <path d="M24,22.5 C24,23.329 23.329,24 22.5,24 L1.5,24 C0.671,24 0,23.329 0,22.5 L0,1.5 C0,0.671 0.671,0 1.5,0 L22.5,0 C23.329,0 24,0.671 24,1.5 L24,22.5" id="Fill-1" fill="#4285F4" sketch:type="MSShapeGroup"></path>
            <path d="M4.5,9 L19.5,9 L19.5,10.5 L4.5,10.5 L4.5,9 Z" id="Fill-2" fill="#FFFFFF" sketch:type="MSShapeGroup"></path>
            <path d="M4.5,6 L19.5,6 L19.5,7.5 L4.5,7.5 L4.5,6 Z" id="Fill-3" fill="#FFFFFF" sketch:type="MSShapeGroup"></path>
            <path d="M4.5,12 L19.5,12 L19.5,13.5 L4.5,13.5 L4.5,12 Z" id="Fill-4" fill="#FFFFFF" sketch:type="MSShapeGroup"></path>
            <path d="M4.5,15 L13.5,15 L13.5,16.5 L4.5,16.5 L4.5,15 Z" id="Fill-5" fill="#FFFFFF" sketch:type="MSShapeGroup"></path>
        </g>
    </g>
</svg>