<?xml version="1.0" encoding="utf-8"?>
<!-- Generator: Adobe Illustrator 16.0.0, SVG Export Plug-In . SVG Version: 6.00 Build 0)  -->
<!DOCTYPE svg PUBLIC "-//W3C//DTD SVG 1.1//EN" "http://www.w3.org/Graphics/SVG/1.1/DTD/svg11.dtd">
<svg version="1.1" id="Layer_1" xmlns="http://www.w3.org/2000/svg" xmlns:xlink="http://www.w3.org/1999/xlink" x="0px" y="0px"
	 width="92px" height="34px" viewBox="0 0 92 34" enable-background="new 0 0 92 34" xml:space="preserve">
<g>
	<path fill="#656565" d="M73,4.3h-2l1.301-1.29H77.3l-1.079,1.083C76.076,4.236,76,4.439,76,4.658v17.414
		c0,0.431,0.299,0.777,0.718,0.828L78.3,23.1L77.396,24h-5.707l1.08-1.094c0.144-0.143,0.229-0.346,0.229-0.564L73,4.3L73,4.3z"/>
	<path fill="#656565" d="M87.832,22.4c-2.562,0-4.928-1.801-5.773-5.094l8.865-3.589c-0.475-1.713-1.82-3.669-5.318-3.669
		c-2.883,0-6.403,2.196-6.403,6.676c0,3.526,2.312,7.225,6.854,7.225c0.934,0,2.393-0.059,3.881-1.127
		c0.562-0.396,1.041-0.865,1.438-1.387C90.379,21.926,89.32,22.4,87.832,22.4z M85.113,10.949c1.574,0,2.887,1.309,2.887,2.463
		c0,0.404-0.291,0.577-0.846,0.779l-5.252,2.133C81.086,11.979,83.921,10.949,85.113,10.949z"/>
	<g>
		<path fill="#656565" d="M21,23.3c-1.424,0.392-4.821,1.5-9.132,1.5C5.641,24.8,0.2,20.715,0.2,13.352
			C0.2,8.232,4.426,2.2,12.366,2.2c1.642,0,3.241,0.405,4.599,0.801c2.099,0.618,3.262,1.438,3.936,1.899l-2.89,2.9V6
			c-1.187-1.047-2.66-2.5-6.307-2.5c-4.734,0-8.103,3.757-8.103,8.998c0,5.746,4.124,10.867,9.926,10.867
			c2.156,0,3.601-0.314,4.484-0.604V17.3h-4l1.288-1.29h7.002l-1.08,1.083c-0.143,0.144-0.22,0.347-0.22,0.565L21,23.3L21,23.3z"/>
		<path fill="#656565" d="M21,23.3c-1.424,0.392-4.821,1.5-9.132,1.5C5.641,24.8,0.2,20.715,0.2,13.352
			C0.2,8.232,4.426,2.2,12.366,2.2c1.642,0,3.241,0.405,4.599,0.801c2.099,0.618,3.262,1.438,3.936,1.899l-2.89,2.9V6
			c-1.187-1.047-2.66-2.5-6.307-2.5c-4.734,0-8.103,3.757-8.103,8.998c0,5.746,4.124,10.867,9.926,10.867
			c2.156,0,3.601-0.314,4.484-0.604V17.3h-4l1.288-1.29h7.002l-1.08,1.083c-0.143,0.144-0.22,0.347-0.22,0.565L21,23.3L21,23.3z"/>
	</g>
	<g>
		<path fill="#656565" d="M48.742,10.05c-4.881,0-7.692,3.571-7.692,7.041c0,3.562,2.843,6.858,7.24,6.858
			c4.88,0,7.66-3.57,7.66-7.041C55.95,13.348,53.141,10.05,48.742,10.05z M48.994,23c-3.436,0-5.034-4.182-5.034-7.261
			c0-2.987,1.933-4.739,4.046-4.739c3.436,0,5.034,4.182,5.034,7.261C53.04,21.248,51.107,23,48.994,23z"/>
		<path fill="#656565" d="M48.742,10.05c-4.881,0-7.692,3.571-7.692,7.041c0,3.562,2.843,6.858,7.24,6.858
			c4.88,0,7.66-3.57,7.66-7.041C55.95,13.348,53.141,10.05,48.742,10.05z M48.994,23c-3.436,0-5.034-4.182-5.034-7.261
			c0-2.987,1.933-4.739,4.046-4.739c3.436,0,5.034,4.182,5.034,7.261C53.04,21.248,51.107,23,48.994,23z"/>
	</g>
	<path fill="#656565" d="M31.742,10.05c-4.88,0-7.692,3.571-7.692,7.041c0,3.562,2.842,6.858,7.24,6.858
		c4.88,0,7.66-3.57,7.66-7.041C38.95,13.348,36.14,10.05,31.742,10.05z M31.994,23c-3.435,0-5.034-4.182-5.034-7.261
		c0-2.987,1.933-4.739,4.046-4.739c3.435,0,5.034,4.182,5.034,7.261C36.04,21.248,34.107,23,31.994,23z"/>
	<rect y="1" fill="none" width="92" height="33"/>
	<g>
		<path fill="#656565" d="M68.3,23.449l-1.082-0.85c-0.362-0.301-0.817-0.691-0.817-1.418c0-0.732,0.545-1.291,0.973-1.621
			c1.309-1.016,2.566-2.1,2.566-4.338c0-2.068-1.271-3.257-2.035-3.923h1.746l1.25-1.25h-6.233c-4.358,0-6.599,2.716-6.599,5.726
			c0,2.329,1.789,4.825,4.979,4.825h0.802c-0.125,0.35-0.35,0.84-0.35,1.301c0,1.016,0.421,1.436,0.921,2
			c-1.399,0.092-4.013,0.428-5.938,1.604C56.645,26.6,56.2,28.134,56.2,29.25c0,2.303,2.063,4.5,6.569,4.5
			c5.35,0,8.029-2.957,8.029-5.878C70.801,25.717,69.666,24.602,68.3,23.449z M60.652,14.312c0-2.209,1.312-3.213,2.688-3.213
			c2.645,0,4.01,3.45,4.01,5.535c0,2.571-2.065,3.064-2.887,3.064C61.994,19.7,60.652,16.641,60.652,14.312z M64.3,32.301
			c-3.325,0-5.45-1.492-5.45-3.701c0-2.203,1.963-2.906,2.648-3.156c1.305-0.438,2.984-0.492,3.27-0.492
			c0.308,0,0.461,0,0.707,0.023c2.367,1.691,3.375,2.439,3.375,4.025C68.85,30.77,67.027,32.301,64.3,32.301z"/>
		<path fill="#656565" d="M68.3,23.449l-1.082-0.85c-0.362-0.301-0.817-0.691-0.817-1.418c0-0.732,0.545-1.291,0.973-1.621
			c1.309-1.016,2.566-2.1,2.566-4.338c0-2.068-1.271-3.257-2.035-3.923h1.746l1.25-1.25h-6.233c-4.358,0-6.599,2.716-6.599,5.726
			c0,2.329,1.789,4.825,4.979,4.825h0.802c-0.125,0.35-0.35,0.84-0.35,1.301c0,1.016,0.421,1.436,0.921,2
			c-1.399,0.092-4.013,0.428-5.938,1.604C56.645,26.6,56.2,28.134,56.2,29.25c0,2.303,2.063,4.5,6.569,4.5
			c5.35,0,8.029-2.957,8.029-5.878C70.801,25.717,69.666,24.602,68.3,23.449z M60.652,14.312c0-2.209,1.312-3.213,2.688-3.213
			c2.645,0,4.01,3.45,4.01,5.535c0,2.571-2.065,3.064-2.887,3.064C61.994,19.7,60.652,16.641,60.652,14.312z M64.3,32.301
			c-3.325,0-5.45-1.492-5.45-3.701c0-2.203,1.963-2.906,2.648-3.156c1.305-0.438,2.984-0.492,3.27-0.492
			c0.308,0,0.461,0,0.707,0.023c2.367,1.691,3.375,2.439,3.375,4.025C68.85,30.77,67.027,32.301,64.3,32.301z"/>
	</g>
</g>
</svg>
