<?xml version="1.0" encoding="UTF-8" standalone="no"?>
<svg width="24px" height="24px" viewBox="0 0 24 24" version="1.1" xmlns="http://www.w3.org/2000/svg" xmlns:xlink="http://www.w3.org/1999/xlink" xmlns:sketch="http://www.bohemiancoding.com/sketch/ns">
    <title>Slice 1</title>
    <description>Created with Sketch (http://www.bohemiancoding.com/sketch)</description>
    <defs></defs>
    <g id="Page-1" stroke="none" stroke-width="1" fill="none" fill-rule="evenodd" sketch:type="MSPage">
        <path d="M23.8283574,15.452 C23.2423574,14.531 21.2633574,14.339 19.7103574,14.339 C18.8723574,14.339 17.9423574,14.394 16.9373574,14.509 C16.2073574,14.093 15.5283574,13.639 14.9293574,13.164 C13.5163574,12.004 12.2763574,10.003 11.4373574,7.528 C11.5413574,6.939 13.1303574,1.792 11.6683574,0.327 C11.3703574,0.033 11.0253574,0.005 10.8573574,0.005 L10.3823574,0 C9.95035741,0 9.50835741,0.582 9.35435741,1.133 C8.62735741,3.731 9.07335741,5.059 9.85635741,7.629 C9.27335741,9.631 8.61335741,11.726 7.55435741,13.853 C6.82135741,15.324 6.13335741,16.627 5.50735741,17.723 C4.64635741,18.113 4.00735741,18.458 3.60635741,18.75 L3.58135741,18.769 C1.25935741,20.195 0.223357409,21.723 0.0333574088,22.681 C-0.0316425912,22.997 0.00735740878,23.208 0.0733574088,23.348 L0.839357409,23.855 C1.03535741,23.949 1.24235741,24 1.45935741,24 C2.85035741,24 4.69135741,21.998 7.08335741,17.883 C7.30035741,17.793 7.50435741,17.712 7.69135741,17.644 C10.1773574,16.835 13.2333574,16.378 16.2293574,16.071 C18.2253574,17.123 20.6813574,17.591 22.1843574,17.591 C22.8693574,17.591 23.3463574,17.442 23.5823574,17.163 C23.7453574,17 23.9653574,16.718 23.9873574,16.168 C24.0223574,15.913 23.9693574,15.673 23.8283574,15.452 L23.8283574,15.452 Z M1.27835741,23.012 C1.26935741,23.016 1.25735741,23.017 1.25035741,23.017 C1.22635741,23.017 1.20635741,23.009 1.19035741,22.992 C1.16735741,22.969 1.15835741,22.935 1.16735741,22.905 C1.38835741,22.234 2.27435741,20.923 3.70535741,19.625 C3.90335741,19.46 4.23335741,19.242 4.65835741,18.996 C4.69435741,18.974 4.73835741,18.983 4.76535741,19.009 C4.79335741,19.038 4.79735741,19.082 4.77635741,19.115 C3.36435741,21.388 2.18435741,22.698 1.27835741,23.012 L1.27835741,23.012 Z M10.5583574,1.085 C10.5953574,0.992 10.6533574,0.907 10.6913574,0.849 C10.7103574,0.822 10.7393574,0.807 10.7793574,0.804 C10.8113574,0.801 10.8473574,0.813 10.8733574,0.837 L10.9873574,0.948 C11.0273574,0.989 11.0623574,1.025 11.0853574,1.059 C11.3493574,1.434 11.3773574,2.056 11.1833574,3.139 L11.1233574,3.463 C11.0423574,3.909 10.9443574,4.463 10.8003574,5.108 C10.7923574,5.152 10.7473574,5.185 10.6943574,5.185 L10.6923574,5.185 C10.6403574,5.185 10.5933574,5.151 10.5843574,5.108 C10.2373574,3.385 10.2243574,1.915 10.5583574,1.085 L10.5583574,1.085 Z M8.06535741,16.681 L8.06535741,16.677 L7.84735741,16.762 C7.79735741,16.78 7.74335741,16.798 7.68735741,16.821 C8.05535741,16.159 8.43835741,15.445 8.83235741,14.688 C9.73535741,12.949 10.4013574,11.367 10.8663574,9.872 C11.6843574,11.683 12.7293574,13.162 13.9113574,14.18 C14.1603574,14.398 14.4433574,14.615 14.7473574,14.829 C13.0033574,15.141 10.6033574,15.699 8.06535741,16.681 L8.06535741,16.681 Z M23.1853574,16.463 C23.1543574,16.496 23.0903574,16.527 22.9953574,16.559 L22.9273574,16.574 C22.8073574,16.592 22.6763574,16.604 22.5363574,16.604 C21.6283574,16.604 20.2083574,16.219 18.7303574,15.578 C18.6923574,15.559 18.6663574,15.511 18.6753574,15.465 C18.6823574,15.418 18.7243574,15.385 18.7723574,15.382 C18.9133574,15.379 19.0543574,15.379 19.1903574,15.379 C21.9833574,15.379 22.8023574,15.875 23.0253574,16.09 C23.0983574,16.176 23.1443574,16.252 23.1753574,16.302 C23.1823574,16.319 23.1893574,16.329 23.1953574,16.34 C23.2223574,16.375 23.2193574,16.426 23.1853574,16.463 L23.1853574,16.463 Z" id="Imported-Layers" fill="#FB4C2F" sketch:type="MSShapeGroup"></path>
    </g>
</svg>