<?xml version="1.0" encoding="UTF-8" standalone="no"?>
<svg width="24px" height="24px" viewBox="0 0 24 24" version="1.1" xmlns="http://www.w3.org/2000/svg" xmlns:xlink="http://www.w3.org/1999/xlink" xmlns:sketch="http://www.bohemiancoding.com/sketch/ns">
    <title>Slice 1</title>
    <description>Created with Sketch (http://www.bohemiancoding.com/sketch)</description>
    <defs></defs>
    <g id="Page-1" stroke="none" stroke-width="1" fill="none" fill-rule="evenodd" sketch:type="MSPage">
        <g id="Imported-Layers" sketch:type="MSLayerGroup">
            <path d="M24,22.5 C24,23.329 23.329,24 22.5,24 L1.5,24 C0.671,24 0,23.329 0,22.5 L0,1.5 C0,0.671 0.671,0 1.5,0 L22.5,0 C23.329,0 24,0.671 24,1.5 L24,22.5" id="Fill-1" fill="#0F9D58" sketch:type="MSShapeGroup"></path>
            <path d="M18,4.5 L4.5,4.5 L4.5,19.5 L19.5,19.5 L19.5,4.5 L18,4.5 L18,4.5 Z M6,6 L9,6 L9,9 L6,9 L6,6 Z M6,10.5 L9,10.5 L9,13.5 L6,13.5 L6,10.5 Z M6,15 L9,15 L9,18 L6,18 L6,15 Z M10.5,15 L18,15 L18,18 L10.5,18 L10.5,15 Z M10.5,10.5 L18,10.5 L18,13.5 L10.5,13.5 L10.5,10.5 Z M10.5,6 L18,6 L18,9 L10.5,9 L10.5,6 Z" id="Fill-2" fill="#FFFFFF" sketch:type="MSShapeGroup"></path>
        </g>
    </g>
</svg>