<?xml version="1.0" encoding="utf-8"?>
<!-- Generator: Adobe Illustrator 15.0.0, SVG Export Plug-In  -->
<!DOCTYPE svg PUBLIC "-//W3C//DTD SVG 1.1//EN" "http://www.w3.org/Graphics/SVG/1.1/DTD/svg11.dtd" [
	<!ENTITY ns_flows "http://ns.adobe.com/Flows/1.0/">
]>
<svg version="1.1"
	 xmlns="http://www.w3.org/2000/svg" xmlns:xlink="http://www.w3.org/1999/xlink" xmlns:a="http://ns.adobe.com/AdobeSVGViewerExtensions/3.0/"
	 x="0px" y="0px" width="21px" height="21px" viewBox="0 0 21 21" overflow="visible" enable-background="new 0 0 21 21"
	 xml:space="preserve">
<defs>
</defs>
<path d="M3,9.003C3,9,3,13,3,12.999h2L9,17V5L5,9.003H3z M12,4v1.379c2.188,0.812,3.75,3.15,3.75,5.621s-1.562,4.81-3.75,5.621V18
	c2.893-0.893,5-3.811,5-7S14.893,4.893,12,4z M13,11c0-1.3-0.83-2.396-2-2.875v5.75C12.17,13.396,13,12.299,13,11z"/>
<rect opacity="0" fill="#4387FD" width="21" height="21"/>
</svg>
