<?xml version="1.0" encoding="utf-8"?>
<!-- Generator: Adobe Illustrator 15.0.0, SVG Export Plug-In  -->
<!DOCTYPE svg PUBLIC "-//W3C//DTD SVG 1.1//EN" "http://www.w3.org/Graphics/SVG/1.1/DTD/svg11.dtd" [
	<!ENTITY ns_flows "http://ns.adobe.com/Flows/1.0/">
]>
<svg version="1.1"
	 xmlns="http://www.w3.org/2000/svg" xmlns:xlink="http://www.w3.org/1999/xlink" xmlns:a="http://ns.adobe.com/AdobeSVGViewerExtensions/3.0/"
	 x="0px" y="0px" width="21px" height="21px" viewBox="0 0 21 21" overflow="visible" enable-background="new 0 0 21 21"
	 xml:space="preserve">
<defs>
</defs>
<path opacity="0.5" d="M8,11h1v-1H8V11z M10,13h1v-1h-1V13z M10,15h1v-1h-1V15z M6,11h1v-1H6V11z M12,11h1v-1h-1V11z M14,10v1h1v-1
	H14z M10,7h1V6h-1V7z M10,9h1V8h-1V9z M10,11h1v-1h-1V11z"/>
<path d="M17,17V4H4v13H17z M16,16H5V5h11V16z"/>
<rect opacity="0" fill="#4387FD" width="21" height="21"/>
</svg>
