<?xml version="1.0" encoding="utf-8"?>
<!-- Generator: Adobe Illustrator 15.0.0, SVG Export Plug-In  -->
<!DOCTYPE svg PUBLIC "-//W3C//DTD SVG 1.1//EN" "http://www.w3.org/Graphics/SVG/1.1/DTD/svg11.dtd" [
	<!ENTITY ns_flows "http://ns.adobe.com/Flows/1.0/">
]>
<svg version="1.1"
	 xmlns="http://www.w3.org/2000/svg" xmlns:xlink="http://www.w3.org/1999/xlink" xmlns:a="http://ns.adobe.com/AdobeSVGViewerExtensions/3.0/"
	 x="0px" y="0px" width="21px" height="21px" viewBox="0 0 21 21" overflow="visible" enable-background="new 0 0 21 21"
	 xml:space="preserve">
<defs>
</defs>
<path opacity="0.5" d="M8,17h1v-1H8V17z M6,17h1v-1H6V17z M12,17h1v-1h-1V17z M14,16v1h1v-1H14z M10,17h1v-1h-1V17z M4,13h1v-1H4V13
	z M4,15h1v-1H4V15z M4,7h1V6H4V7z M4,9h1V8H4V9z M4,11h1v-1H4V11z M4,17h1v-1H4V17z M16,13h1v-1h-1V13z M16,15h1v-1h-1V15z M16,7h1
	V6h-1V7z M16,9h1V8h-1V9z M16,11h1v-1h-1V11z M16,17h1v-1h-1V17z"/>
<rect x="4" y="4" width="13" height="1"/>
<rect opacity="0" fill="#4387FD" width="21" height="21"/>
</svg>
