<?xml version="1.0" encoding="utf-8"?>
<!-- Generator: Adobe Illustrator 15.0.0, SVG Export Plug-In  -->
<!DOCTYPE svg PUBLIC "-//W3C//DTD SVG 1.1//EN" "http://www.w3.org/Graphics/SVG/1.1/DTD/svg11.dtd" [
	<!ENTITY ns_flows "http://ns.adobe.com/Flows/1.0/">
]>
<svg version="1.1"
	 xmlns="http://www.w3.org/2000/svg" xmlns:xlink="http://www.w3.org/1999/xlink" xmlns:a="http://ns.adobe.com/AdobeSVGViewerExtensions/3.0/"
	 x="0px" y="0px" width="21px" height="21px" viewBox="0 0 21 21" overflow="visible" enable-background="new 0 0 21 21"
	 xml:space="preserve">
<defs>
</defs>
<path opacity="0.5" d="M16,8v1h1V8H16z M16,6v1h1V6H16z M16,12v1h1v-1H16z M16,15h1v-1h-1V15z M16,10v1h1v-1H16z M12,4v1h1V4H12z
	 M14,4v1h1V4H14z M6,4v1h1V4H6z M8,4v1h1V4H8z M10,4v1h1V4H10z M16,4v1h1V4H16z M12,16v1h1v-1H12z M14,16v1h1v-1H14z M6,16v1h1v-1H6
	z M8,16v1h1v-1H8z M10,16v1h1v-1H10z M16,16v1h1v-1H16z"/>
<rect x="4" y="4" width="1" height="13"/>
<rect opacity="0" fill="#4387FD" width="21" height="21"/>
</svg>
