<?xml version="1.0" encoding="utf-8"?>
<!-- Generator: Adobe Illustrator 15.0.0, SVG Export Plug-In  -->
<!DOCTYPE svg PUBLIC "-//W3C//DTD SVG 1.1//EN" "http://www.w3.org/Graphics/SVG/1.1/DTD/svg11.dtd" [
	<!ENTITY ns_flows "http://ns.adobe.com/Flows/1.0/">
]>
<svg version="1.1"
	 xmlns="http://www.w3.org/2000/svg" xmlns:xlink="http://www.w3.org/1999/xlink" xmlns:a="http://ns.adobe.com/AdobeSVGViewerExtensions/3.0/"
	 x="0px" y="0px" width="21px" height="21px" viewBox="0 0 21 21" overflow="visible" enable-background="new 0 0 21 21"
	 xml:space="preserve">
<defs>
</defs>
<path opacity="0.5" d="M6.279,4L1,16h1.9L7,5.5L11.1,16H13L7.719,4H6.279z M18.68,10v0.849c-0.477-0.672-1.192-1.042-2.014-1.042
	c-0.877,0-1.816,0.337-2.455,1.042c-0.582,0.626-0.81,1.32-0.81,2.152s0.284,1.613,0.787,2.186c0.546,0.619,1.503,1.008,2.435,1.008
	c0.757,0,1.601-0.389,2.034-1.008h0.022V16H20v-6H18.68z M16.643,14.885c-1.037,0-1.878-0.84-1.878-1.878
	c0-1.033,0.841-1.876,1.878-1.876c1.036,0,1.877,0.843,1.877,1.876C18.52,14.045,17.679,14.885,16.643,14.885z"/>
<polygon points="7,16 16,7 15,6 7,13.382 3.158,11.095 2.833,11.833 "/>
<rect id="_x3C_Slice_x3E__15_" fill="none" width="21" height="21"/>
</svg>
