<?xml version="1.0" encoding="utf-8"?>
<!-- Generator: Adobe Illustrator 15.0.0, SVG Export Plug-In  -->
<!DOCTYPE svg PUBLIC "-//W3C//DTD SVG 1.1//EN" "http://www.w3.org/Graphics/SVG/1.1/DTD/svg11.dtd" [
	<!ENTITY ns_flows "http://ns.adobe.com/Flows/1.0/">
]>
<svg version="1.1"
	 xmlns="http://www.w3.org/2000/svg" xmlns:xlink="http://www.w3.org/1999/xlink" xmlns:a="http://ns.adobe.com/AdobeSVGViewerExtensions/3.0/"
	 x="0px" y="0px" width="21px" height="21px" viewBox="0 0 21 21" overflow="visible" enable-background="new 0 0 21 21"
	 xml:space="preserve">
<defs>
</defs>
<path d="M5,6v5.557c0.311-0.182,0.645-0.322,1-0.414V6.5C6,5.936,6.194,5.419,6.511,5H6C5.447,5,5,5.447,5,6z M15,5h-0.511
	C14.806,5.419,15,5.936,15,6.5V17h-1.051c-0.075,0.372-0.241,0.708-0.462,1H15c0.552,0,1-0.447,1-1V6C16,5.447,15.552,5,15,5z
	 M14,6.5C14,5.672,13.328,5,12.5,5h-0.592C11.964,4.843,12,4.676,12,4.5C12,3.672,11.328,3,10.5,3C9.671,3,9,3.672,9,4.5
	C9,4.676,9.035,4.843,9.092,5H8.5C7.671,5,7,5.672,7,6.5V7h7V6.5z M10.5,5.25c-0.416,0-0.75-0.336-0.75-0.75s0.334-0.75,0.75-0.75
	c0.413,0,0.75,0.336,0.75,0.75S10.913,5.25,10.5,5.25z"/>
<path opacity="0.55" d="M7,11c-2.206,0-4,1.795-4,4s1.794,4,4,4h4.5c1.378,0,2.5-1.121,2.5-2.5S12.878,14,11.5,14h-0.627
	C10.428,12.276,8.859,11,7,11L7,11z"/>
<rect opacity="0" fill="#4387FD" width="21" height="21"/>
</svg>
