<?xml version="1.0" encoding="utf-8"?>
<!-- Generator: Adobe Illustrator 15.0.0, SVG Export Plug-In  -->
<!DOCTYPE svg PUBLIC "-//W3C//DTD SVG 1.1//EN" "http://www.w3.org/Graphics/SVG/1.1/DTD/svg11.dtd" [
	<!ENTITY ns_flows "http://ns.adobe.com/Flows/1.0/">
]>
<svg version="1.1"
	 xmlns="http://www.w3.org/2000/svg" xmlns:xlink="http://www.w3.org/1999/xlink" xmlns:a="http://ns.adobe.com/AdobeSVGViewerExtensions/3.0/"
	 x="0px" y="0px" width="21px" height="21px" viewBox="0 0 21 21" overflow="visible" enable-background="new 0 0 21 21"
	 xml:space="preserve">
<defs>
</defs>
<path d="M13,2H5v15h2v-1.5c0-0.9,2-1.6,4-1.6s4,0.699,4,1.6V17h2V6L13,2z M11,12.25c-1.242,0-2.25-1.008-2.25-2.25
	S9.758,7.75,11,7.75s2.25,1.008,2.25,2.25S12.242,12.25,11,12.25z M13,6V2.5L16.5,6H13z M4,4H3v15h12v-1H4V4z"/>
<rect opacity="0" fill="#4387FD" width="21" height="21"/>
</svg>
