<?xml version="1.0" encoding="utf-8"?>
<!-- Generator: Adobe Illustrator 15.0.0, SVG Export Plug-In  -->
<!DOCTYPE svg PUBLIC "-//W3C//DTD SVG 1.1//EN" "http://www.w3.org/Graphics/SVG/1.1/DTD/svg11.dtd" [
	<!ENTITY ns_flows "http://ns.adobe.com/Flows/1.0/">
]>
<svg version="1.1"
	 xmlns="http://www.w3.org/2000/svg" xmlns:xlink="http://www.w3.org/1999/xlink" xmlns:a="http://ns.adobe.com/AdobeSVGViewerExtensions/3.0/"
	 x="0px" y="0px" width="21px" height="21px" viewBox="0 0 21 21" overflow="visible" enable-background="new 0 0 21 21"
	 xml:space="preserve">
<defs>
</defs>
<path d="M13,15v1H7.3C5.918,16,4.9,15,4.9,13.5S5.918,11,7.3,11h5.2c1.934,0,3.45-1.567,3.45-3.5S14.434,4,12.5,4H7V3H4v3h3V5h5.699
	c1.382,0,2.4,1,2.4,2.5s-1.019,2.5-2.4,2.5H7.5c-1.934,0-3.451,1.567-3.451,3.5S5.566,17,7.5,17H13v1h3v-3H13z M6,5H5V4h1V5z M15,17
	h-1v-1h1V17z"/>
<rect opacity="0" fill="#4387FD" width="21" height="21"/>
</svg>
