<?xml version="1.0" encoding="utf-8"?>
<!-- Generator: Adobe Illustrator 15.0.0, SVG Export Plug-In  -->
<!DOCTYPE svg PUBLIC "-//W3C//DTD SVG 1.1//EN" "http://www.w3.org/Graphics/SVG/1.1/DTD/svg11.dtd" [
	<!ENTITY ns_flows "http://ns.adobe.com/Flows/1.0/">
]>
<svg version="1.1"
	 xmlns="http://www.w3.org/2000/svg" xmlns:xlink="http://www.w3.org/1999/xlink" xmlns:a="http://ns.adobe.com/AdobeSVGViewerExtensions/3.0/"
	 x="0px" y="0px" width="21px" height="21px" viewBox="0 0 21 21" overflow="visible" enable-background="new 0 0 21 21"
	 xml:space="preserve">
<defs>
</defs>
<path d="M8.165,8.972l1.289-1.593L4.297,1C3.398,1.756,3.276,3.088,4.029,3.988L8.165,8.972z M15,13
	c-0.309,0-0.602,0.061-0.881,0.146l-2.344-2.898l5.193-6.26c0.753-0.9,0.633-2.232-0.266-2.988L10.5,8.672l-0.001-0.001
	l-1.274,1.577l-2.344,2.898H6.88C6.601,13.061,6.309,13,6,13c-1.658,0-3,1.344-3,3s1.342,3,3,3c1.657,0,3-1.344,3-3
	c0-0.648-0.212-1.244-0.562-1.734l2.062-2.482l2.06,2.481C12.211,14.756,12,15.352,12,16c0,1.656,1.342,3,3,3c1.657,0,3-1.344,3-3
	S16.657,13,15,13z M6,17.7c-0.941,0-1.7-0.761-1.7-1.7s0.759-1.7,1.7-1.7s1.699,0.761,1.699,1.7S6.941,17.7,6,17.7z M10.5,11.25
	c-0.414,0-0.75-0.335-0.75-0.75s0.336-0.75,0.75-0.75s0.75,0.335,0.75,0.75S10.914,11.25,10.5,11.25z M15,17.7
	c-0.941,0-1.7-0.761-1.7-1.7s0.759-1.7,1.7-1.7s1.699,0.761,1.699,1.7S15.941,17.7,15,17.7z"/>
<rect opacity="0" fill="#4387FD" width="21" height="21"/>
</svg>
