<?xml version="1.0" encoding="utf-8"?>
<!-- Generator: Adobe Illustrator 15.0.0, SVG Export Plug-In  -->
<!DOCTYPE svg PUBLIC "-//W3C//DTD SVG 1.1//EN" "http://www.w3.org/Graphics/SVG/1.1/DTD/svg11.dtd" [
	<!ENTITY ns_flows "http://ns.adobe.com/Flows/1.0/">
]>
<svg version="1.1"
	 xmlns="http://www.w3.org/2000/svg" xmlns:xlink="http://www.w3.org/1999/xlink" xmlns:a="http://ns.adobe.com/AdobeSVGViewerExtensions/3.0/"
	 x="0px" y="0px" width="21px" height="21px" viewBox="0 0 21 21" overflow="visible" enable-background="new 0 0 21 21"
	 xml:space="preserve">
<defs>
</defs>
<path d="M12.5,9.5c0-1.5-0.75-2-1.75-2H9.5v4h1.25C11.75,11.5,12.5,11,12.5,9.5z M5.5,17H17V3.2C17,2.537,16.463,2,15.8,2H5.199
	C4.537,2,4,2.537,4,3.2v14.6C4,18.463,4.537,19,5.199,19H17v-1H5.5C5.224,18,5,17.776,5,17.5S5.224,17,5.5,17z M8,6h3.199
	c1.5,0,3,0.8,3,3.5s-1.5,3.5-3,3.5H8V6z"/>
<rect opacity="0" fill="#4387FD" width="21" height="21"/>
<rect id="_x3C_Slice_x3E__15_" fill="none" width="21" height="21"/>
</svg>
