<?xml version="1.0" encoding="utf-8"?>
<!-- Generator: Adobe Illustrator 15.0.0, SVG Export Plug-In  -->
<!DOCTYPE svg PUBLIC "-//W3C//DTD SVG 1.1//EN" "http://www.w3.org/Graphics/SVG/1.1/DTD/svg11.dtd" [
	<!ENTITY ns_flows "http://ns.adobe.com/Flows/1.0/">
]>
<svg version="1.1"
	 xmlns="http://www.w3.org/2000/svg" xmlns:xlink="http://www.w3.org/1999/xlink" xmlns:a="http://ns.adobe.com/AdobeSVGViewerExtensions/3.0/"
	 x="0px" y="0px" width="21px" height="21px" viewBox="0 0 21 21" overflow="visible" enable-background="new 0 0 21 21"
	 xml:space="preserve">
<defs>
</defs>
<radialGradient id="SVGID_1_" cx="5.1035" cy="3.0723" r="15.9956" gradientUnits="userSpaceOnUse">
	<stop  offset="0" style="stop-color:#4387FD"/>
	<stop  offset="0.65" style="stop-color:#3078F0"/>
	<stop  offset="0.9099" style="stop-color:#2B72EA"/>
	<stop  offset="1" style="stop-color:#286EE6"/>
</radialGradient>
<path fill="url(#SVGID_1_)" d="M16,7l-4-4H6C5.447,3,5,3.447,5,4v12c0,0.553,0.447,1,1,1h9c0.553,0,1-0.447,1-1V7z M6.5,15.037
	c-0.297,0-0.537-0.24-0.537-0.537s0.24-0.537,0.537-0.537s0.537,0.24,0.537,0.537S6.797,15.037,6.5,15.037z M6.5,6.037
	c-0.297,0-0.537-0.24-0.537-0.537S6.203,4.963,6.5,4.963S7.037,5.203,7.037,5.5S6.797,6.037,6.5,6.037z"/>
<radialGradient id="SVGID_2_" cx="16.0303" cy="7.0908" r="4.1799" gradientUnits="userSpaceOnUse">
	<stop  offset="0.15" style="stop-color:#A6A6A6"/>
	<stop  offset="1" style="stop-color:#B3B3B3"/>
</radialGradient>
<polygon fill="url(#SVGID_2_)" points="12,7 16,7 16,11 "/>
<polygon fill="#A0C3FF" points="16,7 12,7 12,3 "/>
<radialGradient id="SVGID_3_" cx="5.0049" cy="2.9995" r="17.813" gradientUnits="userSpaceOnUse">
	<stop  offset="0" style="stop-color:#FFFFFF;stop-opacity:0.1"/>
	<stop  offset="0.0896" style="stop-color:#FFFFFF;stop-opacity:0.091"/>
	<stop  offset="1" style="stop-color:#FFFFFF;stop-opacity:0"/>
</radialGradient>
<path fill="url(#SVGID_3_)" d="M16,7l-4-4H6C5.447,3,5,3.447,5,4v12c0,0.553,0.447,1,1,1h9c0.553,0,1-0.447,1-1V7z M6.5,15.037
	c-0.297,0-0.537-0.24-0.537-0.537s0.24-0.537,0.537-0.537s0.537,0.24,0.537,0.537S6.797,15.037,6.5,15.037z M6.5,6.037
	c-0.297,0-0.537-0.24-0.537-0.537S6.203,4.963,6.5,4.963S7.037,5.203,7.037,5.5S6.797,6.037,6.5,6.037z"/>
<rect opacity="0" fill="#4387FD" width="21" height="21"/>
</svg>
