<?xml version="1.0" encoding="utf-8"?>
<!-- Generator: Adobe Illustrator 15.0.0, SVG Export Plug-In  -->
<!DOCTYPE svg PUBLIC "-//W3C//DTD SVG 1.1//EN" "http://www.w3.org/Graphics/SVG/1.1/DTD/svg11.dtd" [
	<!ENTITY ns_flows "http://ns.adobe.com/Flows/1.0/">
]>
<svg version="1.1"
	 xmlns="http://www.w3.org/2000/svg" xmlns:xlink="http://www.w3.org/1999/xlink" xmlns:a="http://ns.adobe.com/AdobeSVGViewerExtensions/3.0/"
	 x="0px" y="0px" width="21px" height="21px" viewBox="0 0 21 21" overflow="visible" enable-background="new 0 0 21 21"
	 xml:space="preserve">
<defs>
</defs>
<path fill="#4986E7" d="M16.5,3h-12C3.672,3,3,3.672,3,4.5v12C3,17.328,3.672,18,4.5,18h12c0.828,0,1.5-0.672,1.5-1.5v-12
	C18,3.672,17.328,3,16.5,3z M11,15H6v-1h5V15z M15,13H6v-1h9V13z M15,11H6v-1h9V11z M15,9H6V8h9V9z M15,7H6V6h9V7z"/>
<rect opacity="0" fill="#4387FD" width="21" height="21"/>
</svg>
