<?xml version="1.0" encoding="utf-8"?>
<!-- Generator: Adobe Illustrator 15.0.0, SVG Export Plug-In  -->
<!DOCTYPE svg PUBLIC "-//W3C//DTD SVG 1.1//EN" "http://www.w3.org/Graphics/SVG/1.1/DTD/svg11.dtd" [
	<!ENTITY ns_flows "http://ns.adobe.com/Flows/1.0/">
]>
<svg version="1.1"
	 xmlns="http://www.w3.org/2000/svg" xmlns:xlink="http://www.w3.org/1999/xlink" xmlns:a="http://ns.adobe.com/AdobeSVGViewerExtensions/3.0/"
	 x="0px" y="0px" width="21px" height="21px" viewBox="0 0 21 21" overflow="visible" enable-background="new 0 0 21 21"
	 xml:space="preserve">
<defs>
</defs>
<path d="M17,6H5C4.449,6,4.002,6.449,4,7v8c0,0.553,0.447,1,1,1h12c0.553,0,1-0.447,1-1V7C17.998,6.449,17.549,6,17,6z"/>
<path fill="#FFFFFF" d="M11,12.037c-0.105,0-0.209-0.032-0.297-0.098L5.102,7.803C4.881,7.639,4.834,7.324,5,7.104
	c0.164-0.222,0.475-0.271,0.698-0.104L11,10.916l5.301-3.918c0.227-0.165,0.535-0.117,0.701,0.104
	c0.164,0.223,0.117,0.537-0.104,0.7l-5.602,4.138C11.209,12.005,11.102,12.037,11,12.037z"/>
<rect opacity="0" fill="#4387FD" width="21" height="21"/>
</svg>
