<?xml version="1.0" encoding="utf-8"?>
<!-- Generator: Adobe Illustrator 15.0.0, SVG Export Plug-In  -->
<!DOCTYPE svg PUBLIC "-//W3C//DTD SVG 1.1//EN" "http://www.w3.org/Graphics/SVG/1.1/DTD/svg11.dtd" [
	<!ENTITY ns_flows "http://ns.adobe.com/Flows/1.0/">
]>
<svg version="1.1"
	 xmlns="http://www.w3.org/2000/svg" xmlns:xlink="http://www.w3.org/1999/xlink" xmlns:a="http://ns.adobe.com/AdobeSVGViewerExtensions/3.0/"
	 x="0px" y="0px" width="21px" height="21px" viewBox="0 0 21 21" overflow="visible" enable-background="new 0 0 21 21"
	 xml:space="preserve">
<defs>
</defs>
<path d="M17.25,6h-6.938l-1.78-1.779C8.396,4.084,8.209,4,8,4H2.75C2.336,4,2,4.336,2,4.75v12.5C2,17.664,2.336,18,2.75,18H8v-1.699
	c0-0.701,2-1.4,4-1.4s4,0.699,4,1.4V18h1.25c0.414,0,0.75-0.336,0.75-0.75V6.75C18,6.336,17.664,6,17.25,6z M12,13.25
	c-1.242,0-2.25-1.008-2.25-2.25S10.758,8.75,12,8.75s2.25,1.008,2.25,2.25S13.242,13.25,12,13.25z"/>
<rect opacity="0" fill="#4387FD" width="21" height="21"/>
</svg>
