<?xml version="1.0" encoding="utf-8"?>
<!-- Generator: Adobe Illustrator 15.0.0, SVG Export Plug-In  -->
<!DOCTYPE svg PUBLIC "-//W3C//DTD SVG 1.1//EN" "http://www.w3.org/Graphics/SVG/1.1/DTD/svg11.dtd" [
	<!ENTITY ns_flows "http://ns.adobe.com/Flows/1.0/">
]>
<svg version="1.1"
	 xmlns="http://www.w3.org/2000/svg" xmlns:xlink="http://www.w3.org/1999/xlink" xmlns:a="http://ns.adobe.com/AdobeSVGViewerExtensions/3.0/"
	 x="0px" y="0px" width="21px" height="21px" viewBox="0 0 21 21" overflow="visible" enable-background="new 0 0 21 21"
	 xml:space="preserve">
<defs>
</defs>
<path d="M17.5,5H16V4c0-0.552-0.447-1-1-1H5C4.447,3,4,3.448,4,4v3c0,0.552,0.447,1,1,1h10c0.553,0,1-0.448,1-1V6h1v4h-6.5
	c-0.276,0-0.5,0.224-0.5,0.5V12H9v5.5c0,0.829,0.672,1.5,1.5,1.5s1.5-0.671,1.5-1.5V12h-1v-1h6.5c0.276,0,0.5-0.224,0.5-0.5v-5
	C18,5.224,17.776,5,17.5,5z"/>
<rect opacity="0" fill="#4387FD" width="21" height="21"/>
</svg>
