<?xml version="1.0" encoding="utf-8"?>
<!-- Generator: Adobe Illustrator 15.0.0, SVG Export Plug-In  -->
<!DOCTYPE svg PUBLIC "-//W3C//DTD SVG 1.1//EN" "http://www.w3.org/Graphics/SVG/1.1/DTD/svg11.dtd" [
	<!ENTITY ns_flows "http://ns.adobe.com/Flows/1.0/">
]>
<svg version="1.1"
	 xmlns="http://www.w3.org/2000/svg" xmlns:xlink="http://www.w3.org/1999/xlink" xmlns:a="http://ns.adobe.com/AdobeSVGViewerExtensions/3.0/"
	 x="0px" y="0px" width="21px" height="21px" viewBox="0 0 21 21" overflow="visible" enable-background="new 0 0 21 21"
	 xml:space="preserve">
<defs>
</defs>
<path fill="#16A765" d="M16.5,3h-12C3.672,3,3,3.672,3,4.5v12C3,17.328,3.672,18,4.5,18h12c0.828,0,1.5-0.672,1.5-1.5v-12
	C18,3.672,17.328,3,16.5,3z M6.5,14C5.672,14,5,13.328,5,12.5S5.672,11,6.5,11S8,11.672,8,12.5S7.328,14,6.5,14z M6.5,10
	C5.672,10,5,9.328,5,8.5S5.672,7,6.5,7S8,7.672,8,8.5S7.328,10,6.5,10z M16,13H9v-1h7V13z M16,9H9V8h7V9z"/>
<rect opacity="0" fill="#4387FD" width="21" height="21"/>
</svg>
