<?xml version="1.0" encoding="utf-8"?>
<!-- Generator: Adobe Illustrator 15.0.0, SVG Export Plug-In  -->
<!DOCTYPE svg PUBLIC "-//W3C//DTD SVG 1.1//EN" "http://www.w3.org/Graphics/SVG/1.1/DTD/svg11.dtd" [
	<!ENTITY ns_flows "http://ns.adobe.com/Flows/1.0/">
]>
<svg version="1.1"
	 xmlns="http://www.w3.org/2000/svg" xmlns:xlink="http://www.w3.org/1999/xlink" xmlns:a="http://ns.adobe.com/AdobeSVGViewerExtensions/3.0/"
	 x="0px" y="0px" width="21px" height="21px" viewBox="0 0 21 21" overflow="visible" enable-background="new 0 0 21 21"
	 xml:space="preserve">
<defs>
</defs>
<path d="M10,4c3.436,0,6,2.592,6,6.062c0,2.938-2.264,4.5-3,4.938h3v2h-5v-2c1.077-0.61,1.442-0.83,2.059-1.508
	c0.72-0.791,1.041-2,1.041-3.221c0-2.63-1.835-4.472-4.1-4.472c-2.266,0-4.1,1.842-4.1,4.472c0,1.221,0.321,2.43,1.041,3.221
	C7.558,14.17,7.923,14.39,9,15v2H4v-2h3c-0.737-0.438-3-2-3-4.938C4,6.592,6.564,4,10,4z"/>
<rect opacity="0" fill="#4387FD" width="21" height="21"/>
</svg>
