<?xml version="1.0" encoding="utf-8"?>
<!-- Generator: Adobe Illustrator 15.0.0, SVG Export Plug-In  -->
<!DOCTYPE svg PUBLIC "-//W3C//DTD SVG 1.1//EN" "http://www.w3.org/Graphics/SVG/1.1/DTD/svg11.dtd" [
	<!ENTITY ns_flows "http://ns.adobe.com/Flows/1.0/">
]>
<svg version="1.1"
	 xmlns="http://www.w3.org/2000/svg" xmlns:xlink="http://www.w3.org/1999/xlink" xmlns:a="http://ns.adobe.com/AdobeSVGViewerExtensions/3.0/"
	 x="0px" y="0px" width="21px" height="21px" viewBox="0 0 21 21" overflow="visible" enable-background="new 0 0 21 21"
	 xml:space="preserve">
<defs>
</defs>
<path d="M7.5,9C6.672,9,6,9.672,6,10.5S6.672,12,7.5,12S9,11.328,9,10.5S8.328,9,7.5,9z M2.5,9C1.672,9,1,9.672,1,10.5
	S1.672,12,2.5,12S4,11.328,4,10.5S3.328,9,2.5,9z M12.5,9C11.672,9,11,9.672,11,10.5s0.672,1.5,1.5,1.5s1.5-0.672,1.5-1.5
	S13.328,9,12.5,9z M17.5,9C16.672,9,16,9.672,16,10.5s0.672,1.5,1.5,1.5s1.5-0.672,1.5-1.5S18.328,9,17.5,9z"/>
<rect opacity="0" fill="#4387FD" width="21" height="21"/>
</svg>
