<?xml version="1.0" encoding="utf-8"?>
<!-- Generator: Adobe Illustrator 15.0.0, SVG Export Plug-In  -->
<!DOCTYPE svg PUBLIC "-//W3C//DTD SVG 1.1//EN" "http://www.w3.org/Graphics/SVG/1.1/DTD/svg11.dtd" [
	<!ENTITY ns_flows "http://ns.adobe.com/Flows/1.0/">
]>
<svg version="1.1"
	 xmlns="http://www.w3.org/2000/svg" xmlns:xlink="http://www.w3.org/1999/xlink" xmlns:a="http://ns.adobe.com/AdobeSVGViewerExtensions/3.0/"
	 x="0px" y="0px" width="21px" height="21px" viewBox="0 0 21 21" overflow="visible" enable-background="new 0 0 21 21"
	 xml:space="preserve">
<defs>
</defs>
<path d="M10.5,13C9.672,13,9,13.672,9,14.5S9.672,16,10.5,16s1.5-0.672,1.5-1.5S11.328,13,10.5,13z M5.5,13
	C4.672,13,4,13.672,4,14.5S4.672,16,5.5,16S7,15.328,7,14.5S6.328,13,5.5,13z M10,9H4v2h6V9z M4,5v2h13V5H4z M11,11h6V9h-6V11z
	 M15.5,13c-0.828,0-1.5,0.672-1.5,1.5s0.672,1.5,1.5,1.5s1.5-0.672,1.5-1.5S16.328,13,15.5,13z"/>
<rect opacity="0" fill="#4387FD" width="21" height="21"/>
</svg>
