<?xml version="1.0" encoding="utf-8"?>
<!-- Generator: Adobe Illustrator 15.0.0, SVG Export Plug-In  -->
<!DOCTYPE svg PUBLIC "-//W3C//DTD SVG 1.1//EN" "http://www.w3.org/Graphics/SVG/1.1/DTD/svg11.dtd" [
	<!ENTITY ns_flows "http://ns.adobe.com/Flows/1.0/">
]>
<svg version="1.1"
	 xmlns="http://www.w3.org/2000/svg" xmlns:xlink="http://www.w3.org/1999/xlink" xmlns:a="http://ns.adobe.com/AdobeSVGViewerExtensions/3.0/"
	 x="0px" y="0px" width="21px" height="21px" viewBox="0 0 21 21" overflow="visible" enable-background="new 0 0 21 21"
	 xml:space="preserve">
<defs>
</defs>
<radialGradient id="SVGID_1_" cx="7.6885" cy="4.2646" r="9.0448" gradientTransform="matrix(0.9999 0 0 1 -0.3286 0)" gradientUnits="userSpaceOnUse">
	<stop  offset="0" style="stop-color:#DE4A3F"/>
	<stop  offset="1" style="stop-color:#D43E30"/>
</radialGradient>
<path fill="url(#SVGID_1_)" d="M10.5,3C8.014,3,6,5.047,6,7.5c0,3.538,3,4.5,4.101,10.144C10.116,17.845,10.293,18,10.5,18
	s0.384-0.155,0.399-0.356C12,12,15,11.038,15,7.5C15,5.047,12.986,3,10.5,3z M10.5,9.5c-1.104,0-2-0.896-2-2s0.896-2,2-2
	s2,0.896,2,2S11.604,9.5,10.5,9.5z"/>
<rect opacity="0" fill="#4387FD" width="21" height="21"/>
</svg>
