<?xml version="1.0" encoding="utf-8"?>
<!-- Generator: Adobe Illustrator 15.0.0, SVG Export Plug-In  -->
<!DOCTYPE svg PUBLIC "-//W3C//DTD SVG 1.1//EN" "http://www.w3.org/Graphics/SVG/1.1/DTD/svg11.dtd" [
	<!ENTITY ns_flows "http://ns.adobe.com/Flows/1.0/">
]>
<svg version="1.1"
	 xmlns="http://www.w3.org/2000/svg" xmlns:xlink="http://www.w3.org/1999/xlink" xmlns:a="http://ns.adobe.com/AdobeSVGViewerExtensions/3.0/"
	 x="0px" y="0px" width="21px" height="21px" viewBox="0 0 21 21" overflow="visible" enable-background="new 0 0 21 21"
	 xml:space="preserve">
<defs>
</defs>
<g>
	<g>
		<path d="M8.293,12l-3.146,3.146L3,13v5h5l-2.146-2.146L9,12.707L8.293,12z M8,3H3v5l2.146-2.146L8.293,9L9,8.293L5.854,5.146L8,3z
			 M12.707,12L12,12.707l3.146,3.146L13,18h5v-5l-2.146,2.146L12.707,12z M13,3l2.146,2.146L12,8.293L12.707,9l3.146-3.146L18,8V3
			H13z"/>
	</g>
</g>
<rect id="_x3C_Slice_x3E__16_" fill="none" width="21" height="21"/>
</svg>
