<?xml version="1.0" encoding="utf-8"?>
<!-- Generator: Adobe Illustrator 15.0.0, SVG Export Plug-In  -->
<!DOCTYPE svg PUBLIC "-//W3C//DTD SVG 1.1//EN" "http://www.w3.org/Graphics/SVG/1.1/DTD/svg11.dtd" [
	<!ENTITY ns_flows "http://ns.adobe.com/Flows/1.0/">
]>
<svg version="1.1"
	 xmlns="http://www.w3.org/2000/svg" xmlns:xlink="http://www.w3.org/1999/xlink" xmlns:a="http://ns.adobe.com/AdobeSVGViewerExtensions/3.0/"
	 x="0px" y="0px" width="21px" height="21px" viewBox="0 0 21 21" overflow="visible" enable-background="new 0 0 21 21"
	 xml:space="preserve">
<defs>
</defs>
<polygon points="15,7 17,7 17,16 8,16 8,14 7,14 7,17 18,17 18,6 15.004,6 "/>
<path opacity="0.55" d="M4,3v11h11V3H4z M14,13H5V4h9V13z"/>
<path d="M11,8.5L8,6v2H4.5C2.566,8,1,9.566,1,11.5V17h0.9v-5.5C1.9,10,2.918,9,4.3,9H8v2L11,8.5z"/>
<rect opacity="0" fill="#4387FD" width="21" height="21"/>
</svg>
