<?xml version="1.0" encoding="utf-8"?>
<!-- Generator: Adobe Illustrator 15.0.0, SVG Export Plug-In  -->
<!DOCTYPE svg PUBLIC "-//W3C//DTD SVG 1.1//EN" "http://www.w3.org/Graphics/SVG/1.1/DTD/svg11.dtd" [
	<!ENTITY ns_flows "http://ns.adobe.com/Flows/1.0/">
]>
<svg version="1.1"
	 xmlns="http://www.w3.org/2000/svg" xmlns:xlink="http://www.w3.org/1999/xlink" xmlns:a="http://ns.adobe.com/AdobeSVGViewerExtensions/3.0/"
	 x="0px" y="0px" width="21px" height="21px" viewBox="0 0 21 21" overflow="visible" enable-background="new 0 0 21 21"
	 xml:space="preserve">
<defs>
</defs>
<path d="M18.5,18l2.5-3h-2v-3.5C19,9.566,17.434,8,15.5,8H9v0.9h6.5C17,8.9,18,9.919,18,11.3V15h-2L18.5,18z"/>
<polygon points="5,7 3,7 3,16 12,16 12,14 13,14 13,17 2,17 2,6 5,6 "/>
<path opacity="0.55" d="M5,3v11h11V3H5z M15,13H6V4h9V13z"/>
<rect opacity="0" fill="#4387FD" width="21" height="21"/>
</svg>
