<?xml version="1.0" encoding="utf-8"?>
<!-- Generator: Adobe Illustrator 15.0.0, SVG Export Plug-In  -->
<!DOCTYPE svg PUBLIC "-//W3C//DTD SVG 1.1//EN" "http://www.w3.org/Graphics/SVG/1.1/DTD/svg11.dtd" [
	<!ENTITY ns_flows "http://ns.adobe.com/Flows/1.0/">
]>
<svg version="1.1"
	 xmlns="http://www.w3.org/2000/svg" xmlns:xlink="http://www.w3.org/1999/xlink" xmlns:a="http://ns.adobe.com/AdobeSVGViewerExtensions/3.0/"
	 x="0px" y="0px" width="21px" height="21px" viewBox="0 0 21 21" overflow="visible" enable-background="new 0 0 21 21"
	 xml:space="preserve">
<defs>
</defs>
<path d="M11.668,6.832C10.774,5.292,10,4,10,4s-2.375,3.949-3.602,6.285C6.129,10.797,6,11.383,6,12
	c0,0.159,0.012,0.315,0.031,0.469L11.668,6.832z M13.362,9.842L16,7.207L14.793,6L5,15.803L6.197,17l1.657-1.656
	C8.475,15.748,9.201,16,10,16c2.207,0,4-1.789,4-4c0-0.617-0.133-1.203-0.4-1.715C13.526,10.146,13.443,9.992,13.362,9.842z"/>
<rect id="_x3C_Slice_x3E__15_" fill="none" width="21" height="21"/>
</svg>
