<?xml version="1.0" encoding="utf-8"?>
<!-- Generator: Adobe Illustrator 15.0.0, SVG Export Plug-In  -->
<!DOCTYPE svg PUBLIC "-//W3C//DTD SVG 1.1//EN" "http://www.w3.org/Graphics/SVG/1.1/DTD/svg11.dtd" [
	<!ENTITY ns_flows "http://ns.adobe.com/Flows/1.0/">
]>
<svg version="1.1"
	 xmlns="http://www.w3.org/2000/svg" xmlns:xlink="http://www.w3.org/1999/xlink" xmlns:a="http://ns.adobe.com/AdobeSVGViewerExtensions/3.0/"
	 x="0px" y="0px" width="21px" height="21px" viewBox="0 0 21 21" overflow="visible" enable-background="new 0 0 21 21"
	 xml:space="preserve">
<defs>
</defs>
<path d="M16.78,6.22L15,4.222C14.864,4.085,14.676,4,14.468,4H5.53C5.323,4,5.135,4.084,5,4.22l-1.781,2C3.084,6.355,3,6.543,3,6.75
	v9.5C3,16.664,3.336,17,3.75,17h12.5c0.414,0,0.75-0.336,0.75-0.75v-9.5C17,6.543,16.916,6.355,16.78,6.22z M5.699,5H14.3l0.899,1
	H4.8L5.699,5z"/>
<path fill="#FFFFFF" d="M13.465,13.836l-1.393-1.393h-0.324l-0.279-0.279c0.373-0.44,0.604-1.004,0.604-1.628
	C12.072,9.137,10.938,8,9.537,8C8.137,8,7,9.137,7,10.536c0,1.401,1.137,2.538,2.537,2.538c0.623,0,1.186-0.232,1.629-0.605
	l0.279,0.279v0.326l1.391,1.391c0.174,0.175,0.457,0.175,0.629,0.002C13.64,14.291,13.64,14.01,13.465,13.836z M9.537,12.186
	c-0.912,0-1.65-0.737-1.65-1.649c0-0.911,0.738-1.649,1.65-1.649s1.648,0.738,1.648,1.649C11.186,11.448,10.449,12.186,9.537,12.186
	z"/>
<rect id="_x3C_Slice_x3E__16_" fill="none" width="21" height="21"/>
</svg>
