<?xml version="1.0" encoding="utf-8"?>
<!-- Generator: Adobe Illustrator 15.0.0, SVG Export Plug-In  -->
<!DOCTYPE svg PUBLIC "-//W3C//DTD SVG 1.1//EN" "http://www.w3.org/Graphics/SVG/1.1/DTD/svg11.dtd" [
	<!ENTITY ns_flows "http://ns.adobe.com/Flows/1.0/">
]>
<svg version="1.1"
	 xmlns="http://www.w3.org/2000/svg" xmlns:xlink="http://www.w3.org/1999/xlink" xmlns:a="http://ns.adobe.com/AdobeSVGViewerExtensions/3.0/"
	 x="0px" y="0px" width="21px" height="21px" viewBox="0 0 21 21" overflow="visible" enable-background="new 0 0 21 21"
	 xml:space="preserve">
<defs>
</defs>
<path fill="#FB4C2F" d="M17.9,12.014c-0.342-0.537-1.496-0.65-2.402-0.65c-0.488,0-1.031,0.033-1.617,0.1
	c-0.426-0.243-0.822-0.508-1.172-0.785c-0.824-0.677-1.547-1.844-2.037-3.288c0.061-0.343,0.988-3.346,0.135-4.2
	c-0.174-0.172-0.375-0.188-0.473-0.188L10.057,3c-0.252,0-0.51,0.34-0.6,0.661C9.033,5.176,9.293,5.951,9.75,7.45
	c-0.34,1.168-0.725,2.39-1.343,3.631c-0.427,0.858-0.829,1.618-1.194,2.257c-0.502,0.229-0.875,0.43-1.109,0.6l-0.014,0.01
	c-1.355,0.832-1.959,1.724-2.07,2.283c-0.038,0.184-0.015,0.307,0.023,0.388l0.447,0.296C4.604,16.971,4.725,17,4.852,17
	c0.811,0,1.885-1.168,3.281-3.569c0.126-0.052,0.245-0.099,0.354-0.138c1.45-0.473,3.233-0.739,4.981-0.918
	c1.164,0.613,2.596,0.887,3.473,0.887c0.4,0,0.678-0.087,0.816-0.25c0.094-0.095,0.223-0.26,0.236-0.58
	C18.014,12.282,17.982,12.142,17.9,12.014z M4.746,16.424c-0.005,0.002-0.012,0.003-0.016,0.003c-0.014,0-0.026-0.005-0.035-0.015
	c-0.014-0.014-0.019-0.033-0.014-0.051c0.129-0.391,0.646-1.156,1.481-1.913c0.116-0.097,0.308-0.223,0.556-0.367
	c0.021-0.012,0.046-0.008,0.062,0.008c0.017,0.017,0.019,0.042,0.007,0.062C5.963,15.476,5.275,16.24,4.746,16.424z M10.159,3.633
	c0.022-0.054,0.056-0.104,0.078-0.138c0.011-0.015,0.028-0.024,0.051-0.026c0.019-0.002,0.04,0.005,0.055,0.019l0.067,0.065
	c0.023,0.024,0.043,0.045,0.057,0.064c0.154,0.219,0.17,0.582,0.057,1.214l-0.035,0.189c-0.047,0.26-0.104,0.583-0.188,0.96
	c-0.005,0.026-0.031,0.045-0.062,0.045h-0.001c-0.031,0-0.058-0.02-0.063-0.045C9.972,4.974,9.965,4.117,10.159,3.633z M8.705,12.73
	v-0.002l-0.127,0.049c-0.029,0.011-0.061,0.022-0.093,0.035c0.214-0.386,0.438-0.802,0.668-1.243
	c0.526-1.015,0.915-1.938,1.186-2.81c0.478,1.056,1.087,1.919,1.776,2.513c0.146,0.126,0.311,0.253,0.488,0.378
	C11.586,11.832,10.186,12.158,8.705,12.73z M17.525,12.603c-0.018,0.02-0.055,0.038-0.111,0.056l-0.039,0.009
	c-0.07,0.011-0.146,0.017-0.229,0.017c-0.529,0-1.357-0.224-2.219-0.598c-0.023-0.011-0.039-0.039-0.033-0.065
	c0.004-0.028,0.029-0.048,0.057-0.049c0.082-0.002,0.164-0.002,0.244-0.002c1.629,0,2.107,0.29,2.236,0.415
	c0.043,0.049,0.07,0.094,0.088,0.124c0.004,0.009,0.008,0.016,0.012,0.021C17.547,12.552,17.545,12.582,17.525,12.603z"/>
<rect opacity="0" fill="#4387FD" width="21" height="21"/>
</svg>
