<?xml version="1.0" encoding="utf-8"?>
<!-- Generator: Adobe Illustrator 15.0.0, SVG Export Plug-In  -->
<!DOCTYPE svg PUBLIC "-//W3C//DTD SVG 1.1//EN" "http://www.w3.org/Graphics/SVG/1.1/DTD/svg11.dtd" [
	<!ENTITY ns_flows "http://ns.adobe.com/Flows/1.0/">
]>
<svg version="1.1"
	 xmlns="http://www.w3.org/2000/svg" xmlns:xlink="http://www.w3.org/1999/xlink" xmlns:a="http://ns.adobe.com/AdobeSVGViewerExtensions/3.0/"
	 x="0px" y="0px" width="21px" height="21px" viewBox="0 0 21 21" overflow="visible" enable-background="new 0 0 21 21"
	 xml:space="preserve">
<defs>
</defs>
<path d="M15.5,8h-11C3.672,8,3,8.67,3,9.5V14h3v3h8v-3h3V9.5C17,8.67,16.328,8,15.5,8z M13,16H7v-4h6V16z M14.5,10.25
	c-0.414,0-0.75-0.337-0.75-0.75c0-0.416,0.336-0.75,0.75-0.75s0.75,0.334,0.75,0.75C15.25,9.913,14.914,10.25,14.5,10.25z M14,5H6v2
	h8V5z"/>
<rect opacity="0" fill="#4387FD" width="21" height="21"/>
</svg>
