<?xml version="1.0" encoding="utf-8"?>
<!-- Generator: Adobe Illustrator 15.0.0, SVG Export Plug-In  -->
<!DOCTYPE svg PUBLIC "-//W3C//DTD SVG 1.1//EN" "http://www.w3.org/Graphics/SVG/1.1/DTD/svg11.dtd" [
	<!ENTITY ns_flows "http://ns.adobe.com/Flows/1.0/">
]>
<svg version="1.1"
	 xmlns="http://www.w3.org/2000/svg" xmlns:xlink="http://www.w3.org/1999/xlink" xmlns:a="http://ns.adobe.com/AdobeSVGViewerExtensions/3.0/"
	 x="0px" y="0px" width="21px" height="21px" viewBox="0 0 21 21" overflow="visible" enable-background="new 0 0 21 21"
	 xml:space="preserve">
<defs>
</defs>
<path d="M10,3C7.77,3,5.902,4.057,4.682,5.682L3,4v5h5L5.766,6.764C6.772,5.568,8.352,4.799,10,4.799
	c2.871,0,5.199,2.328,5.199,5.201c0,2.871-2.328,5.199-5.199,5.199c-2.529,0-4.533-1.807-5-4.199H3c0.486,3.391,3.475,6,7,6
	c3.866,0,7-3.135,7-7C17,6.133,13.866,3,10,3z M13,10.5L10,10L9.5,7H9v4h4V10.5z"/>
<rect opacity="0" fill="#4387FD" width="21" height="21"/>
</svg>
