<?xml version="1.0" encoding="utf-8"?>
<!-- Generator: Adobe Illustrator 15.0.0, SVG Export Plug-In  -->
<!DOCTYPE svg PUBLIC "-//W3C//DTD SVG 1.1//EN" "http://www.w3.org/Graphics/SVG/1.1/DTD/svg11.dtd" [
	<!ENTITY ns_flows "http://ns.adobe.com/Flows/1.0/">
]>
<svg version="1.1"
	 xmlns="http://www.w3.org/2000/svg" xmlns:xlink="http://www.w3.org/1999/xlink" xmlns:a="http://ns.adobe.com/AdobeSVGViewerExtensions/3.0/"
	 x="0px" y="0px" width="21px" height="21px" viewBox="0 0 21 21" overflow="visible" enable-background="new 0 0 21 21"
	 xml:space="preserve">
<defs>
</defs>
<path fill="#4986E7" d="M17.878,10.704l-7.083-7.082C10.713,3.541,10.606,3.5,10.5,3.5s-0.213,0.041-0.295,0.122l-7.083,7.082
	c-0.163,0.163-0.163,0.428,0,0.591l7.083,7.083c0.082,0.081,0.188,0.122,0.294,0.122c0.107,0,0.214-0.041,0.296-0.122l7.083-7.083
	C18.041,11.131,18.041,10.867,17.878,10.704z M14,11l-4-3v2H5.207L10.5,4.708L16.792,11l-6.293,6.292L5.207,12H10v2L14,11z"/>
<rect opacity="0" fill="#4387FD" width="21" height="21"/>
</svg>
