<?xml version="1.0" encoding="utf-8"?>
<!-- Generator: Adobe Illustrator 15.0.0, SVG Export Plug-In  -->
<!DOCTYPE svg PUBLIC "-//W3C//DTD SVG 1.1//EN" "http://www.w3.org/Graphics/SVG/1.1/DTD/svg11.dtd" [
	<!ENTITY ns_flows "http://ns.adobe.com/Flows/1.0/">
]>
<svg version="1.1"
	 xmlns="http://www.w3.org/2000/svg" xmlns:xlink="http://www.w3.org/1999/xlink" xmlns:a="http://ns.adobe.com/AdobeSVGViewerExtensions/3.0/"
	 x="0px" y="0px" width="21px" height="21px" viewBox="0 0 21 21" overflow="visible" enable-background="new 0 0 21 21"
	 xml:space="preserve">
<defs>
</defs>
<path d="M3.683,16.502c-0.123,0-0.199-0.005-0.216-0.006c-0.275-0.018-0.483-0.255-0.466-0.53c0.018-0.274,0.218-0.49,0.529-0.468
	c0.017,0,1.589,0.083,3.031-0.765c-0.899-0.862-1.953-2.422-2.008-5.015c-0.047-2.234,0.39-3.788,1.299-4.618
	c0.471-0.43,0.951-0.556,1.255-0.589L7.106,4.507c0.019-0.003,0.069-0.013,0.154-0.005c0.078-0.007,0.136,0.003,0.155,0.005v0.005
	C7.718,4.545,8.195,4.67,8.665,5.096c0.914,0.828,1.362,2.382,1.332,4.618c-0.028,2.146-0.634,3.829-1.803,5.008
	c0.918,0.538,1.878,0.707,2.528,0.687c0.054,0.007,1.296,0.021,2.443-0.604c-0.775-0.783-1.348-1.929-1.366-3.603
	c-0.019-1.702,0.32-2.878,1.008-3.495c0.459-0.412,0.921-0.431,1.1-0.434c0.182,0.002,0.713,0.016,1.226,0.484
	c0.695,0.636,1.032,1.795,1.002,3.447c-0.027,1.494-0.475,2.704-1.33,3.599c1.227,0.688,2.576,0.683,2.69,0.696
	c0.001,0,0.002,0,0.003,0c0.274,0,0.498,0.222,0.501,0.496c0.002,0.275-0.22,0.501-0.495,0.504c-0.07-0.022-1.92-0.006-3.507-1.026
	c-1.484,0.973-3.178,0.939-3.266,0.934c-0.868,0.044-2.162-0.217-3.347-1.012C5.909,16.403,4.266,16.502,3.683,16.502z
	 M13.849,8.271c0.01,0.002-0.186-0.003-0.401,0.207c-0.25,0.243-0.667,0.92-0.647,2.713c0.016,1.424,0.518,2.377,1.188,3.016
	c0.737-0.715,1.123-1.73,1.146-3.02c0.031-1.652-0.338-2.363-0.653-2.668c-0.265-0.257-0.523-0.246-0.532-0.246l-0.042,0.002
	L13.849,8.271z M7.225,5.504C7.089,5.518,6.798,5.58,6.501,5.862c-0.46,0.438-0.998,1.46-0.947,3.835
	c0.038,1.819,0.643,3.326,1.746,4.358c0.025,0.022,0.05,0.046,0.075,0.068c1.051-0.991,1.597-2.479,1.622-4.424
	C9.03,7.287,8.47,6.268,7.994,5.837c-0.288-0.261-0.57-0.32-0.7-0.333H7.225z"/>
<rect opacity="0" fill="#4387FD" width="21" height="21"/>
</svg>
