<?xml version="1.0" encoding="utf-8"?>
<!-- Generator: Adobe Illustrator 15.0.0, SVG Export Plug-In  -->
<!DOCTYPE svg PUBLIC "-//W3C//DTD SVG 1.1//EN" "http://www.w3.org/Graphics/SVG/1.1/DTD/svg11.dtd" [
	<!ENTITY ns_flows "http://ns.adobe.com/Flows/1.0/">
]>
<svg version="1.1"
	 xmlns="http://www.w3.org/2000/svg" xmlns:xlink="http://www.w3.org/1999/xlink" xmlns:a="http://ns.adobe.com/AdobeSVGViewerExtensions/3.0/"
	 x="0px" y="0px" width="21px" height="21px" viewBox="0 0 21 21" overflow="visible" enable-background="new 0 0 21 21"
	 xml:space="preserve">
<defs>
</defs>
<g opacity="0.2">
	<polygon points="10.5,3 12,9 18,9 13.228,12.223 15,18 10.5,14.306 6,18 7.773,12.223 3,9 9,9 	"/>
</g>
<path d="M10.5,5.474l0.918,3.672L11.531,9.6H12h4.039l-3.147,2.126l-0.368,0.248l0.131,0.425l1.188,3.875l-2.962-2.432L10.5,13.529
	l-0.381,0.312l-2.961,2.432l1.189-3.875l0.13-0.425l-0.368-0.248L4.961,9.6H9h0.469l0.113-0.454L10.5,5.474 M10.5,3L9,9H3
	l4.773,3.223L6,18l4.5-3.694L15,18l-1.772-5.777L18,9h-6L10.5,3L10.5,3z"/>
<rect opacity="0" fill="#4387FD" width="21" height="21"/>
</svg>
