<?xml version="1.0" encoding="utf-8"?>
<!-- Generator: Adobe Illustrator 15.0.0, SVG Export Plug-In  -->
<!DOCTYPE svg PUBLIC "-//W3C//DTD SVG 1.1//EN" "http://www.w3.org/Graphics/SVG/1.1/DTD/svg11.dtd" [
	<!ENTITY ns_flows "http://ns.adobe.com/Flows/1.0/">
]>
<svg version="1.1"
	 xmlns="http://www.w3.org/2000/svg" xmlns:xlink="http://www.w3.org/1999/xlink" xmlns:a="http://ns.adobe.com/AdobeSVGViewerExtensions/3.0/"
	 x="0px" y="0px" width="21px" height="21px" viewBox="0 0 21 21" overflow="visible" enable-background="new 0 0 21 21"
	 xml:space="preserve">
<defs>
</defs>
<g opacity="0.2">
	<polygon points="10.5,5 11.736,9.291 16,9.201 12.5,11.764 13.898,16 10.5,13.291 7.101,16 8.5,11.764 5,9.201 9.264,9.291 	"/>
</g>
<path d="M10.5,5.902l0.996,3.459c0.031,0.105,0.129,0.18,0.24,0.18c0.002,0,0.004,0,0.006,0l3.471-0.074l-2.861,2.094
	c-0.087,0.064-0.123,0.178-0.089,0.281l1.136,3.439l-2.742-2.186c-0.046-0.037-0.102-0.055-0.156-0.055s-0.11,0.018-0.156,0.055
	l-2.742,2.186l1.136-3.439c0.034-0.104-0.003-0.217-0.09-0.281l-2.86-2.094l3.471,0.074c0.002,0,0.004,0,0.006,0
	c0.111,0,0.209-0.074,0.24-0.18L10.5,5.902 M10.5,5L9.264,9.291L5,9.201l3.5,2.562L7.101,16l3.399-2.709L13.898,16L12.5,11.764
	L16,9.201l-4.264,0.09L10.5,5L10.5,5z"/>
<rect opacity="0" fill="#4387FD" width="21" height="21"/>
</svg>
