<?xml version="1.0" encoding="utf-8"?>
<!-- Generator: Adobe Illustrator 15.0.0, SVG Export Plug-In  -->
<!DOCTYPE svg PUBLIC "-//W3C//DTD SVG 1.1//EN" "http://www.w3.org/Graphics/SVG/1.1/DTD/svg11.dtd" [
	<!ENTITY ns_flows "http://ns.adobe.com/Flows/1.0/">
]>
<svg version="1.1"
	 xmlns="http://www.w3.org/2000/svg" xmlns:xlink="http://www.w3.org/1999/xlink" xmlns:a="http://ns.adobe.com/AdobeSVGViewerExtensions/3.0/"
	 x="0px" y="0px" width="21px" height="21px" viewBox="0 0 21 21" overflow="visible" enable-background="new 0 0 21 21"
	 xml:space="preserve">
<defs>
</defs>
<path d="M12,12.047c0-0.457-0.321-0.839-0.75-0.932c-1.143-0.265-2.025-0.729-2.95-1.424C9.404,8.329,9.867,6.69,10.1,4.99H12
	c0.553,0,1-0.438,1-0.99c0-0.554-0.447-1-1-1H8V1c0-0.554-0.447-1-1-1S6,0.446,6,1v2H2C1.447,3,1,3.446,1,4
	c0,0.553,0.447,0.99,1,0.99h6.3C8.17,6.307,7.779,7.506,7,8.5C6.658,8.06,6.383,7.557,6.158,7h-2
	c0.354,1.014,0.854,1.938,1.541,2.757c-0.828,0.64-1.896,1.115-2.949,1.358C2.321,11.208,2,11.59,2,12.047
	C2,12.573,2.427,13,2.953,13c0.08,0,0.16-0.005,0.232-0.029C4.509,12.525,5.922,11.941,7,11c1.146,0.943,2.349,1.482,3.813,1.971
	C10.887,12.995,10.967,13,11.047,13C11.573,13,12,12.573,12,12.047z M8,18H6v-2h1.25L5.5,14l-1.75,2H5v2c0,0.553,0.447,1,1,1h2v1.25
	l2-1.75l-2-1.75V18z M16.199,11H14.8L11,20h1.75l0.75-2h4l0.75,2H20L16.199,11z M13.75,16.7l1.75-4.2l1.75,4.2H13.75z"/>
<rect id="_x3C_Slice_x3E__15_" fill="none" width="21" height="21"/>
</svg>
