<?xml version="1.0" encoding="utf-8"?>
<!-- Generator: Adobe Illustrator 15.0.0, SVG Export Plug-In  -->
<!DOCTYPE svg PUBLIC "-//W3C//DTD SVG 1.1//EN" "http://www.w3.org/Graphics/SVG/1.1/DTD/svg11.dtd" [
	<!ENTITY ns_flows "http://ns.adobe.com/Flows/1.0/">
]>
<svg version="1.1"
	 xmlns="http://www.w3.org/2000/svg" xmlns:xlink="http://www.w3.org/1999/xlink" xmlns:a="http://ns.adobe.com/AdobeSVGViewerExtensions/3.0/"
	 x="0px" y="0px" width="21px" height="21px" viewBox="0 0 21 21" overflow="visible" enable-background="new 0 0 21 21"
	 xml:space="preserve">
<defs>
</defs>
<polygon fill="none" points="7.944,5.818 7.979,5.818 7.962,5.772 "/>
<polygon fill="none" points="10.021,11 8.779,7.849 7.589,11 "/>
<polygon fill="none" points="9.542,5.818 8.741,4 9.542,5.818 "/>
<polygon opacity="0.4" points="5.903,11 10.021,11 8.779,7.849 7.979,5.818 7.944,5.818 "/>
<polygon opacity="0.4" points="13.332,4 8.741,4 9.542,5.818 9.542,5.818 14.462,17 19,17 "/>
<path d="M9.542,5.818L8.741,4H7.183L1.462,17h1.954h0.126l1.574-4h1.717h3.975l0.394,1l1.182,3h2.079L9.542,5.818z M7.589,11H5.903
	l2.041-5.182l0.018-0.046l0.018,0.046l0.8,2.03L10.021,11H7.589z"/>
<polygon opacity="0.4" points="9.511,13 5.116,13 3.542,17 8,17 8.901,14.614 "/>
<rect opacity="0" fill="#4387FD" width="21" height="21"/>
</svg>
