<?xml version="1.0" encoding="utf-8"?>
<!-- Generator: Adobe Illustrator 15.0.0, SVG Export Plug-In  -->
<!DOCTYPE svg PUBLIC "-//W3C//DTD SVG 1.1//EN" "http://www.w3.org/Graphics/SVG/1.1/DTD/svg11.dtd" [
	<!ENTITY ns_flows "http://ns.adobe.com/Flows/1.0/">
]>
<svg version="1.1"
	 xmlns="http://www.w3.org/2000/svg" xmlns:xlink="http://www.w3.org/1999/xlink" xmlns:a="http://ns.adobe.com/AdobeSVGViewerExtensions/3.0/"
	 x="0px" y="0px" width="21px" height="21px" viewBox="0 0 21 21" overflow="visible" enable-background="new 0 0 21 21"
	 xml:space="preserve">
<defs>
</defs>
<polygon opacity="0.85" points="9,8 9,6 8,6 8,8 6,8 6,9 8,9 8,11 9,11 9,9 11,9 11,8 "/>
<path d="M16.742,15.501L14,12.758h-0.643l-0.683-0.683C13.5,11.113,14,9.866,14,8.5C14,5.462,11.537,3,8.5,3S3,5.462,3,8.5
	S5.463,14,8.5,14c1.367,0,2.614-0.501,3.576-1.327l0.684,0.683V14l2.742,2.742c0.342,0.343,0.896,0.344,1.24,0.001
	C17.086,16.399,17.086,15.845,16.742,15.501z M8.5,12.2c-2.044,0-3.7-1.657-3.7-3.7s1.656-3.7,3.7-3.7
	c2.043,0,3.699,1.657,3.699,3.7S10.543,12.2,8.5,12.2z"/>
<rect opacity="0" fill="#4387FD" width="21" height="21"/>
</svg>
