<?xml version="1.0" encoding="utf-8"?>
<!-- Generator: Adobe Illustrator 15.0.0, SVG Export Plug-In  -->
<!DOCTYPE svg PUBLIC "-//W3C//DTD SVG 1.1//EN" "http://www.w3.org/Graphics/SVG/1.1/DTD/svg11.dtd" [
	<!ENTITY ns_flows "http://ns.adobe.com/Flows/1.0/">
]>
<svg version="1.1"
	 xmlns="http://www.w3.org/2000/svg" xmlns:xlink="http://www.w3.org/1999/xlink" xmlns:a="http://ns.adobe.com/AdobeSVGViewerExtensions/3.0/"
	 x="0px" y="0px" width="21px" height="21px" viewBox="0 0 21 21" overflow="visible" enable-background="new 0 0 21 21"
	 xml:space="preserve">
<defs>
</defs>
<path d="M20,2H1.2C0.537,2,0,2.537,0,3.2v4.53c1.253,0,2.27,1.017,2.27,2.27S1.253,12.27,0,12.27v4.53C0,17.463,0.537,18,1.2,18H20
	v-0.5L18.5,16l1.5-1.5L18.5,13l1.5-1.5L18.5,10L20,8.5L18.5,7L20,5.5L18.5,4L20,2.5V2z M14.5,15.5l-4-3l-4,3l1.6-4.7L4.191,8H9
	l1.5-4.6L12,8h4.809L12.9,10.8L14.5,15.5z"/>
<rect opacity="0" fill="#4387FD" width="21" height="21"/>
</svg>
