<?xml version="1.0" encoding="utf-8"?>
<!-- Generator: Adobe Illustrator 16.0.0, SVG Export Plug-In . SVG Version: 6.00 Build 0)  -->
<!DOCTYPE svg PUBLIC "-//W3C//DTD SVG 1.1//EN" "http://www.w3.org/Graphics/SVG/1.1/DTD/svg11.dtd">
<svg version="1.1" id="Layer_1" xmlns="http://www.w3.org/2000/svg" xmlns:xlink="http://www.w3.org/1999/xlink" x="0px" y="0px"
	 width="24px" height="24px" viewBox="0 0 24 24" enable-background="new 0 0 24 24" xml:space="preserve">
<path fill="#010101" d="M12,5C9.77,5,7.902,6.057,6.682,7.682L5,6v5h5L7.766,8.764C8.772,7.568,10.352,6.799,12,6.799
	c2.871,0,5.199,2.328,5.199,5.201c0,2.871-2.328,5.199-5.199,5.199c-2.529,0-4.533-1.807-5-4.199H5c0.486,3.391,3.475,6,7,6
	c3.866,0,7-3.135,7-7C19,8.133,15.866,5,12,5z M15,12.5L12,12l-0.5-3H11v4h4V12.5z"/>
</svg>
