<?xml version="1.0" encoding="utf-8"?>
<!-- Generator: Adobe Illustrator 15.0.0, SVG Export Plug-In  -->
<!DOCTYPE svg PUBLIC "-//W3C//DTD SVG 1.1//EN" "http://www.w3.org/Graphics/SVG/1.1/DTD/svg11.dtd" [
	<!ENTITY ns_flows "http://ns.adobe.com/Flows/1.0/">
]>
<svg version="1.1"
	 xmlns="http://www.w3.org/2000/svg" xmlns:xlink="http://www.w3.org/1999/xlink" xmlns:a="http://ns.adobe.com/AdobeSVGViewerExtensions/3.0/"
	 x="0px" y="0px" width="21px" height="21px" viewBox="0 0 21 21" overflow="visible" enable-background="new 0 0 21 21"
	 xml:space="preserve">
<defs>
</defs>
<path d="M16.8,3H3.199C2.537,3,2,3.537,2,4.2v9.6C2,14.463,2.537,15,3.199,15H5v4l4.4-4H16.8c0.663,0,1.2-0.537,1.2-1.2V4.2
	C18,3.537,17.463,3,16.8,3z M17,13.8c0,0.11-0.09,0.2-0.2,0.2H9l-3,3v-3H3.199C3.09,14,3,13.91,3,13.8V4.2C3,4.09,3.09,4,3.199,4
	H16.8C16.91,4,17,4.09,17,4.2V13.8z"/>
<path opacity="0.9" d="M5,9h1V8H5V9z M5,11h1v-1H5V11z M5,7h1V6H5V7z M7,11h8v-1H7V11z M7,6v1h8V6H7z M7,9h8V8H7V9z"/>
<rect opacity="0" fill="#4387FD" width="21" height="21"/>
</svg>
