<?xml version="1.0" encoding="utf-8"?>
<!-- Generator: Adobe Illustrator 15.0.0, SVG Export Plug-In  -->
<!DOCTYPE svg PUBLIC "-//W3C//DTD SVG 1.1//EN" "http://www.w3.org/Graphics/SVG/1.1/DTD/svg11.dtd" [
	<!ENTITY ns_flows "http://ns.adobe.com/Flows/1.0/">
]>
<svg version="1.1"
	 xmlns="http://www.w3.org/2000/svg" xmlns:xlink="http://www.w3.org/1999/xlink" xmlns:a="http://ns.adobe.com/AdobeSVGViewerExtensions/3.0/"
	 x="0px" y="0px" width="21px" height="21px" viewBox="0 0 21 21" overflow="visible" enable-background="new 0 0 21 21"
	 xml:space="preserve">
<defs>
</defs>
<polygon fill="none" points="8,13.277 8.5,11.764 8,11.397 7.5,11.764 "/>
<g opacity="0.2">
	<polygon points="7.5,11.764 8,11.397 5,9.201 6.711,9.201 5.5,5 4.289,9.201 0,9.201 3.5,11.764 2.101,16 5.5,13.291 7.476,14.865 
		8,13.277 	"/>
</g>
<polygon fill="none" points="13,13.277 13.5,11.764 13,11.397 12.5,11.764 "/>
<g opacity="0.5">
	<polygon points="12.5,11.764 13,11.397 10,9.201 11.711,9.201 10.5,5 9.289,9.201 5,9.201 8.5,11.764 7.101,16 10.5,13.291 
		12.476,14.865 13,13.277 	"/>
</g>
<g>
	<polygon points="15.5,5 16.711,9.201 21,9.201 17.5,11.764 18.898,16 15.5,13.291 12.101,16 13.5,11.764 10,9.201 14.289,9.201 	
		"/>
</g>
<rect opacity="0" fill="#4387FD" width="21" height="21"/>
</svg>
