<?xml version="1.0" encoding="utf-8"?>
<!-- Generator: Adobe Illustrator 15.0.0, SVG Export Plug-In  -->
<!DOCTYPE svg PUBLIC "-//W3C//DTD SVG 1.1//EN" "http://www.w3.org/Graphics/SVG/1.1/DTD/svg11.dtd" [
	<!ENTITY ns_flows "http://ns.adobe.com/Flows/1.0/">
]>
<svg version="1.1"
	 xmlns="http://www.w3.org/2000/svg" xmlns:xlink="http://www.w3.org/1999/xlink" xmlns:a="http://ns.adobe.com/AdobeSVGViewerExtensions/3.0/"
	 x="0px" y="0px" width="21px" height="21px" viewBox="0 0 21 21" overflow="visible" enable-background="new 0 0 21 21"
	 xml:space="preserve">
<defs>
</defs>
<path d="M16,6l-2-3h-3l2,3H16z M16,3l2,3h1V3H16z M11,6L9,3H6l2,3H11z M2,16.8C2,17.463,2.537,18,3.2,18h14.6
	c0.663,0,1.2-0.537,1.2-1.2V7H2V16.8z M4,9h13v1H4V9z M4,3H3.2C2.537,3,2,3.537,2,4.2V6h4L4,3z"/>
<rect opacity="0" fill="#4387FD" width="21" height="21"/>
</svg>
