<?xml version="1.0" encoding="UTF-8" standalone="no"?>
<svg width="48px" height="48px" viewBox="0 0 48 48" version="1.1" xmlns="http://www.w3.org/2000/svg" xmlns:xlink="http://www.w3.org/1999/xlink" xmlns:sketch="http://www.bohemiancoding.com/sketch/ns">
    <title>Artboard 1 1 1</title>
    <description>Created with Sketch (http://www.bohemiancoding.com/sketch)</description>
    <defs></defs>
    <g id="Page-1" stroke="none" stroke-width="1" fill="none" fill-rule="evenodd" sketch:type="MSPage">
        <g id="Artboard-1-1-1" sketch:type="MSArtboardGroup" fill="#000000">
            <path d="M2.304,26.024 L2.304,22.976 C2.304,20.933 3.954,19.28 6,19.28 L21,19.28 C19.77,16.304 16.575,14 13.5,14 L7.5,14 C1.698,14 -3,18.701 -3,24.5 C-3,30.302 1.698,35 7.5,35 L13.5,35 C16.575,35 19.77,32.696 21,29.72 L6,29.72 C3.954,29.72 2.304,28.07 2.304,26.024 L2.304,26.024 Z M40.5,14 L34.5,14 C31.425,14 28.23,16.304 27,19.28 L42,19.28 C44.046,19.28 45.696,20.933 45.696,22.976 L45.696,26.024 C45.696,28.07 44.046,29.72 42,29.72 L27,29.72 C28.23,32.696 31.425,35 34.5,35 L40.5,35 C46.302,35 51,30.302 51,24.5 C51,18.701 46.302,14 40.5,14 L40.5,14 Z M12,24.4966667 C12,25.8766667 13.008,27 14.25,27 L33.75,27 C34.992,27 36,25.8766667 36,24.4966667 C36,23.1133333 34.992,22 33.75,22 L14.25,22 C13.008,22 12,23.1133333 12,24.4966667 L12,24.4966667 Z" id="Imported-Layers" sketch:type="MSShapeGroup" transform="translate(24.000000, 24.500000) rotate(-45.000000) translate(-24.000000, -24.500000) "></path>
        </g>
    </g>
</svg>