<?xml version="1.0" encoding="UTF-8" standalone="no"?>
<svg width="24px" height="24px" viewBox="0 0 24 24" version="1.1" xmlns="http://www.w3.org/2000/svg" xmlns:xlink="http://www.w3.org/1999/xlink" xmlns:sketch="http://www.bohemiancoding.com/sketch/ns">
    <title>Artboard 2 1 1 1 1</title>
    <description>Created with Sketch (http://www.bohemiancoding.com/sketch)</description>
    <defs></defs>
    <g id="Page-1" stroke="none" stroke-width="1" fill="none" fill-rule="evenodd" sketch:type="MSPage">
        <g id="Artboard-2-1-1-1-1" sketch:type="MSArtboardGroup" fill="#4A4A4A">
            <path d="M11,19 L5.00087166,19 C4.44463086,19 4,18.5542648 4,18.0044225 L4,10.0023998 L4,6.99077797 C4,6.45097518 4.44358641,6 4.99077797,6 L9.00922203,6 C9.54902482,6 10.2256284,6.38356176 10.5039552,6.85670917 L11.1757108,7.99867423 C11.1759708,7.99911608 11.1762303,7.999558 11.1764894,8 L18.9991283,8 C19.5553691,8 20,8.44573523 20,8.9955775 L20,18.0044225 C20,18.555163 19.5518945,19 18.9991283,19 L16,19 C16,16.7908609 14.8807119,15 13.5,15 C12.1192881,15 11,16.7908609 11,19 Z M13.5,14 C14.3284272,14 15,13.3284272 15,12.5 C15,11.6715728 14.3284272,11 13.5,11 C12.6715728,11 12,11.6715728 12,12.5 C12,13.3284272 12.6715728,14 13.5,14 Z" id="Rectangle-3-copy-7" sketch:type="MSShapeGroup"></path>
        </g>
    </g>
</svg>