<?xml version="1.0" encoding="utf-8"?>
<!-- Generator: Adobe Illustrator 16.0.3, SVG Export Plug-In . SVG Version: 6.00 Build 0)  -->
<!DOCTYPE svg PUBLIC "-//W3C//DTD SVG 1.1//EN" "http://www.w3.org/Graphics/SVG/1.1/DTD/svg11.dtd">
<svg version="1.1" id="Ebene_3" xmlns="http://www.w3.org/2000/svg" xmlns:xlink="http://www.w3.org/1999/xlink" x="0px" y="0px"
	 width="609.734px" height="648px" viewBox="0 0 609.734 648" enable-background="new 0 0 609.734 648" xml:space="preserve">
<g id="rect2470">
	
		<image overflow="visible" opacity="0.75" enable-background="new    " width="490" height="641" xlink:href="FCEDA9BAECAC20C8.png"  transform="matrix(1 0 0 1 123.5 7.2754)">
	</image>
	<g>
		
			<linearGradient id="SVGID_1_" gradientUnits="userSpaceOnUse" x1="884.0352" y1="1246.2578" x2="1053.4808" y2="939.2325" gradientTransform="matrix(1 0.0011 -0.0011 1 -609.8857 -753.8831)">
			<stop  offset="0" style="stop-color:#FFFFFF"/>
			<stop  offset="1" style="stop-color:#E1E1E1"/>
		</linearGradient>
		<path fill="url(#SVGID_1_)" d="M138.808,16.167h278.338c61.785,43.892,132.343,109.453,180.631,180.928v428.196H138.808V16.167z"
			/>
		<path fill="none" stroke="#C8C8C8" stroke-width="0.5" d="M138.808,16.167h278.338c61.785,43.892,132.343,109.453,180.631,180.928
			v428.196H138.808V16.167z"/>
	</g>
</g>
<g id="path3395">
	
		<image overflow="visible" opacity="0.75" enable-background="new    " width="213" height="212" xlink:href="FCEDA9BAECAC20C9.png"  transform="matrix(0.9953 0 0 1 401.499 0.2754)">
	</image>
	<g>
		
			<linearGradient id="SVGID_2_" gradientUnits="userSpaceOnUse" x1="1097.1992" y1="878.5625" x2="1123.3179" y2="854.487" gradientTransform="matrix(1 0 0 1 -610.5645 -752.7344)">
			<stop  offset="0" style="stop-color:#FFFFFF"/>
			<stop  offset="1" style="stop-color:#C8C8C8"/>
		</linearGradient>
		<path fill="url(#SVGID_2_)" d="M417.146,16.167c67.213,48.913,131.213,109.164,180.631,180.928
			c-32.008-33.245-75.898-50.99-127.981-48.712C475.949,86.74,452.176,46.93,417.146,16.167z"/>
		<path fill="none" stroke="#C8C8C8" stroke-width="0.5" d="M417.146,16.167c67.213,48.913,131.213,109.164,180.631,180.928
			c-32.008-33.245-75.898-50.99-127.981-48.712C475.949,86.74,452.176,46.93,417.146,16.167z"/>
	</g>
</g>
<rect id="rect3372" x="11.439" y="58.954" fill="none" stroke="#C8C8C8" stroke-width="6.0045" width="414.34" height="139.261"/>
<g>
	<path id="path4463" fill="#F91D0A" d="M300.929,416.786c11.188-21.929,23.903-46.636,34.08-71.441l0,0l4.024-9.792
		c-13.293-50.584-21.264-91.188-14.143-117.443l0,0c1.916-6.845,9.844-10.998,18.32-10.998l0,0l5.165,0.076h0.948
		c11.604-0.178,17.068,14.583,17.688,20.322l0,0c1.024,9.558-3.398,25.734-3.398,25.734l0,0c0-6.532,0.257-17.087-3.866-26.195l0,0
		c-4.799-10.539-9.384-16.835-13.493-17.833l0,0c-2.074,1.386-4.092,4.256-4.783,9.777l0,0c-1.431,7.741-1.859,17.512-1.859,22.549
		l0,0c0,17.796,3.504,41.285,10.39,65.499l0,0c1.299-3.749,2.442-7.351,3.351-10.726l0,0c1.412-5.319,10.39-40.578,10.39-40.578l0,0
		c0,0-2.263,46.935-5.423,61.136l0,0c-0.676,3.001-1.424,5.969-2.201,9.007l0,0c11.355,31.728,29.652,60.044,51.479,80.425l0,0
		c8.606,8.043,19.475,14.527,29.762,20.438l0,0c22.466-3.21,43.149-4.726,60.405-4.535l0,0c22.895,0.302,39.699,3.688,46.504,10.392
		l0,0c3.332,3.258,4.685,7.192,5.104,11.604l0,0c0.1,1.716-0.736,5.748-0.981,6.76l0,0c0.245-1.225,0.245-7.249-18.133-13.115l0,0
		c-14.474-4.627-41.563-4.482-74.067-1.022l0,0c37.597,18.394,74.225,27.532,85.833,22.054l0,0c2.838-1.383,6.279-6.099,6.279-6.099
		l0,0c0,0-2.046,9.296-3.515,11.62l0,0c-1.875,2.524-5.553,5.26-9.04,6.182l0,0c-18.332,4.891-66.052-6.427-107.651-30.197l0,0
		c-46.478,6.846-97.521,19.49-138.436,32.91l0,0c-40.207,70.463-70.435,102.825-95.026,90.514l0,0l-9.041-4.546
		c-3.675-2.102-4.236-7.219-3.386-11.386l0,0c2.867-14.027,20.456-35.154,55.787-56.251l0,0
		c3.803-2.301,20.743-11.258,20.743-11.258l0,0c0,0-12.541,12.138-15.479,14.521l0,0c-28.2,23.108-49.013,52.182-48.494,63.452l0,0
		l0.102,0.983C218.821,555.91,254.745,507.152,300.929,416.786 M315.564,424.28c-7.713,14.528-15.253,27.997-22.214,40.366l0,0
		c38.505-16.133,79.95-26.457,119.401-33.791l0,0c-5.302-3.662-10.449-7.539-15.292-11.637l0,0
		c-21.725-18.393-38.288-41.34-50.294-65.486l0,0C339.551,374.245,330.497,396.043,315.564,424.28"/>
</g>
<path fill="#F91D0A" d="M557.806,480.104h1.487c1.649,0,3.054-0.498,3.054-1.924c0-1.136-0.714-1.924-2.837-1.924
	c-0.85,0-1.349,0.078-1.704,0.155V480.104L557.806,480.104z M557.806,486.77h-2.204v-11.865c1.216-0.197,2.481-0.336,4.129-0.336
	c1.984,0,2.973,0.336,3.747,0.91c0.716,0.496,1.214,1.43,1.214,2.5c0,1.49-1.052,2.4-2.345,2.838v0.138
	c1.075,0.422,1.648,1.354,2.007,2.841c0.338,1.844,0.557,2.559,0.852,2.977h-2.281c-0.355-0.418-0.636-1.489-0.933-3.117
	c-0.275-1.291-1.048-1.848-2.757-1.848h-1.429V486.77L557.806,486.77z M560.093,491.965c-6.276,0-11.368-5.088-11.368-11.363
	c0-6.279,5.092-11.371,11.368-11.371s11.369,5.092,11.369,11.371C571.462,486.877,566.369,491.965,560.093,491.965z M569.184,480.6
	c0-5.022-4.07-9.096-9.092-9.096c-5.021,0-9.094,4.072-9.094,9.096c0,5.021,4.072,9.094,9.094,9.094S569.184,485.622,569.184,480.6z
	"/>
<g>
	<path fill="#1A171B" d="M352.818,567.897l-3.08-19.909c-0.885-5.729-2-14.68-2.869-20.885h-0.333
		c-0.91,6.25-2.162,15.467-3.074,20.935l-3.321,19.859H352.818z M338.471,580.85l-4.014,22.071h-14.818l18.475-91.832h18.185
		l16.781,91.832h-14.89l-3.945-22.071H338.471L338.471,580.85z"/>
	<path fill="#1A171B" d="M406.811,561.905c0-1.237,0-2.669-0.222-3.965c-0.604-4.548-2.827-8.63-6.374-8.63
		c-6.125,0-8.38,9.603-8.38,20.812c0,12.873,3.211,20.219,8.159,20.219c2.268,0,4.852-1.269,6.281-6.663
		c0.332-1.082,0.533-2.525,0.533-4.205v-17.568H406.811z M422.009,508.654v75.218c0,5.975,0.287,13.312,0.513,19.05h-13.146
		l-0.845-7.666h-0.338c-2.185,4.718-7,8.736-12.726,8.736c-12.59,0-18.829-15.104-18.829-34.173c0-23.239,9.316-34.55,19.455-34.55
		c5.301,0,8.711,2.838,10.449,6.92h0.268v-33.534L422.009,508.654L422.009,508.654z"/>
	<path fill="#1A171B" d="M453.671,591.289c5.822,0,7.238-11.898,7.238-21.755c0-9.376-1.416-21.57-7.482-21.57
		c-6.423,0-7.776,12.194-7.776,21.57c0,11.306,1.718,21.755,7.908,21.755H453.671z M453.402,603.992
		c-14.016,0-22.815-12.255-22.815-34.159c0-23.917,11.272-34.563,23.149-34.563c13.816,0,22.504,12.857,22.504,34.166
		c0,27.396-13.59,34.558-22.725,34.558L453.402,603.992L453.402,603.992z"/>
	<path fill="#1A171B" d="M499.954,579.157c0,1.646,0.267,3.201,0.6,4.243c1.518,5.572,4.121,6.94,6.195,6.94
		c5.859,0,8.245-8.107,8.245-21.08c0-11.809-2.516-19.95-8.313-19.95c-2.892,0-5.323,3.419-6.148,7.076
		c-0.312,1.141-0.577,2.948-0.577,4.186L499.954,579.157L499.954,579.157z M484.759,508.654h15.195v34.668h0.244
		c3.011-5.113,6.998-8.053,12.766-8.053c11.478,0,17.229,14.194,17.229,32.731c0,23.451-8.58,35.99-19.697,35.99
		c-5.305,0-8.846-2.558-12.033-9.043h-0.313l-0.868,7.973h-13.04c0.204-5.531,0.52-13.075,0.52-19.05v-75.217H484.759z"/>
	<path fill="#1A171B" d="M566.647,563.288c0.064-9.347-2.452-15.878-7.267-15.878c-5.502,0-7.844,8.765-8.021,15.878H566.647z
		 M551.317,574.995c0.178,12.03,5.99,15.96,13.211,15.96c4.565,0,8.515-1.108,11.408-2.306l2.029,11.901
		c-4.01,1.9-10.251,3.08-16.226,3.08c-16.313,0-25.225-12.122-25.225-32.853c0-22.237,10.339-35.604,23.846-35.604
		c13.033,0,20.277,11.809,20.277,31.08c0,4.413-0.181,6.886-0.448,8.826L551.317,574.995z"/>
</g>
<g>
	
		<image overflow="visible" opacity="0.3" enable-background="new    " width="445" height="171" xlink:href="FCEDA9BAECAC20CF.png"  transform="matrix(0.9978 0 0 0.9942 -2.9639 46.8125)">
	</image>
	<g>
		<g>
			
				<linearGradient id="SVGID_3_" gradientUnits="userSpaceOnUse" x1="258.6743" y1="395.9971" x2="178.1802" y2="643.7324" gradientTransform="matrix(1 0 0 -1 0 649)">
				<stop  offset="0.1273" style="stop-color:#8A0000"/>
				<stop  offset="0.2441" style="stop-color:#900000;stop-opacity:0.9993"/>
				<stop  offset="0.3979" style="stop-color:#A00000;stop-opacity:0.9985"/>
				<stop  offset="0.5725" style="stop-color:#BC0000;stop-opacity:0.9975"/>
				<stop  offset="0.761" style="stop-color:#E20000;stop-opacity:0.9965"/>
				<stop  offset="0.8667" style="stop-color:#FA0000;stop-opacity:0.9959"/>
			</linearGradient>
			<rect x="11.258" y="59.505" fill="url(#SVGID_3_)" width="414.34" height="139.262"/>
			
				<linearGradient id="SVGID_4_" gradientUnits="userSpaceOnUse" x1="262.0757" y1="386.1748" x2="175.1993" y2="653.5526" gradientTransform="matrix(1 0 0 -1 0 649)">
				<stop  offset="0.3152" style="stop-color:#5E0000"/>
				<stop  offset="0.4436" style="stop-color:#830000;stop-opacity:0.9992"/>
				<stop  offset="0.6183" style="stop-color:#AE0000;stop-opacity:0.9982"/>
				<stop  offset="0.7755" style="stop-color:#CD0000;stop-opacity:0.9972"/>
				<stop  offset="0.9081" style="stop-color:#E00000;stop-opacity:0.9964"/>
				<stop  offset="1" style="stop-color:#E70000;stop-opacity:0.9959"/>
			</linearGradient>
			<path fill="url(#SVGID_4_)" d="M433.512,207.122H3.764V51.15h429.748V207.122z M418.053,66.611H19.213v125.018h398.84V66.611z"/>
			<path fill="#FFF9F9" d="M119.552,79.94h30.151c8.963,0,15.836,2.645,20.617,7.934c4.815,5.25,7.221,12.746,7.221,22.494
				c0,9.79-2.406,17.329-7.221,22.619c-4.781,5.25-11.654,7.875-20.617,7.872h-11.986v32.366h-18.165V79.94 M137.718,97.371v26.055
				h10.052c3.521,0,6.243-1.124,8.162-3.373c1.919-2.292,2.878-5.521,2.878-9.686c0-4.166-0.958-7.374-2.878-9.623
				c-1.918-2.249-4.64-3.374-8.162-3.374L137.718,97.371 M208.493,98.12v56.924h6.509c7.424,0,13.087-2.437,16.986-7.311
				c3.932-4.874,5.899-11.956,5.899-21.244c0-9.249-1.952-16.286-5.852-21.121c-3.899-4.832-9.578-7.248-17.033-7.248H208.493
				 M190.327,79.94h19.155c10.696,0,18.655,1.02,23.874,3.06c5.254,2.002,9.752,5.416,13.495,10.249
				c3.304,4.206,5.756,9.059,7.361,14.556c1.604,5.501,2.406,11.727,2.406,18.684c0,7.039-0.803,13.331-2.406,18.871
				c-1.605,5.498-4.058,10.35-7.362,14.558c-3.774,4.831-8.303,8.268-13.587,10.309c-5.285,1.999-13.211,2.998-23.781,2.998h-19.155
				V79.94 M270.536,79.94h49.022v18.181h-30.857v17.372h29.017v18.184h-29.017v39.549h-18.165V79.94"/>
		</g>
	</g>
</g>
</svg>
