<?xml version="1.0" encoding="utf-8"?>
<!-- Generator: Adobe Illustrator 16.0.3, SVG Export Plug-In . SVG Version: 6.00 Build 0)  -->
<!DOCTYPE svg PUBLIC "-//W3C//DTD SVG 1.1//EN" "http://www.w3.org/Graphics/SVG/1.1/DTD/svg11.dtd">
<svg version="1.1" id="Layer_1" xmlns="http://www.w3.org/2000/svg" xmlns:xlink="http://www.w3.org/1999/xlink" x="0px" y="0px"
	 width="21px" height="21px" viewBox="0 0 21 21" enable-background="new 0 0 21 21" xml:space="preserve">
<g>
	<path fill="#787878" d="M10,2H3v14h11V6L10,2z M9,7V2.5L13.5,7H9z"/>
	<polygon fill="#010101" stroke="#FFFFFF" stroke-width="2" stroke-miterlimit="10" points="14.681,14.722 14.681,11.896 
		12.798,11.896 12.798,14.722 9.973,14.722 9.973,16.604 12.798,16.604 12.798,19.428 14.681,19.428 14.681,16.604 17.504,16.604 
		17.504,14.722 	"/>
	<polygon fill="#787878" points="15.148,14.999 15.148,11.999 13.148,11.999 13.148,14.999 10.148,14.999 10.148,16.999 
		13.148,16.999 13.148,20 15.148,20 15.148,16.999 18.148,16.999 18.148,14.999 	"/>
</g>
</svg>
