<?xml version="1.0" encoding="utf-8"?>
<!-- Generator: Adobe Illustrator 15.0.0, SVG Export Plug-In  -->
<!DOCTYPE svg PUBLIC "-//W3C//DTD SVG 1.1//EN" "http://www.w3.org/Graphics/SVG/1.1/DTD/svg11.dtd" [
	<!ENTITY ns_flows "http://ns.adobe.com/Flows/1.0/">
]>
<svg version="1.1"
	 xmlns="http://www.w3.org/2000/svg" xmlns:xlink="http://www.w3.org/1999/xlink" xmlns:a="http://ns.adobe.com/AdobeSVGViewerExtensions/3.0/"
	 x="0px" y="0px" width="21px" height="21px" viewBox="150 237.599 21 21"
	 overflow="visible" enable-background="new 150 237.599 21 21" xml:space="preserve">
<defs>
</defs>
<g>
	<rect y="8.599" fill="none" width="160" height="1350"/>
	<text transform="matrix(1 0 0 1 0 8.5986)"><tspan x="0" y="0" fill="#666666" font-family="'Helvetica-Bold'" font-size="10">Sites</tspan><tspan x="0" y="50" fill="#666666" font-family="'Helvetica'" font-size="10">private</tspan><tspan x="0" y="100" fill="#666666" font-family="'Helvetica'" font-size="10">anyone_with_link</tspan><tspan x="0" y="150" fill="#666666" font-family="'Helvetica'" font-size="10">anyone_with_link_at_domain</tspan><tspan x="0" y="200" fill="#666666" font-family="'Helvetica'" font-size="10">domain</tspan><tspan x="0" y="250" fill="#666666" font-family="'Helvetica'" font-size="10">public</tspan><tspan x="0" y="300" fill="#666666" font-family="'Helvetica'" font-size="10">arrow_drop_down_blue</tspan><tspan x="0" y="350" fill="#666666" font-family="'Helvetica'" font-size="10">private_white</tspan><tspan x="0" y="400" fill="#666666" font-family="'Helvetica'" font-size="10">anyone_with_link_white</tspan><tspan x="0" y="450" fill="#666666" font-family="'Helvetica'" font-size="10">anyone_with_link_domain_white</tspan><tspan x="0" y="500" fill="#666666" font-family="'Helvetica'" font-size="10">domain_white</tspan><tspan x="0" y="550" fill="#666666" font-family="'Helvetica'" font-size="10">public_white</tspan></text>
</g>
<path d="M160,239.599c-4.418,0-8,3.582-8,8s3.582,8,8,8s8-3.582,8-8S164.418,239.599,160,239.599z M160,254.698
	c-3.921,0-7.1-3.178-7.1-7.1c0-1.045,0.231-2.033,0.638-2.925l1.462,2.925c0,0,4,2.99,4,3v0.913c0,1.087,1,0.997,1,1.087V254.698z
	 M165,252.638v-1.08c0-0.686-0.251-0.959-0.936-0.959H162c0,0,0-0.999,0-1c0,0,0-2-2-2h-3l0.012-2h0.972
	c0.668,0,1.017,0,1.017-0.875v-1.125h1.065c1.935,0,1.935-2,1.935-2v-0.81c2.946,0.864,5.099,3.583,5.099,6.81
	C167.099,249.569,166.296,251.351,165,252.638z"/>
<rect x="150" y="237.599" opacity="0" fill="#4387FD" width="21" height="21"/>
</svg>
