<?xml version="1.0" encoding="utf-8"?>
<!-- Generator: Adobe Illustrator 15.0.0, SVG Export Plug-In  -->
<!DOCTYPE svg PUBLIC "-//W3C//DTD SVG 1.1//EN" "http://www.w3.org/Graphics/SVG/1.1/DTD/svg11.dtd" [
	<!ENTITY ns_flows "http://ns.adobe.com/Flows/1.0/">
]>
<svg version="1.1"
	 xmlns="http://www.w3.org/2000/svg" xmlns:xlink="http://www.w3.org/1999/xlink" xmlns:a="http://ns.adobe.com/AdobeSVGViewerExtensions/3.0/"
	 x="0px" y="0px" width="21px" height="21px" viewBox="0 0 21 21" overflow="visible" enable-background="new 0 0 21 21"
	 xml:space="preserve">
<defs>
</defs>
<path d="M2.769,11.006V9.991c0-0.681,0.55-1.232,1.231-1.232h5C8.59,7.768,7.525,7,6.5,7h-2C2.566,7,1,8.567,1,10.5S2.566,14,4.5,14
	h2c1.025,0,2.09-0.767,2.5-1.76H4C3.318,12.24,2.769,11.689,2.769,11.006z M15.499,7H13.5c-1.026,0-2.091,0.768-2.5,1.76h5
	c0.682,0,1.231,0.552,1.231,1.232v1.017c0,0.682-0.55,1.231-1.231,1.231h-5c0.409,0.994,1.474,1.76,2.5,1.76h1.999
	C17.433,14,19,12.434,19,10.5C19,8.567,17.434,7,15.499,7z M5.999,10.498c0,0.415,0.336,0.753,0.75,0.753h6.5
	c0.411,0,0.752-0.338,0.752-0.753s-0.341-0.749-0.752-0.749H6.751C6.336,9.748,5.999,10.083,5.999,10.498z"/>
<rect opacity="0" fill="#4387FD" width="21" height="21"/>
</svg>
