<?xml version="1.0" encoding="utf-8"?>
<!-- Generator: Adobe Illustrator 15.0.0, SVG Export Plug-In  -->
<!DOCTYPE svg PUBLIC "-//W3C//DTD SVG 1.1//EN" "http://www.w3.org/Graphics/SVG/1.1/DTD/svg11.dtd" [
	<!ENTITY ns_flows "http://ns.adobe.com/Flows/1.0/">
]>
<svg version="1.1"
	 xmlns="http://www.w3.org/2000/svg" xmlns:xlink="http://www.w3.org/1999/xlink" xmlns:a="http://ns.adobe.com/AdobeSVGViewerExtensions/3.0/"
	 x="0px" y="0px" width="21px" height="21px" viewBox="150 37.599 21 21"
	 overflow="visible" enable-background="new 150 37.599 21 21" xml:space="preserve">
<defs>
</defs>
<g>
	<rect y="8.599" fill="none" width="160" height="1350"/>
	<text transform="matrix(1 0 0 1 0 8.5986)"><tspan x="0" y="0" fill="#666666" font-family="'Helvetica-Bold'" font-size="10">Sites</tspan><tspan x="0" y="50" fill="#666666" font-family="'Helvetica'" font-size="10">private</tspan><tspan x="0" y="100" fill="#666666" font-family="'Helvetica'" font-size="10">anyone_with_link</tspan><tspan x="0" y="150" fill="#666666" font-family="'Helvetica'" font-size="10">anyone_with_link_at_domain</tspan><tspan x="0" y="200" fill="#666666" font-family="'Helvetica'" font-size="10">domain</tspan><tspan x="0" y="250" fill="#666666" font-family="'Helvetica'" font-size="10">public</tspan><tspan x="0" y="300" fill="#666666" font-family="'Helvetica'" font-size="10">arrow_drop_down_blue</tspan><tspan x="0" y="350" fill="#666666" font-family="'Helvetica'" font-size="10">private_white</tspan><tspan x="0" y="400" fill="#666666" font-family="'Helvetica'" font-size="10">anyone_with_link_white</tspan><tspan x="0" y="450" fill="#666666" font-family="'Helvetica'" font-size="10">anyone_with_link_domain_white</tspan><tspan x="0" y="500" fill="#666666" font-family="'Helvetica'" font-size="10">domain_white</tspan><tspan x="0" y="550" fill="#666666" font-family="'Helvetica'" font-size="10">public_white</tspan></text>
</g>
<path d="M164,46.599v-0.5c0-1.934-1.566-3.5-3.5-3.5s-3.5,1.566-3.5,3.5v0.5c-0.553,0-1,0.447-1,1v5c0,0.553,0.447,1,1,1h7
	c0.553,0,1-0.447,1-1v-5C165,47.046,164.553,46.599,164,46.599z M160.5,51.849c-0.968,0-1.75-0.783-1.75-1.75s0.782-1.75,1.75-1.75
	c0.967,0,1.75,0.783,1.75,1.75S161.467,51.849,160.5,51.849z M163,46.599h-5v-0.5c0-1.5,1-2.6,2.5-2.6s2.5,1.1,2.5,2.6V46.599z"/>
<rect x="150" y="37.599" opacity="0" fill="#4387FD" width="21" height="21"/>
</svg>
