<?xml version="1.0" encoding="utf-8"?>
<!-- Generator: Adobe Illustrator 15.0.0, SVG Export Plug-In  -->
<!DOCTYPE svg PUBLIC "-//W3C//DTD SVG 1.1//EN" "http://www.w3.org/Graphics/SVG/1.1/DTD/svg11.dtd" [
	<!ENTITY ns_flows "http://ns.adobe.com/Flows/1.0/">
]>
<svg version="1.1"
	 xmlns="http://www.w3.org/2000/svg" xmlns:xlink="http://www.w3.org/1999/xlink" xmlns:a="http://ns.adobe.com/AdobeSVGViewerExtensions/3.0/"
	 x="0px" y="0px" width="21px" height="21px" viewBox="0 0 21 21" overflow="visible" enable-background="new 0 0 21 21"
	 xml:space="preserve">
<defs>
</defs>
<path d="M17,2H9C7.9,2,7,2.9,7,4v4H4c-1.1,0-2,0.9-2,2v7c0,1.1,0.9,2,2,2h8c1.1,0,2-0.9,2-2v-4h3c1.1,0,2-0.9,2-2V4
	C19,2.9,18.1,2,17,2z M12,17H4v-6h3h2h3v2V17z M17,11h-3v-1c0-1.1-0.9-2-2-2H9V5h8V11z"/>
<rect opacity="0" fill="#4387FD" width="21" height="21"/>
</svg>
