<?xml version="1.0" encoding="utf-8"?>
<!-- Generator: Adobe Illustrator 15.0.0, SVG Export Plug-In  -->
<!DOCTYPE svg PUBLIC "-//W3C//DTD SVG 1.1//EN" "http://www.w3.org/Graphics/SVG/1.1/DTD/svg11.dtd" [
	<!ENTITY ns_flows "http://ns.adobe.com/Flows/1.0/">
]>
<svg version="1.1"
	 xmlns="http://www.w3.org/2000/svg" xmlns:xlink="http://www.w3.org/1999/xlink" xmlns:a="http://ns.adobe.com/AdobeSVGViewerExtensions/3.0/"
	 x="0px" y="0px" width="21px" height="21px" viewBox="0 0 21 21" overflow="visible" enable-background="new 0 0 21 21"
	 xml:space="preserve">
<defs>
</defs>
<path d="M15,4h-0.511C14.806,4.419,15,4.936,15,5.5V11h-4v5H6V5.5C6,4.936,6.194,4.419,6.51,4H6C5.447,4,5,4.447,5,5v11
	c0,0.553,0.447,1,1,1h5l5-6V5C16,4.447,15.552,4,15,4z M14,5.5C14,4.672,13.328,4,12.5,4h-0.592C11.964,3.843,12,3.676,12,3.5
	C12,2.672,11.328,2,10.5,2C9.671,2,9,2.672,9,3.5C9,3.676,9.035,3.843,9.092,4H8.5C7.671,4,7,4.672,7,5.5V6h7V5.5z M10.5,4.25
	c-0.416,0-0.75-0.336-0.75-0.75s0.334-0.75,0.75-0.75c0.412,0,0.75,0.336,0.75,0.75S10.912,4.25,10.5,4.25z"/>
<rect opacity="0" fill="#4387FD" width="21" height="21"/>
</svg>
