<?xml version="1.0" encoding="utf-8"?>
<!-- Generator: Adobe Illustrator 15.0.0, SVG Export Plug-In  -->
<!DOCTYPE svg PUBLIC "-//W3C//DTD SVG 1.1//EN" "http://www.w3.org/Graphics/SVG/1.1/DTD/svg11.dtd" [
	<!ENTITY ns_flows "http://ns.adobe.com/Flows/1.0/">
]>
<svg version="1.1"
	 xmlns="http://www.w3.org/2000/svg" xmlns:xlink="http://www.w3.org/1999/xlink" xmlns:a="http://ns.adobe.com/AdobeSVGViewerExtensions/3.0/"
	 x="0px" y="0px" width="21px" height="21px" viewBox="0 0 21 21" overflow="visible" enable-background="new 0 0 21 21"
	 xml:space="preserve">
<defs>
</defs>
<path d="M16.786,5H3.213C2.547,5,2.003,5.546,2,6.214v8.571C2,15.456,2.543,16,3.213,16h13.573C17.457,16,18,15.456,18,14.785V6.214
	C17.998,5.546,17.454,5,16.786,5z M16.607,7.774l0.009,0.011l-6.054,4.041l-0.011-0.015C10.392,11.921,10.208,12,9.999,12
	c-0.208,0-0.392-0.079-0.551-0.188l-0.011,0.015L3.384,7.785l0.009-0.011C3.159,7.591,3,7.318,3,7c0-0.551,0.447-1,0.999-1
	c0.24,0,0.452,0.096,0.624,0.236l0.006-0.007L10,9.809l5.371-3.579l0.007,0.007C15.549,6.096,15.761,6,16.001,6
	C16.553,6,17,6.449,17,7C17,7.318,16.841,7.591,16.607,7.774z"/>
<rect opacity="0" fill="#4387FD" width="21" height="21"/>
</svg>
