<?xml version="1.0" encoding="utf-8"?>
<!-- Generator: Adobe Illustrator 15.0.0, SVG Export Plug-In  -->
<!DOCTYPE svg PUBLIC "-//W3C//DTD SVG 1.1//EN" "http://www.w3.org/Graphics/SVG/1.1/DTD/svg11.dtd" [
	<!ENTITY ns_flows "http://ns.adobe.com/Flows/1.0/">
]>
<svg version="1.1"
	 xmlns="http://www.w3.org/2000/svg" xmlns:xlink="http://www.w3.org/1999/xlink" xmlns:a="http://ns.adobe.com/AdobeSVGViewerExtensions/3.0/"
	 x="0px" y="0px" width="24px" height="21px" viewBox="0 0 24 21" overflow="visible" enable-background="new 0 0 24 21"
	 xml:space="preserve">
<defs>
</defs>
<path d="M5,13c-1.668,0-5,1-5,2v2h10v-2C10,14,6.666,13,5,13z"/>
<path d="M24,15c0-1-3.334-2-5-2c-1.668,0-5,1-5,2v2h10V15z"/>
<circle cx="4.5" cy="8.5" r="2.5"/>
<circle cx="19.5" cy="8.5" r="2.5"/>
<circle cx="12" cy="7" r="3"/>
<path d="M12,12c-2,0-6,1-6,3v2h12v-2C18,13,14,12,12,12z"/>
<rect opacity="0" fill="#4387FD" width="24" height="21"/>
</svg>
