<?xml version="1.0" encoding="utf-8"?>
<!-- Generator: Adobe Illustrator 15.0.0, SVG Export Plug-In  -->
<!DOCTYPE svg PUBLIC "-//W3C//DTD SVG 1.1//EN" "http://www.w3.org/Graphics/SVG/1.1/DTD/svg11.dtd" [
	<!ENTITY ns_flows "http://ns.adobe.com/Flows/1.0/">
]>
<svg version="1.1"
	 xmlns="http://www.w3.org/2000/svg" xmlns:xlink="http://www.w3.org/1999/xlink" xmlns:a="http://ns.adobe.com/AdobeSVGViewerExtensions/3.0/"
	 x="0px" y="0px" width="21px" height="21px" viewBox="0 0 21 21" overflow="visible" enable-background="new 0 0 21 21"
	 xml:space="preserve">
<defs>
</defs>
<path d="M15.742,15.501L13,12.758h-0.643l-0.551-0.551C12.54,11.337,13,10.228,13,9c0-2.761-2.238-5-5-5S3,6.239,3,9s2.238,5,5,5
	c1.229,0,2.337-0.46,3.208-1.194l0.552,0.55V14l2.741,2.742c0.343,0.343,0.898,0.344,1.241,0.001
	C16.085,16.4,16.085,15.845,15.742,15.501z M8,12.25c-1.796,0-3.25-1.455-3.25-3.25S6.204,5.75,8,5.75c1.797,0,3.25,1.455,3.25,3.25
	S9.797,12.25,8,12.25z"/>
<rect opacity="0" fill="#4387FD" width="21" height="21"/>
</svg>
