<?xml version="1.0" encoding="utf-8"?>
<!-- Generator: Adobe Illustrator 16.0.4, SVG Export Plug-In . SVG Version: 6.00 Build 0)  -->
<!DOCTYPE svg PUBLIC "-//W3C//DTD SVG 1.1//EN" "http://www.w3.org/Graphics/SVG/1.1/DTD/svg11.dtd">
<svg version="1.1" xmlns="http://www.w3.org/2000/svg" xmlns:xlink="http://www.w3.org/1999/xlink" x="0px" y="0px" width="24px"
	 height="240px" viewBox="0 0 24 240" enable-background="new 0 0 24 240" xml:space="preserve">
<symbol  id="ic_x5F_menu_x5F_darkalt" viewBox="-12 -12 24 24">
	<g>
		<g opacity="0.25">
			
				<linearGradient id="SVGID_1_" gradientUnits="userSpaceOnUse" x1="0" y1="-307" x2="-5.682480e-07" y2="-294" gradientTransform="matrix(1 0 0 1 0 300)">
				<stop  offset="0" style="stop-color:#000000;stop-opacity:0.7"/>
				<stop  offset="1" style="stop-color:#000000;stop-opacity:0.6"/>
			</linearGradient>
			<path fill="url(#SVGID_1_)" d="M-10-7h20v3h-20V-7z M-10-2h20v3h-20V-2z M-10,6V3h20v3H-10z"/>
		</g>
		<g opacity="0.03">
			<path d="M9.5,5.5v-2h-19v2H9.5 M9.5,0.5v-2h-19v2H9.5 M9.5-4.5v-2h-19v2H9.5 M10,6h-20V3h20V6L10,6z M10,1h-20v-3h20V1L10,1z
				 M10-4h-20v-3h20V-4L10-4z"/>
		</g>
	</g>
	<g>
		<g opacity="0.08">
			<path d="M-10-4.5h20V-4h-20V-4.5z M-10,6V5.5h20V6H-10z M-10,0.5h20V1h-20V0.5z"/>
		</g>
	</g>
	<polygon fill="none" points="12,-12 -12,-12 -12,12 12,12 	"/>
	<path fill="#FFFFFF" fill-opacity="0.2" d="M-10-2.5h20V-2h-20V-2.5z M-10-7.5h20V-7h-20V-7.5z M-10,3V2.5h20V3H-10z"/>
</symbol>
<symbol  id="ic_x5F_menu_x5F_darkalt_2" viewBox="0 -24 24 24">
	<g>
		<g opacity="0.25">
			
				<linearGradient id="SVGID_2_" gradientUnits="userSpaceOnUse" x1="12" y1="-319" x2="12" y2="-306" gradientTransform="matrix(1 0 0 1 0 300)">
				<stop  offset="0" style="stop-color:#000000;stop-opacity:0.7"/>
				<stop  offset="1" style="stop-color:#000000;stop-opacity:0.6"/>
			</linearGradient>
			<path fill="url(#SVGID_2_)" d="M2-19h20v3H2V-19z M2-14h20v3H2V-14z M2-6v-3h20v3H2z"/>
		</g>
		<g opacity="0.03">
			<path d="M21.5-6.5v-2h-19v2H21.5 M21.5-11.5v-2h-19v2H21.5 M21.5-16.5v-2h-19v2H21.5 M22-6H2v-3h20V-6L22-6z M22-11H2v-3h20V-11
				L22-11z M22-16H2v-3h20V-16L22-16z"/>
		</g>
	</g>
	<g>
		<g opacity="0.08">
			<path d="M2-16.5h20v0.5H2V-16.5z M2-6v-0.5h20V-6H2z M2-11.5h20v0.5H2V-11.5z"/>
		</g>
	</g>
	<polygon fill="none" points="24,-24 0,-24 0,0 24,0 	"/>
	<path fill="#FFFFFF" fill-opacity="0.2" d="M2-14.5h20v0.5H2V-14.5z M2-19.5h20v0.5H2V-19.5z M2-9v-0.5h20V-9H2z"/>
</symbol>
<symbol  id="ic_x5F_menu_x5F_darkreg" viewBox="-12 -12 24 24">
	<path fill="#FFFFFF" fill-opacity="0.3" d="M-10-7.5h20V-7h-20V-7.5z M-10-2.5h20V-2h-20V-2.5z M-10,3V2.5h20V3H-10z"/>
	<g>
		<g opacity="0.5">
			
				<linearGradient id="SVGID_3_" gradientUnits="userSpaceOnUse" x1="0" y1="-294" x2="-5.682480e-07" y2="-307" gradientTransform="matrix(1 0 0 1 0 300)">
				<stop  offset="0" style="stop-color:#000000;stop-opacity:0.67"/>
				<stop  offset="1" style="stop-color:#000000;stop-opacity:0.75"/>
			</linearGradient>
			<path fill="url(#SVGID_3_)" d="M-10-7h20v3h-20V-7z M-10-2h20v3h-20V-2z M-10,6V3h20v3H-10z"/>
		</g>
		<g opacity="0.05">
			<path d="M9.5,5.5v-2h-19v2H9.5 M9.5,0.5v-2h-19v2H9.5 M9.5-4.5v-2h-19v2H9.5 M10,6h-20V3h20V6L10,6z M10,1h-20v-3h20V1L10,1z
				 M10-4h-20v-3h20V-4L10-4z"/>
		</g>
	</g>
	<polygon fill="none" points="12,-12 -12,-12 -12,12 12,12 	"/>
	<g>
		<g opacity="0.2">
			<path d="M-10-4.5h20V-4h-20V-4.5z M-10,6V5.5h20V6H-10z M-10,0.5h20V1h-20V0.5z"/>
		</g>
	</g>
</symbol>
<symbol  id="ic_x5F_menu_x5F_darkreg_2" viewBox="0 -24 24 24">
	<path fill="#FFFFFF" fill-opacity="0.3" d="M2-19.5h20v0.5H2V-19.5z M2-14.5h20v0.5H2V-14.5z M2-9v-0.5h20V-9H2z"/>
	<g>
		<g opacity="0.5">
			
				<linearGradient id="SVGID_4_" gradientUnits="userSpaceOnUse" x1="12" y1="-306" x2="12" y2="-319" gradientTransform="matrix(1 0 0 1 0 300)">
				<stop  offset="0" style="stop-color:#000000;stop-opacity:0.67"/>
				<stop  offset="1" style="stop-color:#000000;stop-opacity:0.75"/>
			</linearGradient>
			<path fill="url(#SVGID_4_)" d="M2-19h20v3H2V-19z M2-14h20v3H2V-14z M2-6v-3h20v3H2z"/>
		</g>
		<g opacity="0.05">
			<path d="M21.5-6.5v-2h-19v2H21.5 M21.5-11.5v-2h-19v2H21.5 M21.5-16.5v-2h-19v2H21.5 M22-6H2v-3h20V-6L22-6z M22-11H2v-3h20V-11
				L22-11z M22-16H2v-3h20V-16L22-16z"/>
		</g>
	</g>
	<polygon fill="none" points="24,-24 0,-24 0,0 24,0 	"/>
	<g>
		<g opacity="0.2">
			<path d="M2-16.5h20v0.5H2V-16.5z M2-6v-0.5h20V-6H2z M2-11.5h20v0.5H2V-11.5z"/>
		</g>
	</g>
</symbol>
<symbol  id="ic_x5F_menu_x5F_flat" viewBox="-12 -12 24 24">
	<path d="M-10-7h20v3h-20V-7z M-10-2h20v3h-20V-2z M-10,6V3h20v3H-10z"/>
	<polygon fill="none" points="12,-12 -12,-12 -12,12 12,12 	"/>
</symbol>
<symbol  id="ic_x5F_menu_x5F_flat_2" viewBox="0 -24 24 24">
	<path d="M2-19h20v3H2V-19z M2-14h20v3H2V-14z M2-6v-3h20v3H2z"/>
	<polygon fill="none" points="24,-24 0,-24 0,0 24,0 	"/>
</symbol>
<symbol  id="ic_x5F_menu_x5F_lightalt" viewBox="-12 -12 24 24">
	<g>
		<g opacity="0.25">
			
				<linearGradient id="SVGID_5_" gradientUnits="userSpaceOnUse" x1="0" y1="-293.8984" x2="-5.866114e-07" y2="-307.3185" gradientTransform="matrix(1 0 0 1 0 300)">
				<stop  offset="0" style="stop-color:#FFFFFF;stop-opacity:0.9"/>
				<stop  offset="1" style="stop-color:#FFFFFF;stop-opacity:0.85"/>
			</linearGradient>
			<path fill="url(#SVGID_5_)" d="M-10-7h20v3h-20V-7z M-10-2h20v3h-20V-2z M-10,6V3h20v3H-10z"/>
		</g>
		<g opacity="0.05">
			<path fill="#FFFFFF" d="M9.5,5.5v-2h-19v2H9.5 M9.5,0.5v-2h-19v2H9.5 M9.5-4.5v-2h-19v2H9.5 M10,6h-20V3h20V6L10,6z M10,1h-20v-3
				h20V1L10,1z M10-4h-20v-3h20V-4L10-4z"/>
		</g>
	</g>
	<g>
		<g opacity="0.1">
			<path d="M-10,1h20v0.5h-20V1z M-10-4h20v0.5h-20V-4z M-10,6.5V6h20v0.5H-10z"/>
		</g>
	</g>
	<polygon fill="none" points="12,-12 -12,-12 -12,12 12,12 	"/>
</symbol>
<symbol  id="ic_x5F_menu_x5F_lightalt_2" viewBox="0 -24 24 24">
	<g>
		<g opacity="0.25">
			
				<linearGradient id="SVGID_6_" gradientUnits="userSpaceOnUse" x1="12" y1="-305.8984" x2="12" y2="-319.3185" gradientTransform="matrix(1 0 0 1 0 300)">
				<stop  offset="0" style="stop-color:#FFFFFF;stop-opacity:0.9"/>
				<stop  offset="1" style="stop-color:#FFFFFF;stop-opacity:0.85"/>
			</linearGradient>
			<path fill="url(#SVGID_6_)" d="M2-19h20v3H2V-19z M2-14h20v3H2V-14z M2-6v-3h20v3H2z"/>
		</g>
		<g opacity="0.05">
			<path fill="#FFFFFF" d="M21.5-6.5v-2h-19v2H21.5 M21.5-11.5v-2h-19v2H21.5 M21.5-16.5v-2h-19v2H21.5 M22-6H2v-3h20V-6L22-6z
				 M22-11H2v-3h20V-11L22-11z M22-16H2v-3h20V-16L22-16z"/>
		</g>
	</g>
	<g>
		<g opacity="0.1">
			<path d="M2-11h20v0.5H2V-11z M2-16h20v0.5H2V-16z M2-5.5V-6h20v0.5H2z"/>
		</g>
	</g>
	<polygon fill="none" points="24,-24 0,-24 0,0 24,0 	"/>
</symbol>
<symbol  id="ic_x5F_menu_x5F_lightreg" viewBox="-12 -12 24 24">
	<g>
		<g opacity="0.5">
			
				<linearGradient id="SVGID_7_" gradientUnits="userSpaceOnUse" x1="0" y1="-293.8984" x2="-5.866114e-07" y2="-307.3185" gradientTransform="matrix(1 0 0 1 0 300)">
				<stop  offset="0" style="stop-color:#FFFFFF;stop-opacity:0.9"/>
				<stop  offset="1" style="stop-color:#FFFFFF;stop-opacity:0.85"/>
			</linearGradient>
			<path fill="url(#SVGID_7_)" d="M-10-7h20v3h-20V-7z M-10-2h20v3h-20V-2z M-10,6V3h20v3H-10z"/>
		</g>
		<g opacity="0.05">
			<path fill="#FFFFFF" d="M9.5,5.5v-2h-19v2H9.5 M9.5,0.5v-2h-19v2H9.5 M9.5-4.5v-2h-19v2H9.5 M10,6h-20V3h20V6L10,6z M10,1h-20v-3
				h20V1L10,1z M10-4h-20v-3h20V-4L10-4z"/>
		</g>
	</g>
	<g>
		<g opacity="0.2">
			<path d="M-10,1h20v0.5h-20V1z M-10-4h20v0.5h-20V-4z M-10,6.5V6h20v0.5H-10z"/>
		</g>
	</g>
	<polygon fill="none" points="12,-12 -12,-12 -12,12 12,12 	"/>
</symbol>
<symbol  id="ic_x5F_menu_x5F_lightreg_2" viewBox="0 -24 24 24">
	<g>
		<g opacity="0.5">
			
				<linearGradient id="SVGID_8_" gradientUnits="userSpaceOnUse" x1="12" y1="-305.8984" x2="12" y2="-319.3185" gradientTransform="matrix(1 0 0 1 0 300)">
				<stop  offset="0" style="stop-color:#FFFFFF;stop-opacity:0.9"/>
				<stop  offset="1" style="stop-color:#FFFFFF;stop-opacity:0.85"/>
			</linearGradient>
			<path fill="url(#SVGID_8_)" d="M2-19h20v3H2V-19z M2-14h20v3H2V-14z M2-6v-3h20v3H2z"/>
		</g>
		<g opacity="0.05">
			<path fill="#FFFFFF" d="M21.5-6.5v-2h-19v2H21.5 M21.5-11.5v-2h-19v2H21.5 M21.5-16.5v-2h-19v2H21.5 M22-6H2v-3h20V-6L22-6z
				 M22-11H2v-3h20V-11L22-11z M22-16H2v-3h20V-16L22-16z"/>
		</g>
	</g>
	<g>
		<g opacity="0.2">
			<path d="M2-11h20v0.5H2V-11z M2-16h20v0.5H2V-16z M2-5.5V-6h20v0.5H2z"/>
		</g>
	</g>
	<polygon fill="none" points="24,-24 0,-24 0,0 24,0 	"/>
</symbol>
<symbol  id="search_x5F_dark_2" viewBox="0 -32 32 32">
	<g>
		<g>
			<linearGradient id="SVGID_9_" gradientUnits="userSpaceOnUse" x1="16.5" y1="-9" x2="16.5" y2="-23.9998">
				<stop  offset="0" style="stop-color:#000000;stop-opacity:0.67"/>
				<stop  offset="1" style="stop-color:#000000;stop-opacity:0.75"/>
			</linearGradient>
			<path fill="url(#SVGID_9_)" d="M23.692-22.201L19.502-18h-0.76C19.527-17.049,20-15.83,20-14.5c0,3.037-2.463,5.5-5.5,5.5
				S9-11.463,9-14.5s2.463-5.5,5.5-5.5c1.33,0,2.551,0.473,3.502,1.26v-0.76l4.2-4.19c0.411-0.411,1.079-0.413,1.49-0.002
				C24.103-23.278,24.103-22.613,23.692-22.201z M14.5-18.2c-2.043,0-3.7,1.657-3.7,3.7s1.657,3.7,3.7,3.7s3.7-1.657,3.7-3.7
				S16.543-18.2,14.5-18.2z"/>
		</g>
		<g opacity="0.05">
			<path d="M14.5-9.5c2.757,0,5-2.243,5-5c0-1.158-0.406-2.288-1.144-3.182c-0.123-0.149-0.149-0.356-0.066-0.531
				c0.083-0.176,0.259-0.287,0.452-0.287h0.552l4.043-4.054c0.215-0.216,0.215-0.569,0.001-0.785
				c-0.104-0.104-0.242-0.161-0.39-0.161c-0.149,0-0.289,0.058-0.394,0.163l-4.053,4.044v0.553c0,0.193-0.112,0.37-0.287,0.452
				c-0.068,0.032-0.141,0.048-0.213,0.048c-0.114,0-0.228-0.039-0.319-0.115C16.791-19.094,15.661-19.5,14.5-19.5
				c-2.757,0-5,2.243-5,5S11.743-9.5,14.5-9.5 M14.5-18.7c2.316,0,4.2,1.884,4.2,4.2s-1.884,4.2-4.2,4.2s-4.2-1.884-4.2-4.2
				S12.184-18.7,14.5-18.7 M14.5-9C11.463-9,9-11.463,9-14.5s2.463-5.5,5.5-5.5c1.33,0,2.551,0.473,3.502,1.26v-0.76l4.2-4.19
				c0.206-0.206,0.477-0.31,0.747-0.31c0.269,0,0.538,0.103,0.743,0.308c0.41,0.414,0.41,1.079,0,1.491L19.502-18h-0.76
				C19.527-17.049,20-15.83,20-14.5C20-11.463,17.537-9,14.5-9L14.5-9z M14.5-18.2c-2.043,0-3.7,1.657-3.7,3.7s1.657,3.7,3.7,3.7
				s3.7-1.657,3.7-3.7S16.543-18.2,14.5-18.2L14.5-18.2z"/>
		</g>
	</g>
	<path fill="#FFFFFF" fill-opacity="0.3" d="M20-15c0,0.107-0.01,0.212-0.016,0.318c-0.042-1.258-0.493-2.412-1.242-3.318h0.347
		C19.656-17.136,20-16.111,20-15z M14.5-11.3c1.957,0,3.544-1.526,3.675-3.45c0.006,0.084,0.025,0.165,0.025,0.25
		c0,2.043-1.657,3.7-3.7,3.7s-3.7-1.657-3.7-3.7c0-0.085,0.02-0.166,0.025-0.25C10.956-12.826,12.543-11.3,14.5-11.3z
		 M23.951-23.196c-0.044-0.181-0.118-0.354-0.259-0.496c-0.411-0.411-1.079-0.409-1.49,0.002l-4.2,4.19V-20l4.2-4.19
		c0.411-0.411,1.079-0.413,1.49-0.002C23.962-23.92,24.037-23.542,23.951-23.196z M18.002-18.74C17.051-19.527,15.83-20,14.5-20
		c-2.953,0-5.355,2.33-5.487,5.25C9.009-14.834,9-14.915,9-15c0-3.037,2.463-5.5,5.5-5.5c1.33,0,2.551,0.473,3.502,1.26V-18.74z"/>
	<polygon fill="none" points="32,-32 0,-32 0,0 32,0 	"/>
</symbol>
<symbol  id="search_x5F_flat" viewBox="0 -32 32 32">
	<path d="M23.692-22.201L19.502-18h-0.76C19.527-17.049,20-15.83,20-14.5c0,3.037-2.463,5.5-5.5,5.5S9-11.463,9-14.5
		s2.463-5.5,5.5-5.5c1.33,0,2.551,0.473,3.502,1.26v-0.76l4.2-4.19c0.411-0.411,1.079-0.413,1.49-0.002
		C24.103-23.278,24.103-22.613,23.692-22.201z M14.5-18.2c-2.043,0-3.7,1.657-3.7,3.7s1.657,3.7,3.7,3.7s3.7-1.657,3.7-3.7
		S16.543-18.2,14.5-18.2z"/>
	<polygon fill="none" points="32,-32 0,-32 0,0 32,0 	"/>
</symbol>
<symbol  id="search_x5F_light" viewBox="0 -32 32 32">
	<g>
		<linearGradient id="SVGID_10_" gradientUnits="userSpaceOnUse" x1="16.5" y1="-24" x2="16.5" y2="-9.0002">
			<stop  offset="0" style="stop-color:#FFFFFF;stop-opacity:0.85"/>
			<stop  offset="1" style="stop-color:#FFFFFF;stop-opacity:0.9"/>
		</linearGradient>
		<path fill="url(#SVGID_10_)" d="M23.692-22.201L19.502-18h-0.76C19.527-17.049,20-15.83,20-14.5c0,3.037-2.463,5.5-5.5,5.5
			S9-11.463,9-14.5s2.463-5.5,5.5-5.5c1.33,0,2.551,0.473,3.502,1.26v-0.76l4.2-4.19c0.411-0.411,1.079-0.413,1.49-0.002
			C24.103-23.278,24.103-22.613,23.692-22.201z M14.5-18.2c-2.043,0-3.7,1.657-3.7,3.7s1.657,3.7,3.7,3.7s3.7-1.657,3.7-3.7
			S16.543-18.2,14.5-18.2z"/>
	</g>
	<polygon fill="none" points="32,-32 0,-32 0,0 32,0 	"/>
	<g>
		<g opacity="0.15">
			<path d="M14.5-17.7c-1.957,0-3.544,1.526-3.675,3.45c-0.006-0.084-0.025-0.165-0.025-0.25c0-2.043,1.657-3.7,3.7-3.7
				s3.7,1.657,3.7,3.7c0,0.085-0.02,0.166-0.025,0.25C18.044-16.174,16.457-17.7,14.5-17.7z M20-14c0,3.037-2.463,5.5-5.5,5.5
				S9-10.963,9-14c0-0.085,0.009-0.166,0.013-0.25C9.145-11.33,11.547-9,14.5-9c2.93,0,5.318-2.294,5.484-5.182
				C19.986-14.12,20-14.062,20-14z M23.692-21.701l-4.19,4.201h-0.413c-0.111-0.17-0.218-0.344-0.347-0.5h0.76l4.19-4.201
				c0.141-0.142,0.215-0.314,0.259-0.495C24.037-22.35,23.962-21.973,23.692-21.701z"/>
		</g>
	</g>
</symbol>
<symbol  id="search_x5F_mid" viewBox="0 -32 32 32">
	<g>
		<g opacity="0.45">
			<linearGradient id="SVGID_11_" gradientUnits="userSpaceOnUse" x1="16.5" y1="-9" x2="16.5" y2="-23.9998">
				<stop  offset="0" style="stop-color:#000000;stop-opacity:0.67"/>
				<stop  offset="1" style="stop-color:#000000;stop-opacity:0.75"/>
			</linearGradient>
			<path fill="url(#SVGID_11_)" d="M23.692-22.201L19.502-18h-0.76C19.527-17.049,20-15.83,20-14.5c0,3.037-2.463,5.5-5.5,5.5
				S9-11.463,9-14.5s2.463-5.5,5.5-5.5c1.33,0,2.551,0.473,3.502,1.26v-0.76l4.2-4.19c0.411-0.411,1.079-0.413,1.49-0.002
				C24.103-23.278,24.103-22.613,23.692-22.201z M14.5-18.2c-2.043,0-3.7,1.657-3.7,3.7s1.657,3.7,3.7,3.7s3.7-1.657,3.7-3.7
				S16.543-18.2,14.5-18.2z"/>
		</g>
		<g opacity="0.05">
			<path d="M14.5-9.5c2.757,0,5-2.243,5-5c0-1.158-0.406-2.288-1.144-3.182c-0.123-0.149-0.149-0.356-0.066-0.531
				c0.083-0.176,0.259-0.287,0.452-0.287h0.552l4.043-4.054c0.215-0.216,0.215-0.569,0.001-0.785
				c-0.104-0.104-0.242-0.161-0.39-0.161c-0.149,0-0.289,0.058-0.394,0.163l-4.053,4.044v0.553c0,0.193-0.112,0.37-0.287,0.452
				c-0.068,0.032-0.141,0.048-0.213,0.048c-0.114,0-0.228-0.039-0.319-0.115C16.791-19.094,15.661-19.5,14.5-19.5
				c-2.757,0-5,2.243-5,5S11.743-9.5,14.5-9.5 M14.5-18.7c2.316,0,4.2,1.884,4.2,4.2s-1.884,4.2-4.2,4.2s-4.2-1.884-4.2-4.2
				S12.184-18.7,14.5-18.7 M14.5-9C11.463-9,9-11.463,9-14.5s2.463-5.5,5.5-5.5c1.33,0,2.551,0.473,3.502,1.26v-0.76l4.2-4.19
				c0.206-0.206,0.477-0.31,0.747-0.31c0.269,0,0.538,0.103,0.743,0.308c0.41,0.414,0.41,1.079,0,1.491L19.502-18h-0.76
				C19.527-17.049,20-15.83,20-14.5C20-11.463,17.537-9,14.5-9L14.5-9z M14.5-18.2c-2.043,0-3.7,1.657-3.7,3.7s1.657,3.7,3.7,3.7
				s3.7-1.657,3.7-3.7S16.543-18.2,14.5-18.2L14.5-18.2z"/>
		</g>
	</g>
	<path fill="#FFFFFF" fill-opacity="0.3" d="M20-15c0,0.107-0.01,0.212-0.016,0.318c-0.042-1.258-0.493-2.412-1.242-3.318h0.347
		C19.656-17.136,20-16.111,20-15z M14.5-11.3c1.957,0,3.544-1.526,3.675-3.45c0.006,0.084,0.025,0.165,0.025,0.25
		c0,2.043-1.657,3.7-3.7,3.7s-3.7-1.657-3.7-3.7c0-0.085,0.02-0.166,0.025-0.25C10.956-12.826,12.543-11.3,14.5-11.3z
		 M23.951-23.196c-0.044-0.181-0.118-0.354-0.259-0.496c-0.411-0.411-1.079-0.409-1.49,0.002l-4.2,4.19V-20l4.2-4.19
		c0.411-0.411,1.079-0.413,1.49-0.002C23.962-23.92,24.037-23.542,23.951-23.196z M18.002-18.74C17.051-19.527,15.83-20,14.5-20
		c-2.953,0-5.355,2.33-5.487,5.25C9.009-14.834,9-14.915,9-15c0-3.037,2.463-5.5,5.5-5.5c1.33,0,2.551,0.473,3.502,1.26V-18.74z"/>
	<polygon fill="none" points="32,-32 0,-32 0,0 32,0 	"/>
</symbol>
<g id="_x33__bars" display="none">
	
		<use xlink:href="#ic_x5F_menu_x5F_darkreg"  width="24" height="24" id="XMLID_347_" x="-12" y="-12" transform="matrix(1 0 0 -1 16 48)" display="inline" overflow="visible"/>
	
		<use xlink:href="#ic_x5F_menu_x5F_darkalt"  width="24" height="24" id="XMLID_346_" x="-12" y="-12" transform="matrix(1 0 0 -1 16 80)" display="inline" overflow="visible"/>
	
		<use xlink:href="#ic_x5F_menu_x5F_lightreg"  width="24" height="24" id="XMLID_345_" x="-12" y="-12" transform="matrix(1 0 0 -1 16 112)" display="inline" overflow="visible"/>
	
		<use xlink:href="#ic_x5F_menu_x5F_flat"  width="24" height="24" id="XMLID_337_" x="-12" y="-12" transform="matrix(1 0 0 -1 16 16)" display="inline" overflow="visible"/>
	
		<use xlink:href="#ic_x5F_menu_x5F_lightalt"  width="24" height="24" x="-12" y="-12" transform="matrix(1 0 0 -1 16 144)" display="inline" overflow="visible"/>
</g>
<g id="view_quilt">
	<g display="none">
		<g display="inline" opacity="0.1">
			<path d="M24,24v24H0V24H24 M25,23h-1H0h-1v1v24v1h1h24h1v-1V24V23L25,23z"/>
		</g>
	</g>
	<g display="none">
		<g display="inline" opacity="0.1">
			<path d="M24,48v24H0V48H24 M25,47h-1H0h-1v1v24v1h1h24h1v-1V48V47L25,47z"/>
		</g>
	</g>
	<g display="none">
		<g display="inline" opacity="0.1">
			<path d="M24,72v24H0V72H24 M25,71h-1H0h-1v1v24v1h1h24h1v-1V72V71L25,71z"/>
		</g>
	</g>
	<g display="none">
		<g display="inline" opacity="0.1">
			<path d="M24,96v24H0V96H24 M25,95h-1H0h-1v1v24v1h1h24h1v-1V96V95L25,95z"/>
		</g>
	</g>
	<g display="none">
		<g display="inline" opacity="0.1">
			<path d="M24,0v24H0V0H24 M25-1h-1H0h-1v1v24v1h1h24h1v-1V0V-1L25-1z"/>
		</g>
	</g>
	
		<use xlink:href="#ic_x5F_menu_x5F_darkreg_2"  width="24" height="24" id="XMLID_90_" y="-24" transform="matrix(1 0 0 -1 0 24)" overflow="visible"/>
	
		<use xlink:href="#ic_x5F_menu_x5F_darkalt_2"  width="24" height="24" id="XMLID_89_" y="-24" transform="matrix(1 0 0 -1 0 48)" overflow="visible"/>
	
		<use xlink:href="#ic_x5F_menu_x5F_lightreg_2"  width="24" height="24" id="XMLID_88_" y="-24" transform="matrix(1 0 0 -1 0 72)" overflow="visible"/>
	
		<use xlink:href="#ic_x5F_menu_x5F_flat_2"  width="24" height="24" id="XMLID_22_" y="-24" transform="matrix(1 0 0 -1 0 0)" overflow="visible"/>
	
		<use xlink:href="#ic_x5F_menu_x5F_lightalt_2"  width="24" height="24" y="-24" transform="matrix(1 0 0 -1 0 96)" overflow="visible"/>
</g>
<g id="search" display="none">
	
		<use xlink:href="#search_x5F_dark_2"  width="32" height="32" id="XMLID_40_" y="-32" transform="matrix(1 0 0 -1 0 32)" display="inline" overflow="visible"/>
	
		<use xlink:href="#search_x5F_mid"  width="32" height="32" id="XMLID_41_" y="-32" transform="matrix(1 0 0 -1 0 64)" display="inline" overflow="visible"/>
	
		<use xlink:href="#search_x5F_light"  width="32" height="32" id="XMLID_42_" y="-32" transform="matrix(1 0 0 -1 0 96)" display="inline" overflow="visible"/>
	
		<use xlink:href="#search_x5F_flat"  width="32" height="32" y="-32" transform="matrix(1 0 0 -1 4.882812e-04 0)" display="inline" overflow="visible"/>
</g>
</svg>
