<?xml version="1.0" encoding="utf-8"?>
<!-- Generator: Adobe Illustrator 15.0.0, SVG Export Plug-In  -->
<!DOCTYPE svg PUBLIC "-//W3C//DTD SVG 1.1//EN" "http://www.w3.org/Graphics/SVG/1.1/DTD/svg11.dtd" [
	<!ENTITY ns_flows "http://ns.adobe.com/Flows/1.0/">
]>
<svg version="1.1"
	 xmlns="http://www.w3.org/2000/svg" xmlns:xlink="http://www.w3.org/1999/xlink" xmlns:a="http://ns.adobe.com/AdobeSVGViewerExtensions/3.0/"
	 x="0px" y="0px" width="21px" height="21px" viewBox="0 0 21 21" overflow="visible" enable-background="new 0 0 21 21"
	 xml:space="preserve">
<defs>
</defs>
<path d="M10,1C8.344,1,7,2.342,7,4v5l5.859-5.86C12.487,1.904,11.354,1,10,1z M15.099,10c0,3-2.337,5.1-5.099,5.1
	c-0.619,0-1.203-0.133-1.747-0.353l-1.314,1.313C7.575,16.383,8.267,16.609,9,16.718V20h2v-3.282c3.279-0.484,5.8-3.303,5.8-6.718
	H15.099z M10,13c1.655,0,2.99-1.344,2.99-3V7.717l3.51-3.51L15.293,3L3.5,14.803L4.697,16l3.573-3.561C8.758,12.79,9.353,13,10,13z"
	/>
<rect opacity="0" fill="#4387FD" width="21" height="21"/>
</svg>
