<?xml version="1.0" encoding="utf-8"?>
<!-- Generator: Adobe Illustrator 15.0.0, SVG Export Plug-In . SVG Version: 6.00 Build 0)  -->
<!DOCTYPE svg PUBLIC "-//W3C//DTD SVG 1.1//EN" "http://www.w3.org/Graphics/SVG/1.1/DTD/svg11.dtd">
<svg version="1.1" id="Layer_1" xmlns="http://www.w3.org/2000/svg" xmlns:xlink="http://www.w3.org/1999/xlink" x="0px" y="0px"
	 width="13px" height="13px" viewBox="0 0 13 13" enable-background="new 0 0 13 13" xml:space="preserve">
<g id="Photos_5_">
	<path d="M12,9.539C12,9.793,11.794,10,11.54,10H1.459C1.205,10,1,9.793,1,9.539l-0.002-8.08C0.998,1.205,1.203,1,1.457,1h10.109
		c0.254,0,0.459,0.229,0.459,0.482L12,9.539z M12.311,0.043H0.738c-0.381,0-0.689,0.309-0.689,0.691v11.577
		C0.049,12.691,0.357,13,0.738,13h11.573C12.689,13,13,12.691,13,12.311V0.734C13,0.352,12.689,0.043,12.311,0.043z"/>
	<path d="M8.963,5.062c-0.447-0.898-1.109-0.916-1.523,0L6.989,5.991L5.934,3.497c-0.422-0.915-1.12-0.919-1.551-0.011L2.13,9h8.78
		L8.963,5.062z"/>
</g>
</svg>
