<?xml version="1.0" encoding="utf-8"?>
<!-- Generator: Adobe Illustrator 15.0.0, SVG Export Plug-In  -->
<!DOCTYPE svg PUBLIC "-//W3C//DTD SVG 1.1//EN" "http://www.w3.org/Graphics/SVG/1.1/DTD/svg11.dtd" [
	<!ENTITY ns_flows "http://ns.adobe.com/Flows/1.0/">
]>
<svg version="1.1"
	 xmlns="http://www.w3.org/2000/svg" xmlns:xlink="http://www.w3.org/1999/xlink" xmlns:a="http://ns.adobe.com/AdobeSVGViewerExtensions/3.0/"
	 x="0px" y="0px" width="21px" height="21px" viewBox="0 0 21 21" overflow="visible" enable-background="new 0 0 21 21"
	 xml:space="preserve">
<defs>
</defs>
<path d="M10.5,1C5.806,1,2,4.806,2,9.5c0,2.606,1.153,4.941,3,6.5v5l3.24-3h2.26c4.694,0,8.5-3.806,8.5-8.5S15.194,1,10.5,1z
	 M10.5,15.2c-3.148,0-5.7-2.554-5.7-5.7c0-3.148,2.552-5.7,5.7-5.7s5.7,2.552,5.7,5.7C16.2,12.646,13.648,15.2,10.5,15.2z M13.5,9
	H11V5.5C11,5.224,10.776,5,10.5,5S10,5.224,10,5.5V10h3.5c0.276,0,0.5-0.224,0.5-0.5S13.776,9,13.5,9z"/>
<rect opacity="0" fill="#4387FD" width="21" height="21"/>
</svg>
