<?xml version="1.0" encoding="utf-8"?>
<!-- Generator: Adobe Illustrator 15.0.0, SVG Export Plug-In  -->
<!DOCTYPE svg PUBLIC "-//W3C//DTD SVG 1.1//EN" "http://www.w3.org/Graphics/SVG/1.1/DTD/svg11.dtd" [
	<!ENTITY ns_flows "http://ns.adobe.com/Flows/1.0/">
]>
<svg version="1.1"
	 xmlns="http://www.w3.org/2000/svg" xmlns:xlink="http://www.w3.org/1999/xlink" xmlns:a="http://ns.adobe.com/AdobeSVGViewerExtensions/3.0/"
	 x="0px" y="0px" width="21px" height="21px" viewBox="0 0 21 21" overflow="visible" enable-background="new 0 0 21 21"
	 xml:space="preserve">
<defs>
</defs>
<path d="M16.742,15.502L14,12.758h-0.643l-0.551-0.551C13.54,11.338,14,10.229,14,9c0-2.761-2.238-5-5-5S4,6.239,4,9
	c0,2.762,2.238,5,5,5c1.229,0,2.338-0.459,3.208-1.193l0.552,0.55V14l2.742,2.742c0.342,0.344,0.896,0.344,1.24,0.002
	C17.086,16.4,17.086,15.846,16.742,15.502z M9,12.25c-1.795,0-3.25-1.455-3.25-3.25S7.205,5.75,9,5.75c1.797,0,3.25,1.455,3.25,3.25
	S10.797,12.25,9,12.25z"/>
<rect opacity="0" fill="#4387FD" width="21" height="21"/>
</svg>
