<?xml version="1.0" encoding="UTF-8" standalone="no"?>
<svg width="42px" height="50px" viewBox="0 0 42 50" version="1.1" xmlns="http://www.w3.org/2000/svg" xmlns:xlink="http://www.w3.org/1999/xlink" xmlns:sketch="http://www.bohemiancoding.com/sketch/ns">
    <!-- Generator: Sketch Beta 3.0.2 (7799) - http://www.bohemiancoding.com/sketch -->
    <title>docs</title>
    <description>Created with Sketch Beta.</description>
    <defs></defs>
    <g id="Page-1" stroke="none" stroke-width="1" fill="none" fill-rule="evenodd" sketch:type="MSPage">
        <g id="docs" sketch:type="MSLayerGroup">
            <g id="Group-3" sketch:type="MSShapeGroup">
                <path d="M42,5.66643742 L42,48.1909347 C42,49.1943677 41.1920139,50 40.1953125,50 L1.8046875,50 C0.801501989,50 0,49.1900539 0,48.1909347 L0,1.80906532 C0,0.805632304 0.807986116,0 1.8046875,0 L36.2976563,0 L32.4,0 L37.2,4.76190476 L42,9.52380952 L42,5.66643742 Z" id="Rectangle-9" fill="#337CFF"></path>
                <path d="M32.4,0 L32.4,7.65312975 C32.4,7.6727593 32.4003461,7.69238763 32.4010381,7.71200746 C32.437461,8.74463345 33.4046424,9.55538181 34.5612983,9.5228646 L42,9.5228646 L32.4,0 Z" id="Path-20" fill="#9DC0FA"></path>
            </g>
            <g id="Group" transform="translate(11.400000, 16.071429)" fill="#FFFFFF" sketch:type="MSShapeGroup">
                <g>
                    <rect id="Rectangle-18" x="0" y="0" width="19.2" height="2.38095238"></rect>
                    <rect id="Rectangle-19" x="0" y="5.35714286" width="19.2" height="2.38095238"></rect>
                    <rect id="Rectangle-20" x="0" y="10.7142857" width="19.2" height="2.38095238"></rect>
                    <rect id="Rectangle-21" x="0" y="16.0714286" width="9.6" height="2.38095238"></rect>
                </g>
            </g>
        </g>
    </g>
</svg>