<?xml version="1.0" encoding="UTF-8" standalone="no"?>
<svg width="166px" height="290px" viewBox="0 0 166 290" version="1.1" xmlns="http://www.w3.org/2000/svg" xmlns:xlink="http://www.w3.org/1999/xlink" xmlns:sketch="http://www.bohemiancoding.com/sketch/ns">
    <!-- Generator: Sketch Beta 3.0.2 (7799) - http://www.bohemiancoding.com/sketch -->
    <title>Group 4</title>
    <description>Created with Sketch Beta.</description>
    <defs></defs>
    <g id="Page-1" stroke="none" stroke-width="1" fill="none" fill-rule="evenodd" sketch:type="MSPage">
        <g id="Group-4" sketch:type="MSLayerGroup">
            <path d="M104,5.66643742 L104,48.1909347 C104,49.1943677 103.192014,50 102.195312,50 L63.8046875,50 C62.801502,50 62,49.1900539 62,48.1909347 L62,1.80906532 C62,0.805632304 62.8079861,0 63.8046875,0 L98.2976563,0 L94.4,0 L99.2,4.76190476 L104,9.52380952 L104,5.66643742 Z" id="Rectangle-9" fill="#EEB431" sketch:type="MSShapeGroup"></path>
            <path d="M94.4,0 L94.4,7.65312975 C94.4,7.6727593 94.4003461,7.69238763 94.4010381,7.71200746 C94.437461,8.74463345 95.4046424,9.55538181 96.5612983,9.5228646 L104,9.5228646 L94.4,0 Z" id="Path-20" fill="#FCDE69" sketch:type="MSShapeGroup"></path>
            <path d="M166,85.6664374 L166,128.190935 C166,129.194368 165.192014,130 164.195312,130 L125.804688,130 C124.801502,130 124,129.190054 124,128.190935 L124,81.8090653 C124,80.8056323 124.807986,80 125.804688,80 L160.297656,80 L156.4,80 L161.2,84.7619048 L166,89.5238095 L166,85.6664374 Z" id="Rectangle-9" fill="#CE5442" sketch:type="MSShapeGroup"></path>
            <path d="M156.4,80 L156.4,87.6531298 C156.4,87.6727593 156.400346,87.6923876 156.401038,87.7120075 C156.437461,88.7446335 157.404642,89.5553818 158.561298,89.5228646 L166,89.5228646 L156.4,80 Z" id="Path-20" fill="#DB8477" sketch:type="MSShapeGroup"></path>
            <g id="Fill-1-+-Fill-2" transform="translate(135.000000, 96.000000)" fill="#FFFFFF" sketch:type="MSShapeGroup">
                <path d="M0,17.75 C0,18.441 0.559,19 1.25,19 L18.75,19 C19.441,19 20,18.441 20,17.75 L20,5 L0,5 L0,17.75" id="Fill-1"></path>
                <path d="M18.75,0 L1.25,0 C0.559,0 0,0.559 0,1.25 L0,4 L20,4 L20,1.25 C20,0.559 19.441,0 18.75,0" id="Fill-2"></path>
            </g>
            <path d="M139,105 L151,105 L151,106 L139,106 L139,105 Z" id="Fill-3" fill="#CE5442" sketch:type="MSShapeGroup"></path>
            <path d="M152.473,100 L151.223,100 L149.973,96 L151.223,96 L152.473,100" id="Fill-6" fill="#CE5442" sketch:type="MSShapeGroup"></path>
            <path d="M166,145.666437 L166,188.190935 C166,189.194368 165.192014,190 164.195312,190 L125.804688,190 C124.801502,190 124,189.190054 124,188.190935 L124,141.809065 C124,140.805632 124.807986,140 125.804688,140 L160.297656,140 L156.4,140 L161.2,144.761905 L166,149.52381 L166,145.666437 Z" id="Rectangle-9" fill="#EEB431" sketch:type="MSShapeGroup"></path>
            <path d="M156.4,140 L156.4,147.65313 C156.4,147.672759 156.400346,147.692388 156.401038,147.712007 C156.437461,148.744633 157.404642,149.555382 158.561298,149.522865 L166,149.522865 L156.4,140 Z" id="Path-20" fill="#FCDE69" sketch:type="MSShapeGroup"></path>
            <path d="M145.617676,169.626953 L140.406738,169.626953 L139.216309,173.759766 L136.902832,173.759766 L141.934082,157.408203 L144.135254,157.408203 L149.121582,173.759766 L146.808105,173.759766 L145.617676,169.626953 Z M140.93457,167.818848 L145.101074,167.818848 L143.057129,160.67627 L142.989746,160.67627 L140.93457,167.818848 Z M153.097168,173.759766 L150.817383,173.759766 L150.817383,161.608398 L153.097168,161.608398 L153.097168,173.759766 Z M153.097168,158.418945 L150.817383,158.418945 L150.817383,156.240234 L153.097168,156.240234 L153.097168,158.418945 Z" id="Ai" fill="#FFFFFF" sketch:type="MSShapeGroup"></path>
            <g id="Group-+-Shape" transform="translate(0.000000, 160.000000)" sketch:type="MSShapeGroup">
                <g id="Group">
                    <path d="M42,5.66643742 L42,48.1909347 C42,49.1943677 41.1920139,50 40.1953125,50 L1.8046875,50 C0.801501989,50 0,49.1900539 0,48.1909347 L0,1.80906532 C0,0.805632304 0.807986116,0 1.8046875,0 L36.2976563,0 L32.4,0 L37.2,4.76190476 L42,9.52380952 L42,5.66643742 Z" id="Rectangle-9" fill="#EE7C33"></path>
                    <path d="M32.4,0 L32.4,7.65312975 C32.4,7.6727593 32.4003461,7.69238763 32.4010381,7.71200746 C32.437461,8.74463345 33.4046424,9.55538181 34.5612983,9.5228646 L42,9.5228646 L32.4,0 Z" id="Path-18" fill="#F09B41"></path>
                </g>
            </g>
            <path d="M21.8125,176.5 L14.5,176.5 L14.5,179.31435 L16.125,179.31435 L16.125,193.5 L19.375,193.5 L19.375,187.45735 C20.039625,187.75995 20.7700625,187.93505 21.5419375,187.93505 C24.534375,187.93505 27.2294375,185.2975 27.2294375,182.16695 C27.2294375,179.0364 24.8049375,176.5 21.8125,176.5 L21.8125,176.5 Z M21.8125,185 L19.375,185 L19.362,179.3339 L21.8125,179.3339 C23.3083125,179.3339 24.5205625,180.6021 24.5205625,182.16695 C24.5205625,183.7318 23.3083125,185 21.8125,185 L21.8125,185 Z" id="Imported-Layers" fill="#FFFFFF" sketch:type="MSShapeGroup"></path>
            <g id="Group-+-Shape" transform="translate(0.000000, 220.000000)" sketch:type="MSShapeGroup">
                <g id="Group">
                    <path d="M42,5.66643742 L42,48.1909347 C42,49.1943677 41.1920139,50 40.1953125,50 L1.8046875,50 C0.801501989,50 0,49.1900539 0,48.1909347 L0,1.80906532 C0,0.805632304 0.807986116,0 1.8046875,0 L36.2976563,0 L32.4,0 L37.2,4.76190476 L42,9.52380952 L42,5.66643742 Z" id="Rectangle-9" fill="#337CFF"></path>
                    <path d="M32.4,0 L32.4,7.65312975 C32.4,7.6727593 32.4003461,7.69238763 32.4010381,7.71200746 C32.437461,8.74463345 33.4046424,9.55538181 34.5612983,9.5228646 L42,9.5228646 L32.4,0 Z" id="Path-18" fill="#9DC0FA"></path>
                </g>
            </g>
            <path d="M21.8125,236.5 L14.5,236.5 L14.5,239.31435 L16.125,239.31435 L16.125,253.5 L19.375,253.5 L19.375,247.45735 C20.039625,247.75995 20.7700625,247.93505 21.5419375,247.93505 C24.534375,247.93505 27.2294375,245.2975 27.2294375,242.16695 C27.2294375,239.0364 24.8049375,236.5 21.8125,236.5 L21.8125,236.5 Z M21.8125,245 L19.375,245 L19.362,239.3339 L21.8125,239.3339 C23.3083125,239.3339 24.5205625,240.6021 24.5205625,242.16695 C24.5205625,243.7318 23.3083125,245 21.8125,245 L21.8125,245 Z" id="Imported-Layers" fill="#FFFFFF" sketch:type="MSShapeGroup"></path>
            <g id="Group-+-Shape" transform="translate(124.000000, 200.000000)" sketch:type="MSShapeGroup">
                <g id="Group">
                    <path d="M42,5.66643742 L42,48.1909347 C42,49.1943677 41.1920139,50 40.1953125,50 L1.8046875,50 C0.801501989,50 0,49.1900539 0,48.1909347 L0,1.80906532 C0,0.805632304 0.807986116,0 1.8046875,0 L36.2976563,0 L32.4,0 L37.2,4.76190476 L42,9.52380952 L42,5.66643742 Z" id="Rectangle-9" fill="#E6E7E8"></path>
                    <path d="M32.4,0 L32.4,7.65312975 C32.4,7.6727593 32.4003461,7.69238763 32.4010381,7.71200746 C32.437461,8.74463345 33.4046424,9.55538181 34.5612983,9.5228646 L42,9.5228646 L32.4,0 Z" id="Path-18" fill="#F1F2F2"></path>
                </g>
            </g>
            <path d="M136,222.786 C136,222.782 136,227.788 136,227.786 L138.667,227.786 L144,233.333 L144,217.333 L138.667,222.786 L136,222.786 L136,222.786 Z M148,216 L148,217.838 C150.917,218.921 153,222.038 153,225.333 C153,228.627 150.917,231.747 148,232.828 L148,234.666 C151.856,233.476 154.667,229.586 154.667,225.333 C154.667,221.081 151.856,217.19 148,216 L148,216 Z M149.333,225.333 C149.333,223.6 147.56,221.93 146,221.291 L146,229.37 C147.56,228.731 149.333,227.065 149.333,225.333 L149.333,225.333 Z" id="Imported-Layers" fill="#E04A3F" sketch:type="MSShapeGroup"></path>
            <g id="Group-+-Shape" transform="translate(0.000000, 100.000000)" sketch:type="MSShapeGroup">
                <g id="Group">
                    <path d="M42,5.66643742 L42,48.1909347 C42,49.1943677 41.1920139,50 40.1953125,50 L1.8046875,50 C0.801501989,50 0,49.1900539 0,48.1909347 L0,1.80906532 C0,0.805632304 0.807986116,0 1.8046875,0 L36.2976563,0 L32.4,0 L37.2,4.76190476 L42,9.52380952 L42,5.66643742 Z" id="Rectangle-9" fill="#BA4E91"></path>
                    <path d="M32.4,0 L32.4,7.65312975 C32.4,7.6727593 32.4003461,7.69238763 32.4010381,7.71200746 C32.437461,8.74463345 33.4046424,9.55538181 34.5612983,9.5228646 L42,9.5228646 L32.4,0 Z" id="Path-18" fill="#D28FBC"></path>
                </g>
            </g>
            <path d="M16.1711426,133.641846 L13.9025879,133.641846 L13.9025879,117.290283 L16.1711426,117.290283 L16.1711426,133.641846 Z M18.7990723,127.712158 C18.7990723,125.773021 19.149085,124.213873 19.8491211,123.034668 C20.5491571,121.855463 21.5355568,121.265869 22.8083496,121.265869 C23.3773629,121.265869 23.8846006,121.393147 24.3300781,121.647705 C24.7755556,121.902264 25.1592595,122.269122 25.4812012,122.748291 L25.4812012,116.122314 L27.7497559,116.122314 L27.7497559,133.641846 L25.7619629,133.641846 L25.5935059,132.249268 C25.2715641,132.780846 24.8766299,133.185139 24.4086914,133.462158 C23.9407529,133.739178 23.4035675,133.877686 22.7971191,133.877686 C21.5318133,133.877686 20.5491571,133.338628 19.8491211,132.260498 C19.149085,131.182368 18.7990723,129.744882 18.7990723,127.947998 L18.7990723,127.712158 Z M21.0788574,127.947998 C21.0788574,129.228278 21.2622866,130.242753 21.6291504,130.991455 C21.9960142,131.740157 22.5762493,132.114502 23.369873,132.114502 C23.8640161,132.114502 24.2851545,131.979738 24.6333008,131.710205 C24.9814471,131.440672 25.2640777,131.062584 25.4812012,130.575928 L25.4812012,124.668701 C25.2640777,124.167071 24.9814471,123.770265 24.6333008,123.478271 C24.2851545,123.186278 23.871503,123.040283 23.392334,123.040283 C22.5987102,123.040283 22.0147317,123.47078 21.6403809,124.331787 C21.26603,125.192794 21.0788574,126.319573 21.0788574,127.712158 L21.0788574,127.947998 Z" id="Id" fill="#FFFFFF" sketch:type="MSShapeGroup"></path>
            <path d="M42,45.6664374 L42,88.1909347 C42,89.1943677 41.1920139,90 40.1953125,90 L1.8046875,90 C0.801501989,90 0,89.1900539 0,88.1909347 L0,41.8090653 C0,40.8056323 0.807986116,40 1.8046875,40 L36.2976563,40 L32.4,40 L37.2,44.7619048 L42,49.5238095 L42,45.6664374 Z" id="Rectangle-9" fill="#009E52" sketch:type="MSShapeGroup"></path>
            <path d="M9,75 L33,75 L33,55 L9,55 L9,75 Z M11,57 L17,57 L17,61 L11,61 L11,57 Z M11,63 L17,63 L17,67 L11,67 L11,63 Z M11,69 L17,69 L17,73 L11,73 L11,69 Z M19,69 L31,69 L31,73 L19,73 L19,69 Z M19,63 L31,63 L31,67 L19,67 L19,63 Z M19,57 L31,57 L31,61 L19,61 L19,57 Z" id="Imported-Layers-2" fill="#FFFFFF" sketch:type="MSShapeGroup"></path>
            <path d="M166,25.6664374 L166,68.1909347 C166,69.1943677 165.192014,70 164.195312,70 L125.804688,70 C124.801502,70 124,69.1900539 124,68.1909347 L124,21.8090653 C124,20.8056323 124.807986,20 125.804688,20 L160.297656,20 L156.4,20 L161.2,24.7619048 L166,29.5238095 L166,25.6664374 Z" id="Rectangle-9" fill="#337CFF" sketch:type="MSShapeGroup"></path>
            <path d="M156.4,20 L156.4,27.6531298 C156.4,27.6727593 156.400346,27.6923876 156.401038,27.7120075 C156.437461,28.7446335 157.404642,29.5553818 158.561298,29.5228646 L166,29.5228646 L156.4,20 Z" id="Path-20" fill="#9DC0FA" sketch:type="MSShapeGroup"></path>
            <path d="M136.711914,46.6115723 L136.711914,53.0578613 L134.432129,53.0578613 L134.432129,36.7062988 L139.800293,36.7062988 C141.327644,36.7062988 142.525549,37.1611283 143.394043,38.0708008 C144.262537,38.9804733 144.696777,40.1765063 144.696777,41.6589355 C144.696777,43.1488519 144.262537,44.3467565 143.394043,45.2526855 C142.525549,46.1586146 141.327644,46.6115723 139.800293,46.6115723 L136.711914,46.6115723 Z M136.711914,44.8596191 L139.800293,44.8596191 C140.6613,44.8596191 141.312661,44.5582712 141.754395,43.9555664 C142.196129,43.3528616 142.416992,42.5948125 142.416992,41.6813965 C142.416992,40.7530064 142.198,39.983727 141.76001,39.3735352 C141.322019,38.7633433 140.668787,38.458252 139.800293,38.458252 L136.711914,38.458252 L136.711914,44.8596191 Z M152.524414,50.0144043 C152.524414,49.5427223 152.369061,49.1440446 152.05835,48.8183594 C151.747638,48.4926742 151.161788,48.1351745 150.300781,47.7458496 C149.050449,47.2591935 148.123945,46.7407254 147.52124,46.1904297 C146.918535,45.640134 146.617188,44.9270063 146.617188,44.0510254 C146.617188,43.1151483 146.985918,42.3196647 147.723389,41.6645508 C148.46086,41.0094368 149.428542,40.6818848 150.626465,40.6818848 C151.876797,40.6818848 152.872555,41.035641 153.61377,41.7431641 C154.354984,42.4506871 154.710612,43.3322701 154.680664,44.3879395 L154.658203,44.4553223 L152.468262,44.4553223 C152.468262,43.878822 152.305422,43.3828146 151.979736,42.9672852 C151.654051,42.5517557 151.202965,42.3439941 150.626465,42.3439941 C150.057452,42.3439941 149.613853,42.5049626 149.295654,42.8269043 C148.977456,43.148846 148.818359,43.5269347 148.818359,43.9611816 C148.818359,44.4253767 148.954995,44.792235 149.228271,45.0617676 C149.501548,45.3313002 150.091141,45.6831847 150.99707,46.1174316 C152.269863,46.5741397 153.215085,47.0926078 153.832764,47.6728516 C154.450443,48.2530953 154.759277,48.9961706 154.759277,49.9020996 C154.759277,50.9053598 154.377445,51.7214324 153.61377,52.3503418 C152.850094,52.9792512 151.846849,53.2937012 150.604004,53.2937012 C149.263828,53.2937012 148.208174,52.9137408 147.437012,52.1538086 C146.665849,51.3938764 146.298991,50.5048065 146.336426,49.4865723 L146.358887,49.4191895 L148.481445,49.4191895 C148.511393,50.2053262 148.728514,50.7724592 149.132812,51.1206055 C149.537111,51.4687517 150.038734,51.6428223 150.637695,51.6428223 C151.22917,51.6428223 151.691486,51.4912125 152.024658,51.1879883 C152.35783,50.8847641 152.524414,50.4935734 152.524414,50.0144043 L152.524414,50.0144043 Z" id="Ps" fill="#FFFFFF" sketch:type="MSShapeGroup"></path>
            <g id="Group" transform="translate(62.000000, 240.000000)" sketch:type="MSShapeGroup">
                <path d="M42,5.66643742 L42,48.1909347 C42,49.1943677 41.1920139,50 40.1953125,50 L1.8046875,50 C0.801501989,50 0,49.1900539 0,48.1909347 L0,1.80906532 C0,0.805632304 0.807986116,0 1.8046875,0 L36.2976563,0 L32.4,0 L37.2,4.76190476 L42,9.52380952 L42,5.66643742 Z" id="Rectangle-9" fill="#CE5442"></path>
                <path d="M32.4,0 L32.4,7.65312975 C32.4,7.6727593 32.4003461,7.69238763 32.4010381,7.71200746 C32.437461,8.74463345 33.4046424,9.55538181 34.5612983,9.5228646 L42,9.5228646 L32.4,0 Z" id="Path-18" fill="#DB8477"></path>
            </g>
            <path d="M75.1979555,276.309524 L75.1977951,276.309524 C74.8993362,276.309524 74.6125909,276.212523 74.3684483,276.029211 C73.4750773,275.358002 73.3551321,274.61101 73.4118554,274.10238 C73.567744,272.703788 75.2946338,271.239136 78.5457501,269.747321 C79.8357024,266.91558 81.0633154,263.425891 81.7952618,260.51033 C80.9391179,258.643692 80.1074445,256.222456 80.7138296,254.801924 C80.9262008,254.304384 81.2997558,253.954154 81.7940583,253.789084 C81.9899822,253.723667 82.1813329,253.690476 82.3627349,253.690476 C82.7952597,253.690476 83.1817319,253.879736 83.451067,254.223457 C83.704356,254.546685 84.4666297,255.519503 83.3194081,260.35627 C84.4756958,262.748253 86.1138502,265.185 87.6838886,266.853618 C88.8085653,266.649572 89.7761499,266.546303 90.5644986,266.546303 C91.9078045,266.546303 92.7221481,266.860128 93.0537424,267.5057 C93.328453,268.040288 93.2158088,268.664643 92.7189389,269.361328 C92.2413243,270.031089 91.5827089,270.385097 90.8142574,270.385097 C89.7709348,270.385097 88.5567205,269.724818 87.2016207,268.4217 C84.7675758,268.930893 81.9255568,269.840303 79.6285463,270.846392 C78.9112821,272.370836 78.2241044,273.598732 77.5843433,274.498901 C76.7066975,275.734191 75.9482749,276.309524 75.1979555,276.309524 L75.1979555,276.309524 Z M77,272.142857 C75.3315437,273.18307 74.6517211,274.037761 74.6032458,274.519305 C74.5952883,274.59886 74.5741898,274.808361 74.9393609,275.119048 C75.0556578,275.078136 75.7350424,274.734477 77,272.142857 L77,272.142857 Z M89,268.117919 C89.7762001,268.795907 90.4626604,269.166667 90.9706214,269.166667 C91.1937678,269.166667 91.4874941,269.10688 91.7810421,268.640421 C91.923182,268.414526 91.9785231,268.269156 92,268.191868 C91.8830798,268.121055 91.5403398,267.97619 90.6932034,267.97619 C90.2121554,267.97619 89.6403874,268.024445 89,268.117919 L89,268.117919 Z M82.8228663,262.619048 C82.2281012,264.760785 81.4434001,267.072614 80.6,269.166667 C82.3371026,268.464277 84.2259675,267.851994 86,267.417899 C84.8777211,266.060804 83.7566085,264.366035 82.8228663,262.619048 L82.8228663,262.619048 Z M82.2267891,254.880952 C82.2059942,254.884216 82.1762496,254.890743 82.1361515,254.903797 C82.0444611,254.933769 81.9704945,254.98315 81.9074957,255.12743 C81.666205,255.679899 81.8565176,256.729359 82.2260871,257.857143 C82.5323069,255.91358 82.3696331,255.088268 82.2267891,254.880952 L82.2267891,254.880952 Z" id="Shape" fill="#FB4C2F" sketch:type="MSShapeGroup"></path>
        </g>
    </g>
</svg>