<?xml version="1.0" encoding="UTF-8" standalone="no"?>
<svg width="19px" height="22px" viewBox="0 0 19 22" version="1.1" xmlns="http://www.w3.org/2000/svg" xmlns:xlink="http://www.w3.org/1999/xlink" xmlns:sketch="http://www.bohemiancoding.com/sketch/ns">
    <!-- Generator: Sketch Beta 3.0.2 (7799) - http://www.bohemiancoding.com/sketch -->
    <title>video 3 + Oval 67 + Oval 68 + Shape 5</title>
    <description>Created with Sketch Beta.</description>
    <defs></defs>
    <g id="Page-1" stroke="none" stroke-width="1" fill="none" fill-rule="evenodd" sketch:type="MSPage">
        <g id="video-3-+-Oval-67-+-Oval-68-+-Shape-5" sketch:type="MSLayerGroup">
            <g sketch:type="MSShapeGroup">
                <g>
                    <g id="video-3">
                        <path d="M18.1862069,2.39327804 L18.1862069,20.485183 C18.1862069,20.8948156 17.8569369,21.2282609 17.4507617,21.2282609 L0.735445204,21.2282609 C0.3311802,21.2282609 0,20.8955736 0,20.485183 L0,0.743077823 C0,0.333445286 0.329270034,0 0.735445204,0 L15.7400606,0 L14.0293596,-8.8817842e-16 L16.1077833,2.02173913 L18.1862069,4.04347826 L18.1862069,2.39327804 Z" id="Rectangle-9" fill="#CE5442"></path>
                        <path d="M14.0293596,0 L14.0293596,3.2492527 C14.0293596,3.25758672 14.0295095,3.26592023 14.0298091,3.27425012 C14.0455804,3.7126672 14.4643747,4.05688276 14.9652124,4.04307708 L18.1862069,4.04307708 L14.0293596,0 Z" id="Path-20" fill="#D56F60"></path>
                    </g>
                    <g id="Oval-67-+-Oval-68-+-Shape-3" transform="translate(6.062069, 10.108696)" fill="#FFFFFF">
                        <ellipse id="Oval-67" cx="1.01034483" cy="1.01086957" rx="1.01034483" ry="1.01086957"></ellipse>
                        <ellipse id="Oval-68" cx="5.05172414" cy="1.01086957" rx="1.01034483" ry="1.01086957"></ellipse>
                        <path d="M5.1362489,5.77151507 C4.72603506,4.87893951 3.94278525,4.32427523 3.09290263,4.32427523 C2.24284041,4.32427523 1.4597702,4.87893951 1.04955636,5.77151507 C0.909465814,6.0761293 0.589412807,6.18740587 0.334914989,6.01963174 C0.0802375684,5.85228725 -0.0127969196,5.46947867 0.127293622,5.16486444 C0.722498821,3.8697169 1.85902824,3.06521739 3.09308223,3.06521739 C4.32695662,3.06521739 5.46366564,3.86993172 6.05887084,5.16486444 C6.19896138,5.46947867 6.1061065,5.85207243 5.85142908,6.01963174 C5.77060761,6.07269219 5.68367964,6.09782609 5.59782928,6.09782609 C5.41229911,6.09782609 5.23215704,5.97989011 5.1362489,5.77151507 Z" id="Shape" transform="translate(3.062069, 4.565217) rotate(-180.000000) translate(-3.062069, -4.565217) "></path>
                    </g>
                </g>
            </g>
        </g>
    </g>
</svg>