<?xml version="1.0" encoding="UTF-8" standalone="no"?>
<svg width="93px" height="75px" viewBox="0 0 93 75" version="1.1" xmlns="http://www.w3.org/2000/svg" xmlns:xlink="http://www.w3.org/1999/xlink" xmlns:sketch="http://www.bohemiancoding.com/sketch/ns">
    <!-- Generator: Sketch Beta 3.0.2 (7799) - http://www.bohemiancoding.com/sketch -->
    <title>Group 7 + Oval 67 + Oval 68 + Shape 7 + Oval 67 + Oval 68 + Shape 8</title>
    <description>Created with Sketch Beta.</description>
    <defs>
        <filter x="-50%" y="-50%" width="200%" height="200%" filterUnits="objectBoundingBox" id="filter-1">
            <feGaussianBlur stdDeviation="0 0" in="SourceGraphic" result="blur"></feGaussianBlur>
        </filter>
    </defs>
    <g id="Page-1" stroke="none" stroke-width="1" fill="none" fill-rule="evenodd" sketch:type="MSPage">
        <g id="b-07" sketch:type="MSArtboardGroup" transform="translate(-674.000000, -278.000000)">
            <g id="Group-7-+-Oval-67-+-Oval-68-+-Shape-7-+-Oval-67-+-Oval-68-+-Shape-8" sketch:type="MSLayerGroup" transform="translate(674.000000, 278.000000)">
                <g id="Group-7" sketch:type="MSShapeGroup">
                    <g id="Group">
                        <path d="M9.3,0 C4.16175,0 0.05115,4.1953125 0.05115,9.375 L0,65.625 C0,70.8 4.16175,75 9.3,75 L83.7,75 C88.8336,75 93,70.8 93,65.625 L93,18.75 C93,13.575 88.8336,9.375 83.7,9.375 L46.5,9.375 L37.2,0 L9.3,0 Z" id="Imported-Layers" fill="#9B9B9B" filter="url(#filter-1)"></path>
                        <path d="M46.5,32.3275862 C46.5,28.0448276 43.0299375,24.5689655 38.75,24.5689655 C34.472,24.5689655 31.019375,28.0448276 31.019375,32.3275862 C31.019375,36.6084052 34.472,40.0862069 38.75,40.0862069 C43.0299375,40.0862069 46.5,36.6084052 46.5,32.3275862 Z M56.1875,40.0862069 C59.3979375,40.0862069 61.980625,37.4793103 61.980625,34.2672414 C61.980625,31.0551724 59.3979375,28.4482759 56.1875,28.4482759 C52.979,28.4482759 50.375,31.0551724 50.375,34.2672414 C50.375,37.4793103 52.979,40.0862069 56.1875,40.0862069 L56.1875,40.0862069 Z M38.75,43.9655172 C33.5826875,43.9655172 23.25,46.5568966 23.25,51.7241379 L23.25,55.6034483 L54.25,55.6034483 L54.25,51.7241379 C54.25,46.5568966 43.9173125,43.9655172 38.75,43.9655172 L38.75,43.9655172 Z M56.1875,43.9655172 C55.4105625,43.9655172 54.4960625,44.0372845 53.5234375,44.169181 C56.2185,45.9653017 58.125,48.4306034 58.125,51.7241379 L58.125,55.6034483 L69.75,55.6034483 L69.75,50.7543103 C69.75,46.2310345 60.709625,43.9655172 56.1875,43.9655172 L56.1875,43.9655172 Z" id="Imported-Layers" fill="#FFFFFF"></path>
                        <g id="imoticon_3-path-+-imoticon_3-path-+-imoticon_3-path-3" transform="translate(72.333333, 37.500000)" fill="#9B9B9B">
                            <path d="M4.52083333,6.46551724 C7.11009438,6.46551724 9.04166667,4.8794137 9.04166667,2.83324286 C9.04166667,2.61530639 7.11009438,3.33055226 4.52083333,3.33055226 C1.93157229,3.33055226 0,2.61530639 0,2.83324286 C0,4.8794137 1.93157229,6.46551724 4.52083333,6.46551724 L4.52083333,6.46551724 Z" id="imoticon_3-path"></path>
                            <path d="M2.59529321,1.46943574 C3.01142445,1.46943574 3.34876543,1.14049136 3.34876543,0.734717868 C3.34876543,0.328944372 3.01142445,0 2.59529321,0 C2.17916197,0 1.84182099,0.328944372 1.84182099,0.734717868 C1.84182099,1.14049136 2.17916197,1.46943574 2.59529321,1.46943574 L2.59529321,1.46943574 Z" id="imoticon_3-path"></path>
                            <path d="M6.44637346,1.46943574 C6.8625047,1.46943574 7.19984568,1.14049136 7.19984568,0.734717868 C7.19984568,0.328944372 6.8625047,0 6.44637346,0 C6.03024222,0 5.69290123,0.328944372 5.69290123,0.734717868 C5.69290123,1.14049136 6.03024222,1.46943574 6.44637346,1.46943574 L6.44637346,1.46943574 Z" id="imoticon_3-path"></path>
                        </g>
                    </g>
                </g>
                <g id="Oval-67-+-Oval-68-+-Shape-7" transform="translate(34.500000, 28.500000)" fill="#9B9B9B" sketch:type="MSShapeGroup">
                    <circle id="Oval-67" cx="1.5" cy="1.5" r="1.5"></circle>
                    <circle id="Oval-68" cx="7.5" cy="1.5" r="1.5"></circle>
                    <path d="M8.21862026,9 C7.94317445,9 7.67572803,8.82499823 7.53333882,8.51579656 C6.92431826,7.1913296 5.76147298,6.36827938 4.49970186,6.36827938 C3.23766408,6.36827938 2.07508545,7.1913296 1.4660649,8.51579656 C1.25808064,8.96780477 0.782916624,9.13292484 0.405078568,8.88396968 C0.0269738644,8.63565205 -0.11114901,8.06761352 0.0968352411,7.6156053 C0.980501663,5.69377346 2.66784056,4.5 4.4999685,4.5 C6.33182979,4.5 8.01943534,5.69409223 8.90310176,7.6156053 C9.11108601,8.06761352 8.97322979,8.63533329 8.59512508,8.88396968 C8.47513417,8.96270454 8.34607727,9 8.21862026,9 L8.21862026,9 L8.21862026,9 Z" id="Shape" transform="translate(4.500000, 6.750000) rotate(-180.000000) translate(-4.500000, -6.750000) "></path>
                </g>
                <g id="Oval-67-+-Oval-68-+-Shape-8" transform="translate(53.000000, 32.000000)" fill="#9B9B9B" sketch:type="MSShapeGroup">
                    <circle id="Oval-67" cx="1" cy="1" r="1"></circle>
                    <circle id="Oval-68" cx="5" cy="1" r="1"></circle>
                    <path d="M5.47908017,6 C5.29544963,6 5.11715202,5.88333215 5.02222588,5.6771977 C4.61621218,4.79421974 3.84098199,4.24551959 2.99980124,4.24551959 C2.15844272,4.24551959 1.3833903,4.79421974 0.977376598,5.6771977 C0.83872043,5.97853652 0.521944416,6.08861656 0.270052378,5.92264645 C0.0179825762,5.75710137 -0.0740993402,5.37840901 0.0645568274,5.0770702 C0.653667775,3.79584898 1.77856038,3 2.999979,3 C4.22121986,3 5.34629023,3.79606149 5.93540118,5.0770702 C6.07405734,5.37840901 5.98215319,5.75688886 5.73008339,5.92264645 C5.65008945,5.97513636 5.56405152,6 5.47908017,6 L5.47908017,6 L5.47908017,6 Z" id="Shape" transform="translate(3.000000, 4.500000) rotate(-180.000000) translate(-3.000000, -4.500000) "></path>
                </g>
            </g>
        </g>
    </g>
</svg>