<?xml version="1.0" encoding="UTF-8" standalone="no"?>
<svg width="293px" height="186px" viewBox="0 0 293 186" version="1.1" xmlns="http://www.w3.org/2000/svg" xmlns:xlink="http://www.w3.org/1999/xlink" xmlns:sketch="http://www.bohemiancoding.com/sketch/ns">
    <!-- Generator: Sketch Beta 3.0.2 (7799) - http://www.bohemiancoding.com/sketch -->
    <title>Group</title>
    <description>Created with Sketch Beta.</description>
    <defs>
        <rect id="path-1" x="0" y="0" width="236.61512" height="157.695652"></rect>
        <rect id="path-3" x="0" y="0" width="236.61512" height="157.695652"></rect>
        <filter x="-50%" y="-50%" width="200%" height="200%" filterUnits="objectBoundingBox" id="filter-5">
            <feGaussianBlur stdDeviation="0 0" in="SourceGraphic" result="blur"></feGaussianBlur>
        </filter>
        <rect id="path-6" x="0" y="0" width="236.61512" height="157.695652"></rect>
        <rect id="path-8" x="0" y="0" width="236.61512" height="157.695652"></rect>
        <filter x="-50%" y="-50%" width="200%" height="200%" filterUnits="objectBoundingBox" id="filter-10">
            <feGaussianBlur stdDeviation="0 0" in="SourceGraphic" result="blur"></feGaussianBlur>
        </filter>
    </defs>
    <g id="Page-1" stroke="none" stroke-width="1" fill="none" fill-rule="evenodd" sketch:type="MSPage">
        <g id="Group" sketch:type="MSLayerGroup">
            <g id="Group-+-Rectangle-9-+-Path-20-+-Oval-67-+-Oval-68-+-Shape-+-Rectangle-9-+-Path-21-+-Oval-67-+-Oval-68-+-Shape-2-+-Rectangle-101-+-Oval-3-+-Oval-4-+-Oval-7-+-Group-+-Imported-Layers-2">
                <g id="Group-+-Rectangle-9-+-Path-20-+-Oval-67-+-Oval-68-+-Shape-+-Rectangle-9-+-Path-21-+-Oval-67-+-Oval-68-+-Shape-2">
                    <g id="Group">
                        <rect id="Rectangle-182" stroke="#535351" stroke-width="8.02632499" fill="#A5EBF3" sketch:type="MSShapeGroup" x="20.137457" y="0" width="252.530387" height="173.869565" rx="3.00987187"></rect>
                        <path d="" id="Rectangle-183" fill="#535351" sketch:type="MSShapeGroup"></path>
                        <g id="Rectangle-181-+-Group-2" transform="translate(28.192440, 8.086957)">
                            <mask id="mask-2" sketch:name="Rectangle 181" fill="white">
                                <use xlink:href="#path-1"></use>
                            </mask>
                            <use id="Rectangle-181" sketch:type="MSShapeGroup" xlink:href="#path-1"></use>
                            <g id="Group" mask="url(#mask-2)" stroke="#FFFFFF" stroke-width="3.00987187" sketch:type="MSShapeGroup">
                                <g transform="translate(84.868966, 11.407759)">
                                    <path d="M150.889814,302.977522 C234.223957,302.977522 301.779628,235.153693 301.779628,151.488761 C301.779628,67.8238285 234.223957,0 150.889814,0 C67.5556709,0 0,67.8238285 0,151.488761 C0,235.153693 67.5556709,302.977522 150.889814,302.977522 Z" id="Oval-57" fill="#A9D9F9"></path>
                                    <ellipse id="Oval-56" fill="#D1EF8B" cx="150.889814" cy="151.488761" rx="123.455302" ry="123.94535"></ellipse>
                                    <ellipse id="Oval-54" fill="#F7E785" cx="150.889814" cy="151.488761" rx="96.0207908" ry="96.4019388"></ellipse>
                                    <ellipse id="Oval-55" fill="#F3C2B4" cx="150.889814" cy="151.488761" rx="68.5862791" ry="68.8585277"></ellipse>
                                    <ellipse id="Oval-59" fill="#A5EAF3" cx="150.889814" cy="151.488761" rx="41.1517675" ry="41.3151166"></ellipse>
                                </g>
                            </g>
                        </g>
                        <rect id="Rectangle-178" stroke="#535351" stroke-width="8.02632499" fill="#A5EBF3" sketch:type="MSShapeGroup" x="20.137457" y="0" width="252.725086" height="173.869565" rx="3.00987187"></rect>
                        <path d="M0,178.409614 L0,167.804348 L293,167.804348 L293,178.409614 L293,182.985119 C293,184.643146 291.648145,186 289.980547,186 L3.01945344,186 C1.33873374,186 0,184.650192 0,182.985119 L0,178.409614 Z" id="Rectangle-179" fill="#535351" sketch:type="MSShapeGroup"></path>
                        <g id="Rectangle-181-+-Group" transform="translate(28.192440, 8.086957)">
                            <mask id="mask-4" sketch:name="Rectangle 181" fill="white">
                                <use xlink:href="#path-3"></use>
                            </mask>
                            <use id="Rectangle-181" sketch:type="MSShapeGroup" xlink:href="#path-3"></use>
                            <g id="Group" mask="url(#mask-4)" stroke="#FFFFFF" stroke-width="3.00987187" sketch:type="MSShapeGroup">
                                <g transform="translate(84.868966, 11.407759)">
                                    <path d="M150.889814,302.977522 C234.223957,302.977522 301.779628,235.153693 301.779628,151.488761 C301.779628,67.8238285 234.223957,0 150.889814,0 C67.5556709,0 0,67.8238285 0,151.488761 C0,235.153693 67.5556709,302.977522 150.889814,302.977522 Z" id="Oval-57" fill="#A9D9F9"></path>
                                    <ellipse id="Oval-56" fill="#D1EF8B" cx="150.889814" cy="151.488761" rx="123.455302" ry="123.94535"></ellipse>
                                    <ellipse id="Oval-54" fill="#F7E785" cx="150.889814" cy="151.488761" rx="96.0207908" ry="96.4019388"></ellipse>
                                    <ellipse id="Oval-55" fill="#F3C2B4" cx="150.889814" cy="151.488761" rx="68.5862791" ry="68.8585277"></ellipse>
                                    <ellipse id="Oval-59" fill="#A5EAF3" cx="150.889814" cy="151.488761" rx="41.1517675" ry="41.3151166"></ellipse>
                                </g>
                            </g>
                        </g>
                    </g>
                    <g id="Rectangle-9-+-Path-20-+-Oval-67-+-Oval-68-+-Shape-+-Rectangle-9-+-Path-21-+-Oval-67-+-Oval-68-+-Shape-2" transform="translate(47.486207, 25.271739)" sketch:type="MSShapeGroup">
                        <g id="Rectangle-9-+-Path-20-+-Oval-67-+-Oval-68-+-Shape">
                            <g id="Rectangle-9-+-Path-20">
                                <g>
                                    <path d="M18.1862069,2.39327804 L18.1862069,20.485183 C18.1862069,20.8948156 17.8569369,21.2282609 17.4507617,21.2282609 L0.735445204,21.2282609 C0.3311802,21.2282609 0,20.8955736 0,20.485183 L0,0.743077823 C0,0.333445286 0.329270034,0 0.735445204,0 L15.7400606,0 L14.0293596,-8.8817842e-16 L16.1077833,2.02173913 L18.1862069,4.04347826 L18.1862069,2.39327804 Z" id="Rectangle-9" fill="#CE5442"></path>
                                    <path d="M14.0293596,0 L14.0293596,3.2492527 C14.0293596,3.25758672 14.0295095,3.26592023 14.0298091,3.27425012 C14.0455804,3.7126672 14.4643747,4.05688276 14.9652124,4.04307708 L18.1862069,4.04307708 L14.0293596,0 Z" id="Path-20" fill="#DB8477"></path>
                                </g>
                            </g>
                            <g id="Oval-67-+-Oval-68-+-Shape" transform="translate(6.062069, 10.108696)" fill="#FFFFFF">
                                <ellipse id="Oval-67" cx="1.01034483" cy="1.01086957" rx="1.01034483" ry="1.01086957"></ellipse>
                                <ellipse id="Oval-68" cx="5.05172414" cy="1.01086957" rx="1.01034483" ry="1.01086957"></ellipse>
                                <path d="M5.53576031,6.06521739 C5.35023015,6.06521739 5.17008808,5.94728142 5.07417994,5.73890638 C4.66396609,4.84633082 3.88071628,4.29166654 3.03083366,4.29166654 C2.18077144,4.29166654 1.39770123,4.84633082 0.98748739,5.73890638 C0.847396848,6.04352061 0.527343841,6.15479718 0.272846024,5.98702305 C0.0181686029,5.81967856 -0.0748658851,5.43686998 0.0652246567,5.13225574 C0.660429856,3.8371082 1.79695928,3.0326087 3.03101327,3.0326087 C4.26488765,3.0326087 5.40159668,3.83732302 5.99680188,5.13225574 C6.13689242,5.43686998 6.04403753,5.81946374 5.78936011,5.98702305 C5.70853865,6.04008349 5.62161067,6.06521739 5.53576031,6.06521739 L5.53576031,6.06521739 L5.53576031,6.06521739 Z" id="Shape"></path>
                            </g>
                        </g>
                        <g id="Rectangle-9-+-Path-21-+-Oval-67-+-Oval-68-+-Shape-2" transform="translate(0.000000, 34.369565)">
                            <g id="Rectangle-9-+-Path-21">
                                <path d="M18.1862069,2.39327804 L18.1862069,20.485183 C18.1862069,20.8948156 17.8569369,21.2282609 17.4507617,21.2282609 L0.735445204,21.2282609 C0.3311802,21.2282609 0,20.8955736 0,20.485183 L0,0.743077823 C0,0.333445286 0.329270034,0 0.735445204,0 L15.7400606,0 L14.0293596,-8.8817842e-16 L16.1077833,2.02173913 L18.1862069,4.04347826 L18.1862069,2.39327804 Z" id="Rectangle-9" fill="#3B5BB3"></path>
                                <path d="M14.0293596,0 L14.0293596,3.2492527 C14.0293596,3.25758672 14.0295095,3.26592023 14.0298091,3.27425012 C14.0455804,3.7126672 14.4643747,4.05688276 14.9652124,4.04307708 L18.1862069,4.04307708 L14.0293596,0 Z" id="Path-20" fill="#788BC9"></path>
                            </g>
                            <g id="Oval-67-+-Oval-68-+-Shape-2" transform="translate(6.062069, 10.108696)" fill="#FFFFFF">
                                <ellipse id="Oval-67" cx="1.01034483" cy="1.01086957" rx="1.01034483" ry="1.01086957"></ellipse>
                                <ellipse id="Oval-68" cx="5.05172414" cy="1.01086957" rx="1.01034483" ry="1.01086957"></ellipse>
                                <path d="M5.53576031,6.06521739 C5.35023015,6.06521739 5.17008808,5.94728142 5.07417994,5.73890638 C4.66396609,4.84633082 3.88071628,4.29166654 3.03083366,4.29166654 C2.18077144,4.29166654 1.39770123,4.84633082 0.98748739,5.73890638 C0.847396848,6.04352061 0.527343841,6.15479718 0.272846024,5.98702305 C0.0181686029,5.81967856 -0.0748658851,5.43686998 0.0652246567,5.13225574 C0.660429856,3.8371082 1.79695928,3.0326087 3.03101327,3.0326087 C4.26488765,3.0326087 5.40159668,3.83732302 5.99680188,5.13225574 C6.13689242,5.43686998 6.04403753,5.81946374 5.78936011,5.98702305 C5.70853865,6.04008349 5.62161067,6.06521739 5.53576031,6.06521739 L5.53576031,6.06521739 L5.53576031,6.06521739 Z" id="Shape"></path>
                            </g>
                        </g>
                    </g>
                </g>
                <g id="Rectangle-101-+-Oval-3-+-Oval-4-+-Oval-7-+-Group-+-Imported-Layers" transform="translate(95.982759, 28.304348)" sketch:type="MSShapeGroup">
                    <g id="Rectangle-101-+-Oval-3-+-Oval-4-+-Oval-7">
                        <rect id="Rectangle-101" fill="#FFFFFF" x="-0.136360667" y="0.00304020922" width="154.719119" height="118.271739" rx="0.963158999"></rect>
                        <g id="Oval-3-+-Oval-4-+-Oval-7" transform="translate(5.671022, 6.065217)">
                            <ellipse id="Oval-3" fill="#FF8C88" cx="1.45612842" cy="1.45416073" rx="1.45612842" ry="1.45416073"></ellipse>
                            <ellipse id="Oval-4" fill="#FFC255" cx="6.30988984" cy="1.45416073" rx="1.45612842" ry="1.45416073"></ellipse>
                            <ellipse id="Oval-5" fill="#9BDC6C" cx="11.1636513" cy="1.45416073" rx="1.45612842" ry="1.45416073"></ellipse>
                        </g>
                    </g>
                    <g id="Group" transform="translate(15.155172, 19.206522)">
                        <g id="Group-4" transform="translate(0.505172, 2.021739)">
                            <path d="M2.12172414,0 C0.949471552,0 0.0116694828,0.961273777 0.0116694828,2.14809783 L0,15.0366848 C0,16.2224348 0.949471552,17.1847826 2.12172414,17.1847826 L19.0955172,17.1847826 C20.266709,17.1847826 21.2172414,16.2224348 21.2172414,15.0366848 L21.2172414,4.29619565 C21.2172414,3.11044565 20.266709,2.14809783 19.0955172,2.14809783 L10.6086207,2.14809783 L8.48689655,0 L2.12172414,0 Z" id="Imported-Layers" fill="#9B9B9B" filter="url(#filter-5)"></path>
                            <path d="M8.84051724,9.18497001 C9.81695237,9.18497001 10.6086207,8.38809979 10.6086207,7.40723388 C10.6086207,6.42592354 9.81695237,5.62949775 8.84051724,5.62949775 C7.86452414,5.62949775 7.07683405,6.42592354 7.07683405,7.40723388 C7.07683405,8.38809979 7.86452414,9.18497001 8.84051724,9.18497001 L8.84051724,9.18497001 Z M12.81875,9.18497001 C13.5511869,9.18497001 14.1404073,8.58765067 14.1404073,7.85166792 C14.1404073,7.11568516 13.5511869,6.51836582 12.81875,6.51836582 C12.0867552,6.51836582 11.4926724,7.11568516 11.4926724,7.85166792 C11.4926724,8.58765067 12.0867552,9.18497001 12.81875,9.18497001 L12.81875,9.18497001 Z M8.84051724,10.0738381 C7.66163427,10.0738381 5.30431034,10.6676019 5.30431034,11.8515742 L5.30431034,12.7404423 L12.3767241,12.7404423 L12.3767241,11.8515742 C12.3767241,10.6676019 10.0194002,10.0738381 8.84051724,10.0738381 L8.84051724,10.0738381 Z M12.81875,10.0738381 C12.6414976,10.0738381 12.4328614,10.0902821 12.2109644,10.1205037 C12.8258224,10.5320496 13.2607759,11.0969252 13.2607759,11.8515742 L13.2607759,12.7404423 L15.912931,12.7404423 L15.912931,11.6293572 C15.912931,10.592937 13.8504384,10.0738381 12.81875,10.0738381 L12.81875,10.0738381 Z" id="Imported-Layers" fill="#FFFFFF"></path>
                            <g id="imoticon_3-path-+-imoticon_3-path-+-imoticon_3-path-3" transform="translate(16.502299, 8.592391)" fill="#9B9B9B">
                                <path d="M1.03139368,1.48144678 C1.62211386,1.48144678 2.06278736,1.11802218 2.06278736,0.649182168 C2.06278736,0.599246291 1.62211386,0.763130888 1.03139368,0.763130888 C0.4406735,0.763130888 0,0.599246291 0,0.649182168 C0,1.11802218 0.4406735,1.48144678 1.03139368,1.48144678 L1.03139368,1.48144678 Z" id="imoticon_3-path"></path>
                                <path id="imoticon_3-path" d="M0.592096371,0.336692449 C0.687033542,0.336692449 0.763995317,0.261321282 0.763995317,0.168346225 C0.763995317,0.075371167 0.687033542,0 0.592096371,0 C0.497159199,0 0.420197424,0.075371167 0.420197424,0.168346225 C0.420197424,0.261321282 0.497159199,0.336692449 0.592096371,0.336692449 L0.592096371,0.336692449 Z"></path>
                                <path id="imoticon_3-path" d="M1.47069099,0.336692449 C1.56562816,0.336692449 1.64258993,0.261321282 1.64258993,0.168346225 C1.64258993,0.075371167 1.56562816,0 1.47069099,0 C1.37575381,0 1.29879204,0.075371167 1.29879204,0.168346225 C1.29879204,0.261321282 1.37575381,0.336692449 1.47069099,0.336692449 L1.47069099,0.336692449 Z"></path>
                            </g>
                        </g>
                        <g id="video-3-+-Oval-67-+-Oval-68-+-Shape-3" transform="translate(36.372414, 0.000000)">
                            <g id="video-3">
                                <path d="M18.1862069,2.39327804 L18.1862069,20.485183 C18.1862069,20.8948156 17.8569369,21.2282609 17.4507617,21.2282609 L0.735445204,21.2282609 C0.3311802,21.2282609 0,20.8955736 0,20.485183 L0,0.743077823 C0,0.333445286 0.329270034,0 0.735445204,0 L15.7400606,0 L14.0293596,-8.8817842e-16 L16.1077833,2.02173913 L18.1862069,4.04347826 L18.1862069,2.39327804 Z" id="Rectangle-9" fill="#ECB330"></path>
                                <path d="M14.0293596,0 L14.0293596,3.2492527 C14.0293596,3.25758672 14.0295095,3.26592023 14.0298091,3.27425012 C14.0455804,3.7126672 14.4643747,4.05688276 14.9652124,4.04307708 L18.1862069,4.04307708 L14.0293596,0 Z" id="Path-20" fill="#F2C85A"></path>
                            </g>
                            <g id="Oval-67-+-Oval-68-+-Shape-3" transform="translate(6.062069, 10.108696)" fill="#FFFFFF">
                                <ellipse id="Oval-67" cx="1.01034483" cy="1.01086957" rx="1.01034483" ry="1.01086957"></ellipse>
                                <ellipse id="Oval-68" cx="5.05172414" cy="1.01086957" rx="1.01034483" ry="1.01086957"></ellipse>
                                <path d="M5.53576031,6.06521739 C5.35023015,6.06521739 5.17008808,5.94728142 5.07417994,5.73890638 C4.66396609,4.84633082 3.88071628,4.29166654 3.03083366,4.29166654 C2.18077144,4.29166654 1.39770123,4.84633082 0.98748739,5.73890638 C0.847396848,6.04352061 0.527343841,6.15479718 0.272846024,5.98702305 C0.0181686029,5.81967856 -0.0748658851,5.43686998 0.0652246567,5.13225574 C0.660429856,3.8371082 1.79695928,3.0326087 3.03101327,3.0326087 C4.26488765,3.0326087 5.40159668,3.83732302 5.99680188,5.13225574 C6.13689242,5.43686998 6.04403753,5.81946374 5.78936011,5.98702305 C5.70853865,6.04008349 5.62161067,6.06521739 5.53576031,6.06521739 L5.53576031,6.06521739 L5.53576031,6.06521739 Z" id="Shape" transform="translate(3.031034, 4.548913) rotate(-180.000000) translate(-3.031034, -4.548913) "></path>
                            </g>
                        </g>
                        <g id="video-4-+-Oval-67-+-Oval-68-+-Shape-4" transform="translate(70.724138, 0.000000)">
                            <g id="video-4">
                                <path d="M18.1862069,2.39327804 L18.1862069,20.485183 C18.1862069,20.8948156 17.8569369,21.2282609 17.4507617,21.2282609 L0.735445204,21.2282609 C0.3311802,21.2282609 0,20.8955736 0,20.485183 L0,0.743077823 C0,0.333445286 0.329270034,0 0.735445204,0 L15.7400606,0 L14.0293596,-8.8817842e-16 L16.1077833,2.02173913 L18.1862069,4.04347826 L18.1862069,2.39327804 Z" id="Rectangle-9" fill="#53B9D1"></path>
                                <path d="M14.0293596,0 L14.0293596,3.2492527 C14.0293596,3.25758672 14.0295095,3.26592023 14.0298091,3.27425012 C14.0455804,3.7126672 14.4643747,4.05688276 14.9652124,4.04307708 L18.1862069,4.04307708 L14.0293596,0 Z" id="Path-20" fill="#73CDDE"></path>
                            </g>
                            <g id="Oval-67-+-Oval-68-+-Shape-4" transform="translate(6.062069, 10.108696)" fill="#FFFFFF">
                                <ellipse id="Oval-67" cx="1.01034483" cy="1.01086957" rx="1.01034483" ry="1.01086957"></ellipse>
                                <ellipse id="Oval-68" cx="5.05172414" cy="1.01086957" rx="1.01034483" ry="1.01086957"></ellipse>
                                <path d="M5.53576031,6.06521739 C5.35023015,6.06521739 5.17008808,5.94728142 5.07417994,5.73890638 C4.66396609,4.84633082 3.88071628,4.29166654 3.03083366,4.29166654 C2.18077144,4.29166654 1.39770123,4.84633082 0.98748739,5.73890638 C0.847396848,6.04352061 0.527343841,6.15479718 0.272846024,5.98702305 C0.0181686029,5.81967856 -0.0748658851,5.43686998 0.0652246567,5.13225574 C0.660429856,3.8371082 1.79695928,3.0326087 3.03101327,3.0326087 C4.26488765,3.0326087 5.40159668,3.83732302 5.99680188,5.13225574 C6.13689242,5.43686998 6.04403753,5.81946374 5.78936011,5.98702305 C5.70853865,6.04008349 5.62161067,6.06521739 5.53576031,6.06521739 L5.53576031,6.06521739 L5.53576031,6.06521739 Z" id="Shape" transform="translate(3.031034, 4.548913) rotate(-180.000000) translate(-3.031034, -4.548913) "></path>
                            </g>
                        </g>
                        <g id="video-5-+-Oval-67-+-Oval-68-+-Shape-5" transform="translate(105.075862, 0.000000)">
                            <g id="video-5">
                                <path d="M18.1862069,2.39327804 L18.1862069,20.485183 C18.1862069,20.8948156 17.8569369,21.2282609 17.4507617,21.2282609 L0.735445204,21.2282609 C0.3311802,21.2282609 0,20.8955736 0,20.485183 L0,0.743077823 C0,0.333445286 0.329270034,0 0.735445204,0 L15.7400606,0 L14.0293596,-8.8817842e-16 L16.1077833,2.02173913 L18.1862069,4.04347826 L18.1862069,2.39327804 Z" id="Rectangle-9" fill="#D5456B"></path>
                                <path d="M14.0293596,0 L14.0293596,3.2492527 C14.0293596,3.25758672 14.0295095,3.26592023 14.0298091,3.27425012 C14.0455804,3.7126672 14.4643747,4.05688276 14.9652124,4.04307708 L18.1862069,4.04307708 L14.0293596,0 Z" id="Path-20" fill="#DE7396"></path>
                            </g>
                            <g id="Oval-67-+-Oval-68-+-Shape-5" transform="translate(6.062069, 10.108696)" fill="#FFFFFF">
                                <ellipse id="Oval-67" cx="1.01034483" cy="1.01086957" rx="1.01034483" ry="1.01086957"></ellipse>
                                <ellipse id="Oval-68" cx="5.05172414" cy="1.01086957" rx="1.01034483" ry="1.01086957"></ellipse>
                                <path d="M5.53576031,6.06521739 C5.35023015,6.06521739 5.17008808,5.94728142 5.07417994,5.73890638 C4.66396609,4.84633082 3.88071628,4.29166654 3.03083366,4.29166654 C2.18077144,4.29166654 1.39770123,4.84633082 0.98748739,5.73890638 C0.847396848,6.04352061 0.527343841,6.15479718 0.272846024,5.98702305 C0.0181686029,5.81967856 -0.0748658851,5.43686998 0.0652246567,5.13225574 C0.660429856,3.8371082 1.79695928,3.0326087 3.03101327,3.0326087 C4.26488765,3.0326087 5.40159668,3.83732302 5.99680188,5.13225574 C6.13689242,5.43686998 6.04403753,5.81946374 5.78936011,5.98702305 C5.70853865,6.04008349 5.62161067,6.06521739 5.53576031,6.06521739 L5.53576031,6.06521739 L5.53576031,6.06521739 Z" id="Shape" transform="translate(3.031034, 4.548913) rotate(-180.000000) translate(-3.031034, -4.548913) "></path>
                            </g>
                        </g>
                        <g id="video-6-+-Oval-67-+-Oval-68-+-Shape-6" transform="translate(2.020690, 30.326087)">
                            <g id="video-6">
                                <path d="M18.1862069,2.39327804 L18.1862069,20.485183 C18.1862069,20.8948156 17.8569369,21.2282609 17.4507617,21.2282609 L0.735445204,21.2282609 C0.3311802,21.2282609 0,20.8955736 0,20.485183 L0,0.743077823 C0,0.333445286 0.329270034,0 0.735445204,0 L15.7400606,0 L14.0293596,-8.8817842e-16 L16.1077833,2.02173913 L18.1862069,4.04347826 L18.1862069,2.39327804 Z" id="Rectangle-9" fill="#449286"></path>
                                <path d="M14.0293596,0 L14.0293596,3.2492527 C14.0293596,3.25758672 14.0295095,3.26592023 14.0298091,3.27425012 C14.0455804,3.7126672 14.4643747,4.05688276 14.9652124,4.04307708 L18.1862069,4.04307708 L14.0293596,0 Z" id="Path-20" fill="#6BB2AA"></path>
                            </g>
                            <g id="Oval-67-+-Oval-68-+-Shape-6" transform="translate(6.062069, 10.108696)" fill="#FFFFFF">
                                <ellipse id="Oval-67" cx="1.01034483" cy="1.01086957" rx="1.01034483" ry="1.01086957"></ellipse>
                                <ellipse id="Oval-68" cx="5.05172414" cy="1.01086957" rx="1.01034483" ry="1.01086957"></ellipse>
                                <path d="M5.53576031,6.06521739 C5.35023015,6.06521739 5.17008808,5.94728142 5.07417994,5.73890638 C4.66396609,4.84633082 3.88071628,4.29166654 3.03083366,4.29166654 C2.18077144,4.29166654 1.39770123,4.84633082 0.98748739,5.73890638 C0.847396848,6.04352061 0.527343841,6.15479718 0.272846024,5.98702305 C0.0181686029,5.81967856 -0.0748658851,5.43686998 0.0652246567,5.13225574 C0.660429856,3.8371082 1.79695928,3.0326087 3.03101327,3.0326087 C4.26488765,3.0326087 5.40159668,3.83732302 5.99680188,5.13225574 C6.13689242,5.43686998 6.04403753,5.81946374 5.78936011,5.98702305 C5.70853865,6.04008349 5.62161067,6.06521739 5.53576031,6.06521739 L5.53576031,6.06521739 L5.53576031,6.06521739 Z" id="Shape" transform="translate(3.031034, 4.548913) rotate(-180.000000) translate(-3.031034, -4.548913) "></path>
                            </g>
                        </g>
                    </g>
                    <g id="Imported-Layers" transform="translate(61.631034, 51.554348)" fill="#D8D8D8">
                        <path d="M30.0264925,15.3976916 L20.4209804,0 L9.8893644,0 L19.4952861,15.3976916 L30.0264925,15.3976916" id="Fill-1"></path>
                        <path d="M0.0200703635,15.8196033 L5.28628798,24.2608696 L14.8918001,8.86317799 L9.62599208,0.422290761 L0.0200703635,15.8196033 Z" id="Fill-2"></path>
                        <path d="M11.078431,15.8199823 L5.81262302,24.2608696 L25.024876,24.2608696 L30.2902745,15.8196033 L11.078431,15.8199823" id="Fill-3"></path>
                    </g>
                </g>
            </g>
            <rect id="Rectangle-182" stroke="#535351" stroke-width="8.02632499" fill="#A5EBF3" sketch:type="MSShapeGroup" x="20" y="0" width="252.530387" height="173.869565" rx="3.00987187"></rect>
            <path d="" id="Rectangle-183" fill="#535351" sketch:type="MSShapeGroup"></path>
            <g id="Rectangle-181-+-Group-2" transform="translate(28.000000, 8.000000)">
                <mask id="mask-7" sketch:name="Rectangle 181" fill="white">
                    <use xlink:href="#path-6"></use>
                </mask>
                <use id="Rectangle-181" sketch:type="MSShapeGroup" xlink:href="#path-6"></use>
                <g id="Group" mask="url(#mask-7)" stroke="#FFFFFF" stroke-width="3.00987187" sketch:type="MSShapeGroup">
                    <g transform="translate(84.868966, 11.407759)">
                        <path d="M150.889814,302.977522 C234.223957,302.977522 301.779628,235.153693 301.779628,151.488761 C301.779628,67.8238285 234.223957,0 150.889814,0 C67.5556709,0 0,67.8238285 0,151.488761 C0,235.153693 67.5556709,302.977522 150.889814,302.977522 Z" id="Oval-57" fill="#A9D9F9"></path>
                        <ellipse id="Oval-56" fill="#D1EF8B" cx="150.889814" cy="151.488761" rx="123.455302" ry="123.94535"></ellipse>
                        <ellipse id="Oval-54" fill="#F7E785" cx="150.889814" cy="151.488761" rx="96.0207908" ry="96.4019388"></ellipse>
                        <ellipse id="Oval-55" fill="#F3C2B4" cx="150.889814" cy="151.488761" rx="68.5862791" ry="68.8585277"></ellipse>
                        <ellipse id="Oval-59" fill="#A5EAF3" cx="150.889814" cy="151.488761" rx="41.1517675" ry="41.3151166"></ellipse>
                    </g>
                </g>
            </g>
            <g id="Rectangle-178-+-Rectangle-179" sketch:type="MSShapeGroup">
                <rect id="Rectangle-178" stroke="#535351" stroke-width="8.02632499" fill="#A5EBF3" x="20.137457" y="0" width="252.725086" height="173.869565" rx="3.00987187"></rect>
                <path d="M0,178.409614 L0,167.804348 L293,167.804348 L293,178.409614 L293,182.985119 C293,184.643146 291.648145,186 289.980547,186 L3.01945344,186 C1.33873374,186 0,184.650192 0,182.985119 L0,178.409614 Z" id="Rectangle-179" fill="#535351"></path>
            </g>
            <g id="Rectangle-181-+-Group" transform="translate(28.000000, 8.000000)">
                <mask id="mask-9" sketch:name="Rectangle 181" fill="white">
                    <use xlink:href="#path-8"></use>
                </mask>
                <use id="Rectangle-181" sketch:type="MSShapeGroup" xlink:href="#path-8"></use>
                <g id="rainbow" mask="url(#mask-9)" stroke="#FFFFFF" stroke-width="3.00987187" sketch:type="MSShapeGroup">
                    <g transform="translate(24.868966, 11.407759)">
                        <path d="M150.889814,302.977522 C234.223957,302.977522 301.779628,235.153693 301.779628,151.488761 C301.779628,67.8238285 234.223957,0 150.889814,0 C67.5556709,0 0,67.8238285 0,151.488761 C0,235.153693 67.5556709,302.977522 150.889814,302.977522 Z" id="Oval-57" fill="#A9D9F9"></path>
                        <ellipse id="Oval-56" fill="#D1EF8B" cx="150.889814" cy="151.488761" rx="123.455302" ry="123.94535"></ellipse>
                        <ellipse id="Oval-54" fill="#F7E785" cx="150.889814" cy="151.488761" rx="96.0207908" ry="96.4019388"></ellipse>
                        <ellipse id="Oval-55" fill="#F3C2B4" cx="150.889814" cy="151.488761" rx="68.5862791" ry="68.8585277"></ellipse>
                        <ellipse id="Oval-59" fill="#A5EAF3" cx="150.889814" cy="151.488761" rx="41.1517675" ry="41.3151166"></ellipse>
                    </g>
                </g>
            </g>
            <g id="Rectangle-9-+-Path-21-+-Oval-67-+-Oval-68-+-Shape-2" transform="translate(47.000000, 60.000000)" sketch:type="MSShapeGroup">
                <g id="Rectangle-9-+-Path-21">
                    <path d="M18.1862069,2.39327804 L18.1862069,20.485183 C18.1862069,20.8948156 17.8569369,21.2282609 17.4507617,21.2282609 L0.735445204,21.2282609 C0.3311802,21.2282609 0,20.8955736 0,20.485183 L0,0.743077823 C0,0.333445286 0.329270034,0 0.735445204,0 L15.7400606,0 L14.0293596,-8.8817842e-16 L16.1077833,2.02173913 L18.1862069,4.04347826 L18.1862069,2.39327804 Z" id="Rectangle-9" fill="#3B5BB3"></path>
                    <path d="M14.0293596,0 L14.0293596,3.2492527 C14.0293596,3.25758672 14.0295095,3.26592023 14.0298091,3.27425012 C14.0455804,3.7126672 14.4643747,4.05688276 14.9652124,4.04307708 L18.1862069,4.04307708 L14.0293596,0 Z" id="Path-20" fill="#788BC9"></path>
                </g>
                <g id="Oval-67-+-Oval-68-+-Shape-2" transform="translate(6.062069, 10.108696)" fill="#FFFFFF">
                    <ellipse id="Oval-67" cx="1.01034483" cy="1.01086957" rx="1.01034483" ry="1.01086957"></ellipse>
                    <ellipse id="Oval-68" cx="5.05172414" cy="1.01086957" rx="1.01034483" ry="1.01086957"></ellipse>
                    <path d="M5.53576031,6.06521739 C5.35023015,6.06521739 5.17008808,5.94728142 5.07417994,5.73890638 C4.66396609,4.84633082 3.88071628,4.29166654 3.03083366,4.29166654 C2.18077144,4.29166654 1.39770123,4.84633082 0.98748739,5.73890638 C0.847396848,6.04352061 0.527343841,6.15479718 0.272846024,5.98702305 C0.0181686029,5.81967856 -0.0748658851,5.43686998 0.0652246567,5.13225574 C0.660429856,3.8371082 1.79695928,3.0326087 3.03101327,3.0326087 C4.26488765,3.0326087 5.40159668,3.83732302 5.99680188,5.13225574 C6.13689242,5.43686998 6.04403753,5.81946374 5.78936011,5.98702305 C5.70853865,6.04008349 5.62161067,6.06521739 5.53576031,6.06521739 L5.53576031,6.06521739 L5.53576031,6.06521739 Z" id="Shape"></path>
                </g>
            </g>
            <g id="Rectangle-101-+-Oval-3-+-Oval-4-+-Oval-7-+-Group-+-Imported-Layers" transform="translate(96.000000, 28.000000)" sketch:type="MSShapeGroup">
                <g id="Rectangle-101-+-Oval-3-+-Oval-4-+-Oval-7" transform="translate(0.000000, 0.000000)">
                    <rect id="Rectangle-101" fill="#FFFFFF" x="-0.136360667" y="0.00304020922" width="154.719119" height="118.271739" rx="0.963158999"></rect>
                    <g id="Oval-3-+-Oval-4-+-Oval-7" transform="translate(5.671022, 6.065217)">
                        <ellipse id="Oval-3" fill="#FF8C88" cx="1.45612842" cy="1.45416073" rx="1.45612842" ry="1.45416073"></ellipse>
                        <ellipse id="Oval-4" fill="#FFC255" cx="6.30988984" cy="1.45416073" rx="1.45612842" ry="1.45416073"></ellipse>
                        <ellipse id="Oval-5" fill="#9BDC6C" cx="11.1636513" cy="1.45416073" rx="1.45612842" ry="1.45416073"></ellipse>
                    </g>
                </g>
                <g id="Group" transform="translate(16.155172, 19.206522)">
                    <g id="Group-4" transform="translate(-0.494828, 2.021739)">
                        <path d="M2.12172414,0 C0.949471552,0 0.0116694828,0.961273777 0.0116694828,2.14809783 L0,15.0366848 C0,16.2224348 0.949471552,17.1847826 2.12172414,17.1847826 L19.0955172,17.1847826 C20.266709,17.1847826 21.2172414,16.2224348 21.2172414,15.0366848 L21.2172414,4.29619565 C21.2172414,3.11044565 20.266709,2.14809783 19.0955172,2.14809783 L10.6086207,2.14809783 L8.48689655,0 L2.12172414,0 Z" id="Imported-Layers" fill="#9B9B9B" filter="url(#filter-10)"></path>
                        <path d="M8.84051724,9.18497001 C9.81695237,9.18497001 10.6086207,8.38809979 10.6086207,7.40723388 C10.6086207,6.42592354 9.81695237,5.62949775 8.84051724,5.62949775 C7.86452414,5.62949775 7.07683405,6.42592354 7.07683405,7.40723388 C7.07683405,8.38809979 7.86452414,9.18497001 8.84051724,9.18497001 L8.84051724,9.18497001 Z M12.81875,9.18497001 C13.5511869,9.18497001 14.1404073,8.58765067 14.1404073,7.85166792 C14.1404073,7.11568516 13.5511869,6.51836582 12.81875,6.51836582 C12.0867552,6.51836582 11.4926724,7.11568516 11.4926724,7.85166792 C11.4926724,8.58765067 12.0867552,9.18497001 12.81875,9.18497001 L12.81875,9.18497001 Z M8.84051724,10.0738381 C7.66163427,10.0738381 5.30431034,10.6676019 5.30431034,11.8515742 L5.30431034,12.7404423 L12.3767241,12.7404423 L12.3767241,11.8515742 C12.3767241,10.6676019 10.0194002,10.0738381 8.84051724,10.0738381 L8.84051724,10.0738381 Z M12.81875,10.0738381 C12.6414976,10.0738381 12.4328614,10.0902821 12.2109644,10.1205037 C12.8258224,10.5320496 13.2607759,11.0969252 13.2607759,11.8515742 L13.2607759,12.7404423 L15.912931,12.7404423 L15.912931,11.6293572 C15.912931,10.592937 13.8504384,10.0738381 12.81875,10.0738381 L12.81875,10.0738381 Z" id="Imported-Layers" fill="#FFFFFF"></path>
                        <g id="imoticon_3-path-+-imoticon_3-path-+-imoticon_3-path-3" transform="translate(16.502299, 8.592391)" fill="#9B9B9B">
                            <path d="M1.03139368,1.48144678 C1.62211386,1.48144678 2.06278736,1.11802218 2.06278736,0.649182168 C2.06278736,0.599246291 1.62211386,0.763130888 1.03139368,0.763130888 C0.4406735,0.763130888 0,0.599246291 0,0.649182168 C0,1.11802218 0.4406735,1.48144678 1.03139368,1.48144678 L1.03139368,1.48144678 Z" id="imoticon_3-path"></path>
                            <path id="imoticon_3-path" d="M0.592096371,0.336692449 C0.687033542,0.336692449 0.763995317,0.261321282 0.763995317,0.168346225 C0.763995317,0.075371167 0.687033542,0 0.592096371,0 C0.497159199,0 0.420197424,0.075371167 0.420197424,0.168346225 C0.420197424,0.261321282 0.497159199,0.336692449 0.592096371,0.336692449 L0.592096371,0.336692449 Z"></path>
                            <path id="imoticon_3-path" d="M1.47069099,0.336692449 C1.56562816,0.336692449 1.64258993,0.261321282 1.64258993,0.168346225 C1.64258993,0.075371167 1.56562816,0 1.47069099,0 C1.37575381,0 1.29879204,0.075371167 1.29879204,0.168346225 C1.29879204,0.261321282 1.37575381,0.336692449 1.47069099,0.336692449 L1.47069099,0.336692449 Z"></path>
                        </g>
                    </g>
                    <g id="video-3-+-Oval-67-+-Oval-68-+-Shape-3" transform="translate(35.372414, 0.000000)">
                        <g id="video-3">
                            <path d="M18.1862069,2.39327804 L18.1862069,20.485183 C18.1862069,20.8948156 17.8569369,21.2282609 17.4507617,21.2282609 L0.735445204,21.2282609 C0.3311802,21.2282609 0,20.8955736 0,20.485183 L0,0.743077823 C0,0.333445286 0.329270034,0 0.735445204,0 L15.7400606,0 L14.0293596,-8.8817842e-16 L16.1077833,2.02173913 L18.1862069,4.04347826 L18.1862069,2.39327804 Z" id="Rectangle-9" fill="#ECB330"></path>
                            <path d="M14.0293596,0 L14.0293596,3.2492527 C14.0293596,3.25758672 14.0295095,3.26592023 14.0298091,3.27425012 C14.0455804,3.7126672 14.4643747,4.05688276 14.9652124,4.04307708 L18.1862069,4.04307708 L14.0293596,0 Z" id="Path-20" fill="#F2C85A"></path>
                        </g>
                        <g id="Oval-67-+-Oval-68-+-Shape-3" transform="translate(6.062069, 10.108696)" fill="#FFFFFF">
                            <ellipse id="Oval-67" cx="1.01034483" cy="1.01086957" rx="1.01034483" ry="1.01086957"></ellipse>
                            <ellipse id="Oval-68" cx="5.05172414" cy="1.01086957" rx="1.01034483" ry="1.01086957"></ellipse>
                            <path d="M5.1362489,5.77151507 C4.72603506,4.87893951 3.94278525,4.32427523 3.09290263,4.32427523 C2.24284041,4.32427523 1.4597702,4.87893951 1.04955636,5.77151507 C0.909465814,6.0761293 0.589412807,6.18740587 0.334914989,6.01963174 C0.0802375684,5.85228725 -0.0127969196,5.46947867 0.127293622,5.16486444 C0.722498821,3.8697169 1.85902824,3.06521739 3.09308223,3.06521739 C4.32695662,3.06521739 5.46366564,3.86993172 6.05887084,5.16486444 C6.19896138,5.46947867 6.1061065,5.85207243 5.85142908,6.01963174 C5.77060761,6.07269219 5.68367964,6.09782609 5.59782928,6.09782609 C5.41229911,6.09782609 5.23215704,5.97989011 5.1362489,5.77151507 Z" id="Shape" transform="translate(3.062069, 4.565217) rotate(-180.000000) translate(-3.062069, -4.565217) "></path>
                        </g>
                    </g>
                    <g id="video-4-+-Oval-67-+-Oval-68-+-Shape-4" transform="translate(69.724138, 0.000000)">
                        <g id="video-4">
                            <path d="M18.1862069,2.39327804 L18.1862069,20.485183 C18.1862069,20.8948156 17.8569369,21.2282609 17.4507617,21.2282609 L0.735445204,21.2282609 C0.3311802,21.2282609 0,20.8955736 0,20.485183 L0,0.743077823 C0,0.333445286 0.329270034,0 0.735445204,0 L15.7400606,0 L14.0293596,-8.8817842e-16 L16.1077833,2.02173913 L18.1862069,4.04347826 L18.1862069,2.39327804 Z" id="Rectangle-9" fill="#53B9D1"></path>
                            <path d="M14.0293596,0 L14.0293596,3.2492527 C14.0293596,3.25758672 14.0295095,3.26592023 14.0298091,3.27425012 C14.0455804,3.7126672 14.4643747,4.05688276 14.9652124,4.04307708 L18.1862069,4.04307708 L14.0293596,0 Z" id="Path-20" fill="#73CDDE"></path>
                        </g>
                        <g id="Oval-67-+-Oval-68-+-Shape-4" transform="translate(6.062069, 10.108696)" fill="#FFFFFF">
                            <ellipse id="Oval-67" cx="1.01034483" cy="1.01086957" rx="1.01034483" ry="1.01086957"></ellipse>
                            <ellipse id="Oval-68" cx="5.05172414" cy="1.01086957" rx="1.01034483" ry="1.01086957"></ellipse>
                            <path d="M5.53576031,6.06521739 C5.35023015,6.06521739 5.17008808,5.94728142 5.07417994,5.73890638 C4.66396609,4.84633082 3.88071628,4.29166654 3.03083366,4.29166654 C2.18077144,4.29166654 1.39770123,4.84633082 0.98748739,5.73890638 C0.847396848,6.04352061 0.527343841,6.15479718 0.272846024,5.98702305 C0.0181686029,5.81967856 -0.0748658851,5.43686998 0.0652246567,5.13225574 C0.660429856,3.8371082 1.79695928,3.0326087 3.03101327,3.0326087 C4.26488765,3.0326087 5.40159668,3.83732302 5.99680188,5.13225574 C6.13689242,5.43686998 6.04403753,5.81946374 5.78936011,5.98702305 C5.70853865,6.04008349 5.62161067,6.06521739 5.53576031,6.06521739 L5.53576031,6.06521739 L5.53576031,6.06521739 Z" id="Shape" transform="translate(3.031034, 4.548913) rotate(-180.000000) translate(-3.031034, -4.548913) "></path>
                        </g>
                    </g>
                    <g id="video-5-+-Oval-67-+-Oval-68-+-Shape-5" transform="translate(104.075862, 0.000000)">
                        <g id="video-5">
                            <path d="M18.1862069,2.39327804 L18.1862069,20.485183 C18.1862069,20.8948156 17.8569369,21.2282609 17.4507617,21.2282609 L0.735445204,21.2282609 C0.3311802,21.2282609 0,20.8955736 0,20.485183 L0,0.743077823 C0,0.333445286 0.329270034,0 0.735445204,0 L15.7400606,0 L14.0293596,-8.8817842e-16 L16.1077833,2.02173913 L18.1862069,4.04347826 L18.1862069,2.39327804 Z" id="Rectangle-9" fill="#D5456B"></path>
                            <path d="M14.0293596,0 L14.0293596,3.2492527 C14.0293596,3.25758672 14.0295095,3.26592023 14.0298091,3.27425012 C14.0455804,3.7126672 14.4643747,4.05688276 14.9652124,4.04307708 L18.1862069,4.04307708 L14.0293596,0 Z" id="Path-20" fill="#DE7396"></path>
                        </g>
                        <g id="Oval-67-+-Oval-68-+-Shape-5" transform="translate(6.062069, 10.108696)" fill="#FFFFFF">
                            <ellipse id="Oval-67" cx="1.01034483" cy="1.01086957" rx="1.01034483" ry="1.01086957"></ellipse>
                            <ellipse id="Oval-68" cx="5.05172414" cy="1.01086957" rx="1.01034483" ry="1.01086957"></ellipse>
                            <path d="M5.53576031,6.06521739 C5.35023015,6.06521739 5.17008808,5.94728142 5.07417994,5.73890638 C4.66396609,4.84633082 3.88071628,4.29166654 3.03083366,4.29166654 C2.18077144,4.29166654 1.39770123,4.84633082 0.98748739,5.73890638 C0.847396848,6.04352061 0.527343841,6.15479718 0.272846024,5.98702305 C0.0181686029,5.81967856 -0.0748658851,5.43686998 0.0652246567,5.13225574 C0.660429856,3.8371082 1.79695928,3.0326087 3.03101327,3.0326087 C4.26488765,3.0326087 5.40159668,3.83732302 5.99680188,5.13225574 C6.13689242,5.43686998 6.04403753,5.81946374 5.78936011,5.98702305 C5.70853865,6.04008349 5.62161067,6.06521739 5.53576031,6.06521739 L5.53576031,6.06521739 L5.53576031,6.06521739 Z" id="Shape" transform="translate(3.031034, 4.548913) rotate(-180.000000) translate(-3.031034, -4.548913) "></path>
                        </g>
                    </g>
                    <g id="video-6-+-Oval-67-+-Oval-68-+-Shape-6" transform="translate(1.020690, 30.326087)">
                        <g id="video-6" transform="translate(0.000000, 0.000000)">
                            <path d="M18.1862069,2.39327804 L18.1862069,20.485183 C18.1862069,20.8948156 17.8569369,21.2282609 17.4507617,21.2282609 L0.735445204,21.2282609 C0.3311802,21.2282609 0,20.8955736 0,20.485183 L0,0.743077823 C0,0.333445286 0.329270034,0 0.735445204,0 L15.7400606,0 L14.0293596,-8.8817842e-16 L16.1077833,2.02173913 L18.1862069,4.04347826 L18.1862069,2.39327804 Z" id="Rectangle-9" fill="#449286"></path>
                            <path d="M14.0293596,0 L14.0293596,3.2492527 C14.0293596,3.25758672 14.0295095,3.26592023 14.0298091,3.27425012 C14.0455804,3.7126672 14.4643747,4.05688276 14.9652124,4.04307708 L18.1862069,4.04307708 L14.0293596,0 Z" id="Path-20" fill="#6BB2AA"></path>
                        </g>
                        <g id="Oval-67-+-Oval-68-+-Shape-6" transform="translate(6.062069, 10.108696)" fill="#FFFFFF">
                            <ellipse id="Oval-67" cx="1.01034483" cy="1.01086957" rx="1.01034483" ry="1.01086957"></ellipse>
                            <ellipse id="Oval-68" cx="5.05172414" cy="1.01086957" rx="1.01034483" ry="1.01086957"></ellipse>
                            <path d="M5.53576031,6.06521739 C5.35023015,6.06521739 5.17008808,5.94728142 5.07417994,5.73890638 C4.66396609,4.84633082 3.88071628,4.29166654 3.03083366,4.29166654 C2.18077144,4.29166654 1.39770123,4.84633082 0.98748739,5.73890638 C0.847396848,6.04352061 0.527343841,6.15479718 0.272846024,5.98702305 C0.0181686029,5.81967856 -0.0748658851,5.43686998 0.0652246567,5.13225574 C0.660429856,3.8371082 1.79695928,3.0326087 3.03101327,3.0326087 C4.26488765,3.0326087 5.40159668,3.83732302 5.99680188,5.13225574 C6.13689242,5.43686998 6.04403753,5.81946374 5.78936011,5.98702305 C5.70853865,6.04008349 5.62161067,6.06521739 5.53576031,6.06521739 L5.53576031,6.06521739 L5.53576031,6.06521739 Z" id="Shape" transform="translate(3.031034, 4.548913) rotate(-180.000000) translate(-3.031034, -4.548913) "></path>
                        </g>
                    </g>
                </g>
                <g id="Imported-Layers" transform="translate(61.631034, 51.554348)" fill="#9B9B9B">
                    <path d="M30.0264925,15.3976916 L20.4209804,0 L9.8893644,0 L19.4952861,15.3976916 L30.0264925,15.3976916" id="Fill-1"></path>
                    <path d="M0.0200703635,15.8196033 L5.28628798,24.2608696 L14.8918001,8.86317799 L9.62599208,0.422290761 L0.0200703635,15.8196033 Z" id="Fill-2"></path>
                    <path d="M11.078431,15.8199823 L5.81262302,24.2608696 L25.024876,24.2608696 L30.2902745,15.8196033 L11.078431,15.8199823" id="Fill-3"></path>
                </g>
            </g>
            <g id="Oval-70-+-Oval-69-+-Shape-3" transform="translate(154.000000, 58.000000)"></g>
        </g>
    </g>
</svg>