<?xml version="1.0" encoding="UTF-8" standalone="no"?>
<svg width="150px" height="97px" viewBox="0 0 150 97" version="1.1" xmlns="http://www.w3.org/2000/svg" xmlns:xlink="http://www.w3.org/1999/xlink" xmlns:sketch="http://www.bohemiancoding.com/sketch/ns">
    <!-- Generator: Sketch Beta 3.0.2 (7799) - http://www.bohemiancoding.com/sketch -->
    <title>Rectangle 186 + Rectangle 185 + Group</title>
    <description>Created with Sketch Beta.</description>
    <defs></defs>
    <g id="Page-1" stroke="none" stroke-width="1" fill="none" fill-rule="evenodd" sketch:type="MSPage">
        <g id="c-08" sketch:type="MSArtboardGroup" transform="translate(-515.000000, -271.703527)">
            <g id="Rectangle-186-+-Rectangle-185-+-Group" sketch:type="MSLayerGroup" transform="translate(516.000000, 273.000000)">
                <g id="Rectangle-186-+-Rectangle-185" transform="translate(-0.302336, -0.015201)" sketch:type="MSShapeGroup">
                    <rect id="Rectangle-186" stroke="#535351" stroke-width="4.0131625" fill="#4793FA" x="10.1091614" y="0" width="127.473639" height="87.5425296" rx="1.50493594"></rect>
                    <path d="M-1.13686838e-13,90.2242672 L-1.13686838e-13,84.9169558 L148.604673,84.9169558 L148.604673,90.2242672 L148.604673,92.514038 C148.604673,93.3437827 147.929954,94.0228083 147.097647,94.0228083 L1.50702612,94.0228083 C0.678983241,94.0228083 -1.13686838e-13,93.3473088 -1.13686838e-13,92.514038 L-1.13686838e-13,90.2242672 Z" id="Rectangle-185" fill="#535351"></path>
                </g>
                <g id="Group" transform="translate(19.000000, 4.000000)" sketch:type="MSShapeGroup">
                    <rect id="Rectangle-53" fill="#4793FA" x="0.010809452" y="0.0385071303" width="109.856209" height="79.8207982"></rect>
                    <polygon id="Triangle-3" fill="#4C86EB" points="46.013097 52.0955494 67.2977376 79.8593053 24.7284565 79.8593053 "></polygon>
                    <polygon id="Triangle-3" fill="#34B946" points="67.2977376 61.1187701 82.0596657 79.8593053 52.5358095 79.8593053 "></polygon>
                    <polygon id="Triangle-3" fill="#ABCCFF" points="46.013097 52.0955494 53.5657114 61.812864 38.4604827 61.812864 "></polygon>
                    <polygon id="Triangle-3" fill="#4C86EB" points="67.4693879 60.4246762 82.4029663 79.8593053 52.5358095 79.8593053 "></polygon>
                    <polygon id="Triangle-3" fill="#5C50AF" points="21.29545 52.0955494 42.5800905 79.8593053 0.010809452 79.8593053 "></polygon>
                    <polygon id="Triangle-3" fill="#5C50AF" points="88.5823781 52.0955494 109.867019 79.8593053 67.2977376 79.8593053 "></polygon>
                    <polygon id="Triangle-3" fill="#ABCCFF" points="67.4693879 60.4246762 72.790548 67.3656151 62.1482278 67.3656151 "></polygon>
                    <polygon id="Triangle-3" fill="#ABCCFF" points="21.29545 52.0955494 28.8480644 61.812864 13.7428356 61.812864 "></polygon>
                    <polygon id="Triangle-3" fill="#ABCCFF" points="88.5823781 52.0955494 96.1349925 61.812864 81.0297637 61.812864 "></polygon>
                    <ellipse id="Oval-22" fill="#ABCCFF" cx="12.0263323" cy="13.2262912" rx="1.02990196" ry="1.04114085"></ellipse>
                    <ellipse id="Oval-22" fill="#ABCCFF" cx="24.0418552" cy="21.208371" rx="1.02990196" ry="1.04114085"></ellipse>
                    <ellipse id="Oval-22" fill="#ABCCFF" cx="41.8934892" cy="7.32649305" rx="1.02990196" ry="1.04114085"></ellipse>
                    <path d="M85.1493715,27.802263 C85.7181707,27.802263 86.1792735,27.3361284 86.1792735,26.7611222 C86.1792735,26.1861159 85.7181707,25.7199813 85.1493715,25.7199813 C84.5805724,25.7199813 84.1194696,26.1861159 84.1194696,26.7611222 C84.1194696,27.3361284 84.5805724,27.802263 85.1493715,27.802263 Z" id="Oval-22" fill="#ABCCFF"></path>
                    <path d="M70.3874434,51.7485025 C70.9562426,51.7485025 71.4173454,51.2823679 71.4173454,50.7073616 C71.4173454,50.1323554 70.9562426,49.6662208 70.3874434,49.6662208 C69.8186443,49.6662208 69.3575415,50.1323554 69.3575415,50.7073616 C69.3575415,51.2823679 69.8186443,51.7485025 70.3874434,51.7485025 Z" id="Oval-22" fill="#ABCCFF"></path>
                    <ellipse id="Oval-22" fill="#ABCCFF" cx="79.9998617" cy="22.2495118" rx="1.02990196" ry="1.04114085"></ellipse>
                    <ellipse id="Oval-22" fill="#ABCCFF" cx="100.597901" cy="11.1440095" rx="1.02990196" ry="1.04114085"></ellipse>
                    <ellipse id="Oval-22" fill="#ABCCFF" cx="62.4915284" cy="21.208371" rx="1.02990196" ry="1.04114085"></ellipse>
                    <ellipse id="Oval-22" fill="#ABCCFF" cx="40.8635872" cy="38.9077654" rx="1.02990196" ry="1.04114085"></ellipse>
                    <path d="M10.9964304,49.6662208 C11.5652295,49.6662208 12.0263323,49.2000862 12.0263323,48.6250799 C12.0263323,48.0500737 11.5652295,47.5839391 10.9964304,47.5839391 C10.4276312,47.5839391 9.96652841,48.0500737 9.96652841,48.6250799 C9.96652841,49.2000862 10.4276312,49.6662208 10.9964304,49.6662208 Z" id="Oval-22" fill="#ABCCFF"></path>
                    <path d="M65.9245349,4.20307051 C66.4933341,4.20307051 66.9544369,3.73693591 66.9544369,3.16192967 C66.9544369,2.58692343 66.4933341,2.12078882 65.9245349,2.12078882 C65.3557358,2.12078882 64.894633,2.58692343 64.894633,3.16192967 C64.894633,3.73693591 65.3557358,4.20307051 65.9245349,4.20307051 Z" id="Oval-22" fill="#ABCCFF"></path>
                    <path d="M106.090711,50.7073616 C106.659511,50.7073616 107.120613,50.241227 107.120613,49.6662208 C107.120613,49.0912145 106.659511,48.6250799 106.090711,48.6250799 C105.521912,48.6250799 105.060809,49.0912145 105.060809,49.6662208 C105.060809,50.241227 105.521912,50.7073616 106.090711,50.7073616 Z" id="Oval-22" fill="#ABCCFF"></path>
                </g>
            </g>
        </g>
    </g>
</svg>