<?xml version="1.0" encoding="UTF-8" standalone="no"?>
<svg width="12px" height="18px" viewBox="0 0 12 18" version="1.1" xmlns="http://www.w3.org/2000/svg" xmlns:xlink="http://www.w3.org/1999/xlink" xmlns:sketch="http://www.bohemiancoding.com/sketch/ns">
    <!-- Generator: Sketch Beta 3.0.2 (7799) - http://www.bohemiancoding.com/sketch -->
    <title>mouse</title>
    <description>Created with Sketch Beta.</description>
    <defs></defs>
    <g id="Page-1" stroke="none" stroke-width="1" fill="none" fill-rule="evenodd" sketch:type="MSPage">
        <g id="b-05" sketch:type="MSArtboardGroup" transform="translate(-1114.000000, -510.000000)" stroke="#4A4A4A" stroke-width="2" fill="#4A4A4A">
            <g id="mouse" sketch:type="MSLayerGroup" transform="translate(1115.000000, 511.000000)">
                <path d="M9.88017772,9.5252221 L5.82954864,9.62160869 C5.62546742,9.62630623 5.4372321,9.73243587 5.32752974,9.90433109 C5.21782738,10.0764003 5.20076256,10.2916173 5.28260401,10.478475 L7.47090491,15.488142 C7.49754691,15.549036 7.46986013,15.621239 7.40926263,15.6485543 L6.65823679,15.9890391 C6.64204263,15.9965203 6.62515195,16 6.60791301,16 C6.57099729,16 6.52241482,15.9819058 6.49733999,15.9312767 L4.05742018,10.9635397 C3.97035481,10.786077 3.80284105,10.6618531 3.60781463,10.6293183 C3.57438153,10.6239248 3.5407743,10.6209671 3.5073412,10.6209671 C3.34627027,10.6209671 3.190075,10.6844709 3.07427807,10.8003436 L0.209305139,13.6618423 C0.177961608,13.6933332 0.141394154,13.6976828 0.122413904,13.6976828 C0.106393877,13.6976828 0.0908962419,13.6945511 0.0757468683,13.6882877 C0.0297763551,13.6693235 0,13.6251318 0,13.5755467 L0.00731349073,0.122310059 C0.00731349073,0.0732468493 0.0365674537,0.0292291465 0.0820155746,0.00991703185 C0.0969908176,0.00330567728 0.113184976,0 0.129901526,0 C0.148011122,0 0.183533791,0.00452355839 0.214529061,0.0337527049 L9.96184503,9.31452867 C9.99789009,9.34897731 10.009731,9.40117221 9.99162138,9.44727771 C9.97386005,9.49355719 9.92997911,9.5241782 9.88017772,9.5252221 Z" id="Shape-2" sketch:type="MSShapeGroup"></path>
            </g>
        </g>
    </g>
</svg>