<?xml version="1.0" encoding="UTF-8" standalone="no"?>
<svg width="42px" height="50px" viewBox="0 0 42 50" version="1.1" xmlns="http://www.w3.org/2000/svg" xmlns:xlink="http://www.w3.org/1999/xlink" xmlns:sketch="http://www.bohemiancoding.com/sketch/ns">
    <!-- Generator: Sketch Beta 3.0.2 (7799) - http://www.bohemiancoding.com/sketch -->
    <title>pdf</title>
    <description>Created with Sketch Beta.</description>
    <defs></defs>
    <g id="Page-1" stroke="none" stroke-width="1" fill="none" fill-rule="evenodd" sketch:type="MSPage">
        <g id="pdf" sketch:type="MSLayerGroup">
            <g id="Group-+-Shape" sketch:type="MSShapeGroup">
                <g id="Group">
                    <path d="M42,5.66643742 L42,48.1909347 C42,49.1943677 41.1920139,50 40.1953125,50 L1.8046875,50 C0.801501989,50 0,49.1900539 0,48.1909347 L0,1.80906532 C0,0.805632304 0.807986116,0 1.8046875,0 L36.2976563,0 L32.4,0 L37.2,4.76190476 L42,9.52380952 L42,5.66643742 Z" id="Rectangle-9" fill="#E6E7E8"></path>
                    <path d="M32.4,0 L32.4,7.65312975 C32.4,7.6727593 32.4003461,7.69238763 32.4010381,7.71200746 C32.437461,8.74463345 33.4046424,9.55538181 34.5612983,9.5228646 L42,9.5228646 L32.4,0 Z" id="Path-18" fill="#F1F2F2"></path>
                </g>
                <path d="M13.1979555,36.3095238 L13.1977951,36.3095238 C12.8993362,36.3095238 12.6125909,36.2125233 12.3684483,36.0292107 C11.4750773,35.3580023 11.3551321,34.6110098 11.4118554,34.1023798 C11.567744,32.7037878 13.2946338,31.2391359 16.5457501,29.7473206 C17.8357024,26.9155799 19.0633154,23.425891 19.7952618,20.5103295 C18.9391179,18.6436919 18.1074445,16.2224555 18.7138296,14.801924 C18.9262008,14.3043843 19.2997558,13.9541537 19.7940583,13.789084 C19.9899822,13.7236669 20.1813329,13.6904762 20.3627349,13.6904762 C20.7952597,13.6904762 21.1817319,13.8797357 21.451067,14.2234568 C21.704356,14.5466848 22.4666297,15.519503 21.3194081,20.3562698 C22.4756958,22.7482534 24.1138502,25.1850002 25.6838886,26.8536185 C26.8085653,26.6495718 27.7761499,26.5463028 28.5644986,26.5463028 C29.9078045,26.5463028 30.7221481,26.860128 31.0537424,27.5057 C31.328453,28.0402879 31.2158088,28.6646435 30.7189389,29.3613276 C30.2413243,30.0310894 29.5827089,30.3850972 28.8142574,30.3850972 C27.7709348,30.3850972 26.5567205,29.7248184 25.2016207,28.4217001 C22.7675758,28.9308927 19.9255568,29.8403029 17.6285463,30.8463922 C16.9112821,32.3708357 16.2241044,33.5987324 15.5843433,34.4989006 C14.7066975,35.7341909 13.9482749,36.3095238 13.1979555,36.3095238 L13.1979555,36.3095238 Z M15,32.1428571 C13.3315437,33.1830696 12.6517211,34.0377613 12.6032458,34.5193052 C12.5952883,34.5988604 12.5741898,34.8083611 12.9393609,35.1190476 C13.0556578,35.0781358 13.7350424,34.7344769 15,32.1428571 L15,32.1428571 Z M27,28.1179186 C27.7762001,28.7959074 28.4626604,29.1666667 28.9706214,29.1666667 C29.1937678,29.1666667 29.4874941,29.1068798 29.7810421,28.6404212 C29.923182,28.4145261 29.9785231,28.2691561 30,28.1918682 C29.8830798,28.1210547 29.5403398,27.9761905 28.6932034,27.9761905 C28.2121554,27.9761905 27.6403874,28.0244448 27,28.1179186 L27,28.1179186 Z M20.8228663,22.6190476 C20.2281012,24.7607846 19.4434001,27.0726138 18.6,29.1666667 C20.3371026,28.4642773 22.2259675,27.8519939 24,27.4178985 C22.8777211,26.060804 21.7566085,24.3660347 20.8228663,22.6190476 L20.8228663,22.6190476 Z M20.2267891,14.8809524 C20.2059942,14.8842158 20.1762496,14.8907428 20.1361515,14.9037966 C20.0444611,14.9337689 19.9704945,14.9831502 19.9074957,15.1274296 C19.666205,15.6798991 19.8565176,16.7293595 20.2260871,17.8571429 C20.5323069,15.9135801 20.3696331,15.088268 20.2267891,14.8809524 L20.2267891,14.8809524 Z" id="Shape" fill="#FB4C2F"></path>
            </g>
        </g>
    </g>
</svg>