<?xml version="1.0" encoding="UTF-8" standalone="no"?>
<svg width="41px" height="68px" viewBox="0 0 41 68" version="1.1" xmlns="http://www.w3.org/2000/svg" xmlns:xlink="http://www.w3.org/1999/xlink" xmlns:sketch="http://www.bohemiancoding.com/sketch/ns">
    <!-- Generator: Sketch Beta 3.0.2 (7799) - http://www.bohemiancoding.com/sketch -->
    <title>Rectangle 1027 + Group 3</title>
    <description>Created with Sketch Beta.</description>
    <defs></defs>
    <g id="Page-1" stroke="none" stroke-width="1" fill="none" fill-rule="evenodd" sketch:type="MSPage">
        <g id="c-08" sketch:type="MSArtboardGroup" transform="translate(-701.000000, -283.703527)">
            <g id="Rectangle-1027-+-Group-3" sketch:type="MSLayerGroup" transform="translate(701.000000, 284.000000)">
                <rect id="Rectangle-1027" stroke="#535351" stroke-width="3" fill="#000000" sketch:type="MSShapeGroup" x="0" y="0" width="41" height="67" rx="3"></rect>
                <g id="Group-2" transform="translate(3.000000, 20.000000)" sketch:type="MSShapeGroup">
                    <rect id="Rectangle-53" fill="#4793FA" x="0.00343937109" y="0.0125148173" width="34.9542484" height="25.9417594"></rect>
                    <polygon id="Triangle-3" fill="#4C86EB" points="14.6405309 16.9310536 21.4129165 25.9542742 7.86814525 25.9542742 "></polygon>
                    <polygon id="Triangle-3" fill="#34B946" points="21.4129165 19.8636003 26.1098936 25.9542742 16.7159394 25.9542742 "></polygon>
                    <polygon id="Triangle-3" fill="#ABCCFF" points="14.6405309 16.9310536 17.0436354 20.0891808 12.2374263 20.0891808 "></polygon>
                    <polygon id="Triangle-3" fill="#4C86EB" points="21.4675325 19.6380198 26.2191256 25.9542742 16.7159394 25.9542742 "></polygon>
                    <polygon id="Triangle-3" fill="#5C50AF" points="6.77582499 16.9310536 13.5482106 25.9542742 0.00343937109 25.9542742 "></polygon>
                    <polygon id="Triangle-3" fill="#5C50AF" points="28.1853021 16.9310536 34.9576877 25.9542742 21.4129165 25.9542742 "></polygon>
                    <polygon id="Triangle-3" fill="#ABCCFF" points="21.4675325 19.6380198 23.1606289 21.8938249 19.7744361 21.8938249 "></polygon>
                    <polygon id="Triangle-3" fill="#ABCCFF" points="6.77582499 16.9310536 9.17892957 20.0891808 4.37272042 20.0891808 "></polygon>
                    <polygon id="Triangle-3" fill="#ABCCFF" points="28.1853021 16.9310536 30.5884067 20.0891808 25.7821975 20.0891808 "></polygon>
                    <ellipse id="Oval-22" fill="#ABCCFF" cx="3.82656029" cy="4.29854463" rx="0.327696078" ry="0.338370775"></ellipse>
                    <ellipse id="Oval-22" fill="#ABCCFF" cx="7.6496812" cy="6.89272057" rx="0.327696078" ry="0.338370775"></ellipse>
                    <ellipse id="Oval-22" fill="#ABCCFF" cx="13.3297466" cy="2.38111024" rx="0.327696078" ry="0.338370775"></ellipse>
                    <path d="M27.0929819,9.03573548 C27.2739634,9.03573548 27.4206779,8.88424173 27.4206779,8.6973647 C27.4206779,8.51048768 27.2739634,8.35899393 27.0929819,8.35899393 C26.9120003,8.35899393 26.7652858,8.51048768 26.7652858,8.6973647 C26.7652858,8.88424173 26.9120003,9.03573548 27.0929819,9.03573548 Z" id="Oval-22" fill="#ABCCFF"></path>
                    <path d="M22.3960047,16.8182633 C22.5769863,16.8182633 22.7237008,16.6667696 22.7237008,16.4798925 C22.7237008,16.2930155 22.5769863,16.1415218 22.3960047,16.1415218 C22.2150232,16.1415218 22.0683087,16.2930155 22.0683087,16.4798925 C22.0683087,16.6667696 22.2150232,16.8182633 22.3960047,16.8182633 Z" id="Oval-22" fill="#ABCCFF"></path>
                    <ellipse id="Oval-22" fill="#ABCCFF" cx="25.4545015" cy="7.23109135" rx="0.327696078" ry="0.338370775"></ellipse>
                    <ellipse id="Oval-22" fill="#ABCCFF" cx="32.008423" cy="3.62180308" rx="0.327696078" ry="0.338370775"></ellipse>
                    <ellipse id="Oval-22" fill="#ABCCFF" cx="19.8836681" cy="6.89272057" rx="0.327696078" ry="0.338370775"></ellipse>
                    <ellipse id="Oval-22" fill="#ABCCFF" cx="13.0020505" cy="12.6450237" rx="0.327696078" ry="0.338370775"></ellipse>
                    <path d="M3.49886421,16.1415218 C3.67984576,16.1415218 3.82656029,15.990028 3.82656029,15.803151 C3.82656029,15.6162739 3.67984576,15.4647802 3.49886421,15.4647802 C3.31788265,15.4647802 3.17116813,15.6162739 3.17116813,15.803151 C3.17116813,15.990028 3.31788265,16.1415218 3.49886421,16.1415218 Z" id="Oval-22" fill="#ABCCFF"></path>
                    <path d="M20.9759884,1.36599792 C21.1569699,1.36599792 21.3036845,1.21450417 21.3036845,1.02762714 C21.3036845,0.840750114 21.1569699,0.689256367 20.9759884,0.689256367 C20.7950068,0.689256367 20.6482923,0.840750114 20.6482923,1.02762714 C20.6482923,1.21450417 20.7950068,1.36599792 20.9759884,1.36599792 Z" id="Oval-22" fill="#ABCCFF"></path>
                    <path d="M33.7561354,16.4798925 C33.937117,16.4798925 34.0838315,16.3283988 34.0838315,16.1415218 C34.0838315,15.9546447 33.937117,15.803151 33.7561354,15.803151 C33.5751539,15.803151 33.4284394,15.9546447 33.4284394,16.1415218 C33.4284394,16.3283988 33.5751539,16.4798925 33.7561354,16.4798925 Z" id="Oval-22" fill="#ABCCFF"></path>
                </g>
            </g>
        </g>
    </g>
</svg>