<?xml version="1.0" encoding="UTF-8" standalone="no"?>
<svg width="248px" height="131px" viewBox="0 0 248 131" version="1.1" xmlns="http://www.w3.org/2000/svg" xmlns:xlink="http://www.w3.org/1999/xlink" xmlns:sketch="http://www.bohemiancoding.com/sketch/ns">
    <!-- Generator: Sketch Beta 3.0.2 (7799) - http://www.bohemiancoding.com/sketch -->
    <title>Group</title>
    <description>Created with Sketch Beta.</description>
    <defs></defs>
    <g id="Page-1" stroke="none" stroke-width="1" fill="none" fill-rule="evenodd" sketch:type="MSPage">
        <g id="c-10" sketch:type="MSArtboardGroup" transform="translate(-1155.000000, -485.751146)" fill="#ABCCFF">
            <g id="Group" sketch:type="MSLayerGroup" transform="translate(1155.000000, 487.000000)">
                <ellipse id="Oval-22" sketch:type="MSShapeGroup" cx="5.61248229" cy="28.3883571" rx="2.62156863" ry="2.7069662"></ellipse>
                <ellipse id="Oval-22" sketch:type="MSShapeGroup" cx="36.1974496" cy="49.1417646" rx="2.62156863" ry="2.7069662"></ellipse>
                <ellipse id="Oval-22" sketch:type="MSShapeGroup" cx="81.6379725" cy="13.0488819" rx="2.62156863" ry="2.7069662"></ellipse>
                <path d="M191.743855,66.2858838 C193.191707,66.2858838 194.365423,65.0739339 194.365423,63.5789176 C194.365423,62.0839014 193.191707,60.8719514 191.743855,60.8719514 C190.296002,60.8719514 189.122286,62.0839014 189.122286,63.5789176 C189.122286,65.0739339 190.296002,66.2858838 191.743855,66.2858838 Z" id="Oval-22" sketch:type="MSShapeGroup"></path>
                <path d="M154.168038,128.546106 C155.61589,128.546106 156.789606,127.334156 156.789606,125.83914 C156.789606,124.344124 155.61589,123.132174 154.168038,123.132174 C152.720185,123.132174 151.546469,124.344124 151.546469,125.83914 C151.546469,127.334156 152.720185,128.546106 154.168038,128.546106 Z" id="Oval-22" sketch:type="MSShapeGroup"></path>
                <ellipse id="Oval-22" sketch:type="MSShapeGroup" cx="178.636012" cy="51.8487308" rx="2.62156863" ry="2.7069662"></ellipse>
                <ellipse id="Oval-22" sketch:type="MSShapeGroup" cx="231.067384" cy="22.9744247" rx="2.62156863" ry="2.7069662"></ellipse>
                <ellipse id="Oval-22" sketch:type="MSShapeGroup" cx="134.069345" cy="49.1417646" rx="2.62156863" ry="2.7069662"></ellipse>
                <ellipse id="Oval-22" sketch:type="MSShapeGroup" cx="79.0164039" cy="95.1601899" rx="2.62156863" ry="2.7069662"></ellipse>
                <path d="M2.99091366,123.132174 C4.43876611,123.132174 5.61248229,121.920224 5.61248229,120.425208 C5.61248229,118.930192 4.43876611,117.718242 2.99091366,117.718242 C1.54306122,117.718242 0.369345034,118.930192 0.369345034,120.425208 C0.369345034,121.920224 1.54306122,123.132174 2.99091366,123.132174 Z" id="Oval-22" sketch:type="MSShapeGroup"></path>
                <path d="M142.807907,4.92798333 C144.25576,4.92798333 145.429476,3.71603336 145.429476,2.22101713 C145.429476,0.726000911 144.25576,-0.485949064 142.807907,-0.485949064 C141.360055,-0.485949064 140.186338,0.726000911 140.186338,2.22101713 C140.186338,3.71603336 141.360055,4.92798333 142.807907,4.92798333 Z" id="Oval-22" sketch:type="MSShapeGroup"></path>
                <path d="M245.049084,125.83914 C246.496936,125.83914 247.670652,124.62719 247.670652,123.132174 C247.670652,121.637158 246.496936,120.425208 245.049084,120.425208 C243.601231,120.425208 242.427515,121.637158 242.427515,123.132174 C242.427515,124.62719 243.601231,125.83914 245.049084,125.83914 Z" id="Oval-22" sketch:type="MSShapeGroup"></path>
            </g>
        </g>
    </g>
</svg>