<?xml version="1.0" encoding="UTF-8" standalone="no"?>
<svg width="80px" height="63px" viewBox="0 0 80 63" version="1.1" xmlns="http://www.w3.org/2000/svg" xmlns:xlink="http://www.w3.org/1999/xlink" xmlns:sketch="http://www.bohemiancoding.com/sketch/ns">
    <!-- Generator: Sketch Beta 3.0.2 (7799) - http://www.bohemiancoding.com/sketch -->
    <title>Rectangle 1027 + Group 2</title>
    <description>Created with Sketch Beta.</description>
    <defs></defs>
    <g id="Page-1" stroke="none" stroke-width="1" fill="none" fill-rule="evenodd" sketch:type="MSPage">
        <g id="c-08" sketch:type="MSArtboardGroup" transform="translate(-785.000000, -285.703527)">
            <g id="Rectangle-1027-+-Group-2" sketch:type="MSLayerGroup" transform="translate(785.000000, 286.000000)">
                <rect id="Rectangle-1027" stroke="#535351" stroke-width="4.5" fill="#000000" sketch:type="MSShapeGroup" transform="translate(40.000000, 31.000000) rotate(-270.000000) translate(-40.000000, -31.000000) " x="9" y="-9" width="62" height="80" rx="4.5"></rect>
                <g id="Group-2" transform="translate(5.000000, 5.000000)" sketch:type="MSShapeGroup">
                    <rect id="Rectangle-53" fill="#4793FA" x="0.00687874217" y="0.0250296347" width="69.9084967" height="51.8835188"></rect>
                    <polygon id="Triangle-3" fill="#4C86EB" points="29.2810617 33.8621071 42.825833 51.9085484 15.7362905 51.9085484 "></polygon>
                    <polygon id="Triangle-3" fill="#34B946" points="42.825833 39.7272005 52.2197872 51.9085484 33.4318787 51.9085484 "></polygon>
                    <polygon id="Triangle-3" fill="#ABCCFF" points="29.2810617 33.8621071 34.0872709 40.1783616 24.4748526 40.1783616 "></polygon>
                    <polygon id="Triangle-3" fill="#4C86EB" points="42.935065 39.2760395 52.4382513 51.9085484 33.4318787 51.9085484 "></polygon>
                    <polygon id="Triangle-3" fill="#5C50AF" points="13.55165 33.8621071 27.0964212 51.9085484 0.00687874217 51.9085484 "></polygon>
                    <polygon id="Triangle-3" fill="#5C50AF" points="56.3706042 33.8621071 69.9153755 51.9085484 42.825833 51.9085484 "></polygon>
                    <polygon id="Triangle-3" fill="#ABCCFF" points="42.935065 39.2760395 46.3212578 43.7876498 39.5488722 43.7876498 "></polygon>
                    <polygon id="Triangle-3" fill="#ABCCFF" points="13.55165 33.8621071 18.3578591 40.1783616 8.74544083 40.1783616 "></polygon>
                    <polygon id="Triangle-3" fill="#ABCCFF" points="56.3706042 33.8621071 61.1768134 40.1783616 51.5643951 40.1783616 "></polygon>
                    <ellipse id="Oval-22" fill="#ABCCFF" cx="7.65312057" cy="8.59708926" rx="0.655392157" ry="0.67674155"></ellipse>
                    <ellipse id="Oval-22" fill="#ABCCFF" cx="15.2993624" cy="13.7854411" rx="0.655392157" ry="0.67674155"></ellipse>
                    <ellipse id="Oval-22" fill="#ABCCFF" cx="26.6594931" cy="4.76222048" rx="0.655392157" ry="0.67674155"></ellipse>
                    <path d="M54.1859637,18.071471 C54.5479268,18.071471 54.8413559,17.7684835 54.8413559,17.3947294 C54.8413559,17.0209754 54.5479268,16.7179879 54.1859637,16.7179879 C53.8240006,16.7179879 53.5305716,17.0209754 53.5305716,17.3947294 C53.5305716,17.7684835 53.8240006,18.071471 54.1859637,18.071471 Z" id="Oval-22" fill="#ABCCFF"></path>
                    <path d="M44.7920095,33.6365266 C45.1539726,33.6365266 45.4474016,33.3335391 45.4474016,32.959785 C45.4474016,32.586031 45.1539726,32.2830435 44.7920095,32.2830435 C44.4300463,32.2830435 44.1366173,32.586031 44.1366173,32.959785 C44.1366173,33.3335391 44.4300463,33.6365266 44.7920095,33.6365266 Z" id="Oval-22" fill="#ABCCFF"></path>
                    <ellipse id="Oval-22" fill="#ABCCFF" cx="50.9090029" cy="14.4621827" rx="0.655392157" ry="0.67674155"></ellipse>
                    <ellipse id="Oval-22" fill="#ABCCFF" cx="64.0168461" cy="7.24360616" rx="0.655392157" ry="0.67674155"></ellipse>
                    <ellipse id="Oval-22" fill="#ABCCFF" cx="39.7673363" cy="13.7854411" rx="0.655392157" ry="0.67674155"></ellipse>
                    <ellipse id="Oval-22" fill="#ABCCFF" cx="26.004101" cy="25.2900475" rx="0.655392157" ry="0.67674155"></ellipse>
                    <path d="M6.99772842,32.2830435 C7.35969153,32.2830435 7.65312057,31.980056 7.65312057,31.606302 C7.65312057,31.2325479 7.35969153,30.9295604 6.99772842,30.9295604 C6.6357653,30.9295604 6.34233626,31.2325479 6.34233626,31.606302 C6.34233626,31.980056 6.6357653,32.2830435 6.99772842,32.2830435 Z" id="Oval-22" fill="#ABCCFF"></path>
                    <path d="M41.9519768,2.73199583 C42.3139399,2.73199583 42.6073689,2.42900834 42.6073689,2.05525428 C42.6073689,1.68150023 42.3139399,1.37851273 41.9519768,1.37851273 C41.5900137,1.37851273 41.2965846,1.68150023 41.2965846,2.05525428 C41.2965846,2.42900834 41.5900137,2.73199583 41.9519768,2.73199583 Z" id="Oval-22" fill="#ABCCFF"></path>
                    <path d="M67.5122709,32.959785 C67.874234,32.959785 68.1676631,32.6567976 68.1676631,32.2830435 C68.1676631,31.9092894 67.874234,31.606302 67.5122709,31.606302 C67.1503078,31.606302 66.8568787,31.9092894 66.8568787,32.2830435 C66.8568787,32.6567976 67.1503078,32.959785 67.5122709,32.959785 Z" id="Oval-22" fill="#ABCCFF"></path>
                </g>
            </g>
        </g>
    </g>
</svg>