<?xml version="1.0" encoding="utf-8"?>
<!-- Generator: Adobe Illustrator 15.0.0, SVG Export Plug-In  -->
<!DOCTYPE svg PUBLIC "-//W3C//DTD SVG 1.1//EN" "http://www.w3.org/Graphics/SVG/1.1/DTD/svg11.dtd" [
	<!ENTITY ns_flows "http://ns.adobe.com/Flows/1.0/">
]>
<svg version="1.1"
	 xmlns="http://www.w3.org/2000/svg" xmlns:xlink="http://www.w3.org/1999/xlink" xmlns:a="http://ns.adobe.com/AdobeSVGViewerExtensions/3.0/"
	 x="0px" y="0px" width="21px" height="21px" viewBox="150 87.599 21 21"
	 overflow="visible" enable-background="new 150 87.599 21 21" xml:space="preserve">
<defs>
</defs>
<g>
	<rect y="8.599" fill="none" width="160" height="1350"/>
	<text transform="matrix(1 0 0 1 0 8.5986)"><tspan x="0" y="0" fill="#666666" font-family="'Helvetica-Bold'" font-size="10">Sites</tspan><tspan x="0" y="50" fill="#666666" font-family="'Helvetica'" font-size="10">private</tspan><tspan x="0" y="100" fill="#666666" font-family="'Helvetica'" font-size="10">anyone_with_link</tspan><tspan x="0" y="150" fill="#666666" font-family="'Helvetica'" font-size="10">anyone_with_link_at_domain</tspan><tspan x="0" y="200" fill="#666666" font-family="'Helvetica'" font-size="10">domain</tspan><tspan x="0" y="250" fill="#666666" font-family="'Helvetica'" font-size="10">public</tspan><tspan x="0" y="300" fill="#666666" font-family="'Helvetica'" font-size="10">arrow_drop_down_blue</tspan><tspan x="0" y="350" fill="#666666" font-family="'Helvetica'" font-size="10">private_white</tspan><tspan x="0" y="400" fill="#666666" font-family="'Helvetica'" font-size="10">anyone_with_link_white</tspan><tspan x="0" y="450" fill="#666666" font-family="'Helvetica'" font-size="10">anyone_with_link_domain_white</tspan><tspan x="0" y="500" fill="#666666" font-family="'Helvetica'" font-size="10">domain_white</tspan><tspan x="0" y="550" fill="#666666" font-family="'Helvetica'" font-size="10">public_white</tspan></text>
</g>
<path d="M166,98.765c0-1.833-3.667-2.566-5.5-2.566s-5.5,0.733-5.5,2.566v1.833h11V98.765z M160.5,94.599
	c1.38,0,2.49-1.118,2.49-2.5c0-1.38-1.11-2.5-2.49-2.5s-2.5,1.12-2.5,2.5C158,93.48,159.12,94.599,160.5,94.599z M157,104.098
	c0,0.276,0.225,0.501,0.5,0.501h6c0.275,0,0.5-0.225,0.5-0.501s-0.225-0.499-0.5-0.499h-6C157.225,103.599,157,103.821,157,104.098z
	 M158.214,105.799H156.5c-0.939,0-1.7-0.762-1.7-1.7s0.761-1.7,1.7-1.7h1.714c0.364,0,0.593,0.173,0.786,0.45h1
	c-0.293-0.709-1.053-1.25-1.786-1.25H156.5c-1.382,0-2.5,1.12-2.5,2.5s1.118,2.5,2.5,2.5h1.714c0.733,0,1.493-0.541,1.786-1.25h-1
	C158.807,105.626,158.578,105.799,158.214,105.799z M164.5,101.599h-1.715c-0.732,0-1.492,0.541-1.785,1.25h1
	c0.193-0.277,0.422-0.45,0.785-0.45h1.715c0.939,0,1.7,0.762,1.7,1.7s-0.761,1.7-1.7,1.7h-1.715c-0.363,0-0.592-0.173-0.785-0.45h-1
	c0.293,0.709,1.053,1.25,1.785,1.25h1.715c1.382,0,2.49-1.12,2.49-2.5S165.882,101.599,164.5,101.599z"/>
<rect x="150" y="87.599" opacity="0" fill="#4387FD" width="21" height="21"/>
</svg>
