<?xml version="1.0" encoding="utf-8"?>
<!-- Generator: Adobe Illustrator 15.0.0, SVG Export Plug-In . SVG Version: 6.00 Build 0)  -->
<!DOCTYPE svg PUBLIC "-//W3C//DTD SVG 1.1//EN" "http://www.w3.org/Graphics/SVG/1.1/DTD/svg11.dtd">
<svg version="1.1" id="Layer_1" xmlns="http://www.w3.org/2000/svg" xmlns:xlink="http://www.w3.org/1999/xlink" x="0px" y="0px"
	 width="21px" height="21px" viewBox="0 0 21 21" enable-background="new 0 0 21 21" xml:space="preserve">
<path d="M16.5,5.15h-12c-0.551,0-0.998,0.449-1,1v8c0,0.553,0.447,1,1,1h12c0.553,0,1-0.447,1-1v-8
	C17.498,5.6,17.049,5.15,16.5,5.15z M16.398,6.952l-5.603,4.138c-0.087,0.065-0.194,0.098-0.296,0.098
	c-0.105,0-0.209-0.032-0.297-0.098L4.602,6.953C4.381,6.789,4.334,6.475,4.5,6.254C4.664,6.032,4.975,5.983,5.198,6.15l5.302,3.916
	l5.301-3.918c0.227-0.165,0.535-0.117,0.701,0.104C16.666,6.476,16.619,6.789,16.398,6.952z"/>
</svg>
