<?xml version="1.0" encoding="utf-8"?>
<!-- Generator: Adobe Illustrator 15.0.0, SVG Export Plug-In  -->
<!DOCTYPE svg PUBLIC "-//W3C//DTD SVG 1.1//EN" "http://www.w3.org/Graphics/SVG/1.1/DTD/svg11.dtd" [
	<!ENTITY ns_flows "http://ns.adobe.com/Flows/1.0/">
]>
<svg version="1.1"
	 xmlns="http://www.w3.org/2000/svg" xmlns:xlink="http://www.w3.org/1999/xlink" xmlns:a="http://ns.adobe.com/AdobeSVGViewerExtensions/3.0/"
	 x="0px" y="0px" width="21px" height="21px" viewBox="0 0 21 21" overflow="visible" enable-background="new 0 0 21 21"
	 xml:space="preserve">
<defs>
</defs>
<path d="M10.5,8.005c-1.378,0-2.495,1.117-2.495,2.495s1.117,2.495,2.495,2.495c1.377,0,2.495-1.117,2.495-2.495
	S11.877,8.005,10.5,8.005z M10.499,4C6.598,4,3.324,6.701,2.01,10.5c1.314,3.799,4.588,6.5,8.489,6.5c3.903,0,7.183-2.701,8.501-6.5
	C17.682,6.701,14.402,4,10.499,4z M10.5,15.2c-2.597,0-4.7-2.104-4.7-4.7s2.104-4.7,4.7-4.7c2.596,0,4.699,2.104,4.699,4.7
	S13.096,15.2,10.5,15.2z"/>
<rect opacity="0" fill="#4387FD" width="21" height="21"/>
</svg>
