<?xml version="1.0" encoding="utf-8"?>
<!-- Generator: Adobe Illustrator 15.0.0, SVG Export Plug-In  -->
<!DOCTYPE svg PUBLIC "-//W3C//DTD SVG 1.1//EN" "http://www.w3.org/Graphics/SVG/1.1/DTD/svg11.dtd" [
	<!ENTITY ns_flows "http://ns.adobe.com/Flows/1.0/">
]>
<svg version="1.1"
	 xmlns="http://www.w3.org/2000/svg" xmlns:xlink="http://www.w3.org/1999/xlink" xmlns:a="http://ns.adobe.com/AdobeSVGViewerExtensions/3.0/"
	 x="0px" y="0px" width="21px" height="21px" viewBox="0 0 21 21" overflow="visible" enable-background="new 0 0 21 21"
	 xml:space="preserve">
<defs>
</defs>
<path d="M15,3H5C4.447,3,4,3.447,4,4v10c0,0.553,0.447,1,1,1h10c0.553,0,1-0.447,1-1V4C16,3.447,15.553,3,15,3z"/>
<circle fill="#FFFFFF" cx="10" cy="12.001" r="1.05"/>
<path fill="#FFFFFF" d="M12,5H9C8.447,5,8,5.447,8,6v1h2V6h1v2H9.5C9.225,8,9,8.225,9,8.5V9v1h2V9h1c0.553,0,1-0.447,1-1V6
	C13,5.447,12.553,5,12,5z"/>
<rect opacity="0" fill="#4387FD" width="21" height="21"/>
</svg>
