<?xml version="1.0" encoding="utf-8"?>
<!-- Generator: Adobe Illustrator 16.0.0, SVG Export Plug-In . SVG Version: 6.00 Build 0)  -->
<!DOCTYPE svg PUBLIC "-//W3C//DTD SVG 1.1//EN" "http://www.w3.org/Graphics/SVG/1.1/DTD/svg11.dtd">
<svg version="1.1" id="Layer_1" xmlns="http://www.w3.org/2000/svg" xmlns:xlink="http://www.w3.org/1999/xlink" x="0px" y="0px"
	 width="48px" height="48px" viewBox="-23.5 24.5 48 48" enable-background="new -23.5 24.5 48 48" xml:space="preserve">
<symbol  id="ic_x5F_moreHoriz_x5F_dark_x0D_" viewBox="0 -48 48 48">
	<polygon fill="none" points="48,-48 0,-48 0,0 48,0 	"/>
	<path d="M18-22c-1.104,0-2-0.896-2-2s0.896-2,2-2s2,0.896,2,2S19.104-22,18-22z M30-22c-1.104,0-2-0.896-2-2s0.896-2,2-2
		s2,0.896,2,2S31.104-22,30-22z M24-22c-1.104,0-2-0.896-2-2s0.896-2,2-2s2,0.896,2,2S25.104-22,24-22z"/>
</symbol>
<use xlink:href="#ic_x5F_moreHoriz_x5F_dark_x0D_"  width="48" height="48" y="-48" transform="matrix(1 0 0 -1 -23.5 24.5)" overflow="visible"/>
</svg>
