<?xml version="1.0" encoding="utf-8"?>
<!-- Generator: Adobe Illustrator 16.0.0, SVG Export Plug-In . SVG Version: 6.00 Build 0)  -->
<!DOCTYPE svg PUBLIC "-//W3C//DTD SVG 1.1//EN" "http://www.w3.org/Graphics/SVG/1.1/DTD/svg11.dtd">
<svg version="1.1" id="Layer_1" xmlns="http://www.w3.org/2000/svg" xmlns:xlink="http://www.w3.org/1999/xlink" x="0px" y="0px"
	 width="48px" height="48px" viewBox="-23.5 24.5 48 48" enable-background="new -23.5 24.5 48 48" xml:space="preserve">
<symbol  id="ic_x5F_delete_x5F_dark_x0D_" viewBox="-24 -24 48 48">
	<g>
		<path fill="#010101" d="M-6-7c0-1.104,0.896-2,2-2h8c1.104,0,2,0.896,2,2V5H-6V-7z M6,8H3.5l-1,1h-5l-1-1H-6c-0.553,0-1-0.447-1-1
			V6H7v1C7,7.553,6.552,8,6,8z"/>
	</g>
	<polygon fill="none" points="24,-24 -24,-24 -24,24 24,24 	"/>
</symbol>
<use xlink:href="#ic_x5F_delete_x5F_dark_x0D_"  width="48" height="48" x="-24" y="-24" transform="matrix(1 0 0 -1 0.5 48.5)" overflow="visible"/>
</svg>
