<?xml version="1.0" encoding="utf-8"?>
<!-- Generator: Adobe Illustrator 16.0.0, SVG Export Plug-In . SVG Version: 6.00 Build 0)  -->
<!DOCTYPE svg PUBLIC "-//W3C//DTD SVG 1.1//EN" "http://www.w3.org/Graphics/SVG/1.1/DTD/svg11.dtd">
<svg version="1.1" id="Layer_1" xmlns="http://www.w3.org/2000/svg" xmlns:xlink="http://www.w3.org/1999/xlink" x="0px" y="0px"
	 width="48px" height="48px" viewBox="-23.5 24.5 48 48" enable-background="new -23.5 24.5 48 48" xml:space="preserve">
<g opacity="0">
	<path d="M15.5,61.5c0,1.1-0.9,2-2,2h-26c-1.1,0-2-0.9-2-2v-26c0-1.1,0.9-2,2-2h26c1.1,0,2,0.9,2,2V61.5z"/>
</g>
<g>
	<path d="M1,58.5c1.104,0,2-0.896,2-2h-4C-1,57.604-0.104,58.5,1,58.5z"/>
	<path d="M8.189,54C7.771,53.633,7.5,53.101,7.5,52.5v-5H7.475C7.487,47.334,7.5,47.169,7.5,47c0-3.072-2.135-5.641-5-6.319V40
		c0-0.828-0.672-1.5-1.5-1.5s-1.5,0.672-1.5,1.5v0.681c-2.865,0.679-5,3.247-5,6.319c0,0.169,0.013,0.334,0.025,0.5H-5.5v5
		c0,0.601-0.271,1.133-0.689,1.5c-0.352,0.308-0.807,0.5-1.311,0.5v1h2h13h2v-1C8.996,54.5,8.541,54.308,8.189,54z"/>
</g>
</svg>
