<?xml version="1.0" encoding="utf-8"?>
<!-- Generator: Adobe Illustrator 16.0.0, SVG Export Plug-In . SVG Version: 6.00 Build 0)  -->
<!DOCTYPE svg PUBLIC "-//W3C//DTD SVG 1.1//EN" "http://www.w3.org/Graphics/SVG/1.1/DTD/svg11.dtd">
<svg version="1.1" id="Layer_1" xmlns="http://www.w3.org/2000/svg" xmlns:xlink="http://www.w3.org/1999/xlink" x="0px" y="0px"
	 width="48px" height="48px" viewBox="-23.5 24.5 48 48" enable-background="new -23.5 24.5 48 48" xml:space="preserve">
<g>
	<g opacity="0">
		<path d="M15.5,61.5c0,1.1-0.9,2-2,2h-26c-1.1,0-2-0.9-2-2v-26c0-1.1,0.9-2,2-2h26c1.1,0,2,0.9,2,2V61.5z"/>
	</g>
	<rect x="-7.5" y="40.5" width="4" height="4"/>
	<rect x="-7.5" y="46.5" width="4" height="4"/>
	<rect x="-7.5" y="52.5" width="4" height="4"/>
	<rect x="-1.5" y="40.5" width="4" height="4"/>
	<rect x="-1.5" y="46.5" width="4" height="4"/>
	<rect x="-1.5" y="52.5" width="4" height="4"/>
	<rect x="4.5" y="40.5" width="4" height="4"/>
	<rect x="4.5" y="46.5" width="4" height="4"/>
	<rect x="4.5" y="52.5" width="4" height="4"/>
</g>
</svg>
