<?xml version="1.0" encoding="UTF-8" standalone="no"?>
<svg width="20px" height="20px" viewBox="0 0 20 20" version="1.1" xmlns="http://www.w3.org/2000/svg" xmlns:xlink="http://www.w3.org/1999/xlink" xmlns:sketch="http://www.bohemiancoding.com/sketch/ns">
    <title>Slice 1 1 1</title>
    <description>Created with Sketch (http://www.bohemiancoding.com/sketch)</description>
    <defs></defs>
    <g id="Page-1" stroke="none" stroke-width="1" fill="none" fill-rule="evenodd" sketch:type="MSPage">
        <g id="Imported-Layers" sketch:type="MSLayerGroup" transform="translate(2.000000, 2.000000)">
            <path d="M16,15 C16,15.553 15.553,16 15,16 L1,16 C0.447,16 0,15.553 0,15 L0,1 C0,0.447 0.447,0 1,0 L15,0 C15.553,0 16,0.447 16,1 L16,15" id="Fill-1" fill="#4285F4" sketch:type="MSShapeGroup"></path>
            <path d="M3,6 L13,6 L13,7 L3,7 L3,6 Z" id="Fill-2" fill="#FFFFFF" sketch:type="MSShapeGroup"></path>
            <path d="M3,4 L13,4 L13,5 L3,5 L3,4 Z" id="Fill-3" fill="#FFFFFF" sketch:type="MSShapeGroup"></path>
            <path d="M3,8 L13,8 L13,9 L3,9 L3,8 Z" id="Fill-4" fill="#FFFFFF" sketch:type="MSShapeGroup"></path>
            <path d="M3,10 L9,10 L9,11 L3,11 L3,10 Z" id="Fill-5" fill="#FFFFFF" sketch:type="MSShapeGroup"></path>
        </g>
    </g>
</svg>