<?xml version="1.0" encoding="utf-8"?>
<!-- Generator: Adobe Illustrator 16.0.0, SVG Export Plug-In . SVG Version: 6.00 Build 0)  -->
<!DOCTYPE svg PUBLIC "-//W3C//DTD SVG 1.1//EN" "http://www.w3.org/Graphics/SVG/1.1/DTD/svg11.dtd">
<svg version="1.1" id="Layer_1" xmlns="http://www.w3.org/2000/svg" xmlns:xlink="http://www.w3.org/1999/xlink" x="0px" y="0px"
	 width="92px" height="34px" viewBox="-45.5 31.5 92 34" enable-background="new -45.5 31.5 92 34" xml:space="preserve">
<g>
	<radialGradient id="SVGID_1_" cx="24.9414" cy="34.1406" r="21.7847" gradientUnits="userSpaceOnUse">
		<stop  offset="0" style="stop-color:#00A55D"/>
		<stop  offset="0.6949" style="stop-color:#009655"/>
		<stop  offset="0.886" style="stop-color:#00934F"/>
		<stop  offset="1" style="stop-color:#008F48"/>
	</radialGradient>
	<path fill="url(#SVGID_1_)" d="M27.5,34.8h-2l1.301-1.29H31.8l-1.08,1.083c-0.144,0.144-0.22,0.347-0.22,0.565v17.414
		c0,0.431,0.299,0.778,0.718,0.829L32.8,53.6l-0.904,0.9h-5.707l1.08-1.094c0.144-0.143,0.231-0.346,0.231-0.564V34.8z"/>
	<radialGradient id="SVGID_2_" cx="35.5615" cy="42.1387" r="13.4479" gradientUnits="userSpaceOnUse">
		<stop  offset="0" style="stop-color:#E14D3B"/>
		<stop  offset="0.65" style="stop-color:#D6412B"/>
		<stop  offset="0.9283" style="stop-color:#D03C29"/>
		<stop  offset="1" style="stop-color:#CD3A28"/>
	</radialGradient>
	<path fill="url(#SVGID_2_)" d="M42.332,52.9c-2.563,0-4.928-1.801-5.774-5.094l8.866-3.588c-0.475-1.713-1.82-3.669-5.318-3.669
		c-2.883,0-6.405,2.196-6.405,6.675c0,3.527,2.313,7.225,6.853,7.225c0.934,0,2.393-0.059,3.881-1.127
		c0.563-0.394,1.041-0.865,1.438-1.387C44.879,52.426,43.82,52.9,42.332,52.9z M39.613,41.449c1.574,0,2.887,1.309,2.887,2.463
		c0,0.404-0.291,0.577-0.845,0.779l-5.253,2.133C35.586,42.479,38.421,41.449,39.613,41.449z"/>
	<g>
		<radialGradient id="SVGID_3_" cx="-40.7534" cy="34.583" r="24.6067" gradientUnits="userSpaceOnUse">
			<stop  offset="0" style="stop-color:#1069EF"/>
			<stop  offset="0.6731" style="stop-color:#1066EA"/>
			<stop  offset="0.9949" style="stop-color:#1064E5"/>
		</radialGradient>
		<path fill="url(#SVGID_3_)" d="M-24.5,53.8c-1.424,0.392-4.821,1.5-9.132,1.5c-6.227,0-11.668-4.085-11.668-11.448
			c0-5.119,4.226-11.152,12.166-11.152c1.642,0,3.241,0.406,4.599,0.801c2.099,0.618,3.262,1.438,3.936,1.899l-2.89,2.9v-1.8
			c-1.187-1.047-2.66-2.5-6.307-2.5c-4.734,0-8.103,3.757-8.103,8.998c0,5.746,4.124,10.867,9.926,10.867
			c2.156,0,3.601-0.314,4.484-0.604V47.8h-4l1.288-1.29h7.002l-1.08,1.083c-0.143,0.144-0.22,0.347-0.22,0.565V53.8z"/>
		<radialGradient id="SVGID_4_" cx="-40.7158" cy="34.6074" r="24.3349" gradientUnits="userSpaceOnUse">
			<stop  offset="0" style="stop-color:#FFFFFF;stop-opacity:0.08"/>
			<stop  offset="1" style="stop-color:#FFFFFF;stop-opacity:0"/>
		</radialGradient>
		<path fill="url(#SVGID_4_)" d="M-24.5,53.8c-1.424,0.392-4.821,1.5-9.132,1.5c-6.227,0-11.668-4.085-11.668-11.448
			c0-5.119,4.226-11.152,12.166-11.152c1.642,0,3.241,0.406,4.599,0.801c2.099,0.618,3.262,1.438,3.936,1.899l-2.89,2.9v-1.8
			c-1.187-1.047-2.66-2.5-6.307-2.5c-4.734,0-8.103,3.757-8.103,8.998c0,5.746,4.124,10.867,9.926,10.867
			c2.156,0,3.601-0.314,4.484-0.604V47.8h-4l1.288-1.29h7.002l-1.08,1.083c-0.143,0.144-0.22,0.347-0.22,0.565V53.8z"/>
	</g>
	<g>
		
			<radialGradient id="SVGID_5_" cx="1.8218" cy="45.3379" r="14.3731" gradientTransform="matrix(1.0021 0 0 0.9983 -4.1065 -2.5611)" gradientUnits="userSpaceOnUse">
			<stop  offset="0" style="stop-color:#FFBD00"/>
			<stop  offset="1" style="stop-color:#FFB200"/>
		</radialGradient>
		<path fill="url(#SVGID_5_)" d="M3.242,40.55c-4.88,0-7.692,3.571-7.692,7.041c0,3.562,2.842,6.858,7.24,6.858
			c4.88,0,7.66-3.57,7.66-7.041C10.45,43.848,7.64,40.55,3.242,40.55z M3.494,53.5c-3.435,0-5.034-4.182-5.034-7.261
			c0-2.987,1.933-4.739,4.046-4.739c3.435,0,5.034,4.182,5.034,7.261C7.54,51.748,5.607,53.5,3.494,53.5z"/>
		
			<linearGradient id="SVGID_6_" gradientUnits="userSpaceOnUse" x1="7.0918" y1="41.0166" x2="7.0918" y2="52.5928" gradientTransform="matrix(1.0021 0 0 0.9983 -4.1065 -2.5611)">
			<stop  offset="0" style="stop-color:#FFFFFF;stop-opacity:0.15"/>
			<stop  offset="1" style="stop-color:#FFFFFF;stop-opacity:0"/>
		</linearGradient>
		<path fill="url(#SVGID_6_)" d="M3.242,40.55c-4.88,0-7.692,3.571-7.692,7.041c0,3.562,2.842,6.858,7.24,6.858
			c4.88,0,7.66-3.57,7.66-7.041C10.45,43.848,7.64,40.55,3.242,40.55z M3.494,53.5c-3.435,0-5.034-4.182-5.034-7.261
			c0-2.987,1.933-4.739,4.046-4.739c3.435,0,5.034,4.182,5.034,7.261C7.54,51.748,5.607,53.5,3.494,53.5z"/>
	</g>
	
		<radialGradient id="SVGID_7_" cx="-15.0322" cy="44.7744" r="14.7622" gradientTransform="matrix(1.0021 0 0 0.9983 -4.1065 -2.5611)" gradientUnits="userSpaceOnUse">
		<stop  offset="0" style="stop-color:#E14D3B"/>
		<stop  offset="0.65" style="stop-color:#D6412B"/>
		<stop  offset="0.9283" style="stop-color:#D03C29"/>
		<stop  offset="1" style="stop-color:#CD3A28"/>
	</radialGradient>
	<path fill="url(#SVGID_7_)" d="M-13.758,40.55c-4.88,0-7.692,3.571-7.692,7.041c0,3.562,2.842,6.858,7.24,6.858
		c4.88,0,7.66-3.57,7.66-7.041C-6.55,43.848-9.36,40.55-13.758,40.55z M-13.506,53.5c-3.435,0-5.034-4.182-5.034-7.261
		c0-2.987,1.933-4.739,4.046-4.739c3.435,0,5.034,4.182,5.034,7.261C-9.46,51.748-11.393,53.5-13.506,53.5z"/>
	<rect x="-45.5" y="31.5" opacity="0.1" fill="none" width="92" height="33"/>
	<g>
		<radialGradient id="SVGID_8_" cx="13.7241" cy="42.5254" r="22.3505" gradientUnits="userSpaceOnUse">
			<stop  offset="0" style="stop-color:#1069EF"/>
			<stop  offset="0.6731" style="stop-color:#1066EA"/>
			<stop  offset="0.9949" style="stop-color:#1064E5"/>
		</radialGradient>
		<path fill="url(#SVGID_8_)" d="M22.8,53.949l-1.082-0.85c-0.362-0.299-0.818-0.691-0.818-1.418c0-0.732,0.546-1.291,0.972-1.621
			c1.307-1.014,2.567-2.098,2.567-4.338c0-2.067-1.27-3.256-2.034-3.922h1.745l1.25-1.25h-6.234c-4.36,0-6.598,2.715-6.598,5.725
			c0,2.328,1.789,4.824,4.98,4.824h0.802C18.225,51.449,18,51.939,18,52.4c0,1.016,0.421,1.436,0.921,2
			c-1.399,0.092-4.013,0.428-5.939,1.605C11.145,57.1,10.7,58.634,10.7,59.75c0,2.303,2.063,4.5,6.569,4.5
			c5.35,0,8.031-2.957,8.031-5.878C25.301,56.217,24.166,55.102,22.8,53.949z M15.152,44.813c0-2.21,1.312-3.214,2.688-3.214
			c2.644,0,4.01,3.451,4.01,5.536c0,2.571-2.067,3.064-2.887,3.064C16.494,50.2,15.152,47.141,15.152,44.813z M18.8,62.801
			c-3.326,0-5.45-1.492-5.45-3.701c0-2.203,1.963-2.906,2.648-3.157c1.305-0.437,2.984-0.493,3.269-0.493
			c0.307,0,0.462,0,0.708,0.025c2.367,1.691,3.375,2.439,3.375,4.025C23.35,61.27,21.527,62.801,18.8,62.801z"/>
		<radialGradient id="SVGID_9_" cx="13.7495" cy="42.5508" r="22.1078" gradientUnits="userSpaceOnUse">
			<stop  offset="0" style="stop-color:#FFFFFF;stop-opacity:0.08"/>
			<stop  offset="1" style="stop-color:#FFFFFF;stop-opacity:0"/>
		</radialGradient>
		<path fill="url(#SVGID_9_)" d="M22.8,53.949l-1.082-0.85c-0.362-0.299-0.818-0.691-0.818-1.418c0-0.732,0.546-1.291,0.972-1.621
			c1.307-1.014,2.567-2.098,2.567-4.338c0-2.067-1.27-3.256-2.034-3.922h1.745l1.25-1.25h-6.234c-4.36,0-6.598,2.715-6.598,5.725
			c0,2.328,1.789,4.824,4.98,4.824h0.802C18.225,51.449,18,51.939,18,52.4c0,1.016,0.421,1.436,0.921,2
			c-1.399,0.092-4.013,0.428-5.939,1.605C11.145,57.1,10.7,58.634,10.7,59.75c0,2.303,2.063,4.5,6.569,4.5
			c5.35,0,8.031-2.957,8.031-5.878C25.301,56.217,24.166,55.102,22.8,53.949z M15.152,44.813c0-2.21,1.312-3.214,2.688-3.214
			c2.644,0,4.01,3.451,4.01,5.536c0,2.571-2.067,3.064-2.887,3.064C16.494,50.2,15.152,47.141,15.152,44.813z M18.8,62.801
			c-3.326,0-5.45-1.492-5.45-3.701c0-2.203,1.963-2.906,2.648-3.157c1.305-0.437,2.984-0.493,3.269-0.493
			c0.307,0,0.462,0,0.708,0.025c2.367,1.691,3.375,2.439,3.375,4.025C23.35,61.27,21.527,62.801,18.8,62.801z"/>
	</g>
</g>
</svg>
