<?xml version="1.0" encoding="utf-8"?>
<!-- Generator: Adobe Illustrator 16.0.0, SVG Export Plug-In . SVG Version: 6.00 Build 0)  -->
<!DOCTYPE svg PUBLIC "-//W3C//DTD SVG 1.1//EN" "http://www.w3.org/Graphics/SVG/1.1/DTD/svg11.dtd">
<svg version="1.1" id="Layer_1" xmlns="http://www.w3.org/2000/svg" xmlns:xlink="http://www.w3.org/1999/xlink" x="0px" y="0px"
	 width="48px" height="48px" viewBox="-23.5 24.5 48 48" enable-background="new -23.5 24.5 48 48" xml:space="preserve">
<symbol  id="ic_x5F_updates_x5F_dark_x0D_" viewBox="0 -48 48 48">
	<path d="M24-14c-5.522,0-10-4.477-10-10s4.478-10,10-10c5.523,0,10,4.477,10,10S29.523-14,24-14z M25-29h-2v6h2V-29z M24-21.3
		c-0.717,0-1.3,0.582-1.3,1.3s0.583,1.3,1.3,1.3c0.718,0,1.3-0.582,1.3-1.3S24.718-21.3,24-21.3z"/>
	<polyline fill="none" points="0,0 48,0 48,-48 0,-48 	"/>
	<polygon fill="none" points="0,-48 48,-48 48,0 0,0 	"/>
</symbol>
<use xlink:href="#ic_x5F_updates_x5F_dark_x0D_"  width="48" height="48" y="-48" transform="matrix(1 0 0 -1 -23.5 24.5)" overflow="visible"/>
</svg>
