<?xml version="1.0" encoding="UTF-8" standalone="no"?>
<svg width="20px" height="20px" viewBox="0 0 20 20" version="1.1" xmlns="http://www.w3.org/2000/svg" xmlns:xlink="http://www.w3.org/1999/xlink" xmlns:sketch="http://www.bohemiancoding.com/sketch/ns">
    <title>Slice 1</title>
    <description>Created with Sketch (http://www.bohemiancoding.com/sketch)</description>
    <defs></defs>
    <g id="Page-1" stroke="none" stroke-width="1" fill="none" fill-rule="evenodd" sketch:type="MSPage">
        <path d="M17.8857318,11.301 C17.4947318,10.687 16.1757318,10.559 15.1397318,10.559 C14.5817318,10.559 13.9607318,10.596 13.2917318,10.673 C12.8047318,10.395 12.3517318,10.093 11.9527318,9.776 C11.0107318,9.002 10.1847318,7.669 9.6247318,6.019 C9.6937318,5.626 10.7537318,2.194 9.7787318,1.218 C9.5797318,1.022 9.3507318,1.003 9.2377318,1.003 L8.9217318,1 C8.6337318,1 8.3387318,1.388 8.2357318,1.755 C7.7517318,3.487 8.0487318,4.373 8.5707318,6.086 C8.1827318,7.421 7.7417318,8.817 7.0357318,10.235 C6.5477318,11.216 6.0887318,12.085 5.6707318,12.815 C5.0977318,13.076 4.6707318,13.306 4.4037318,13.5 L4.3877318,13.512 C2.8387318,14.463 2.1487318,15.482 2.0227318,16.121 C1.9787318,16.332 2.0047318,16.472 2.0487318,16.565 L2.5597318,16.903 C2.6897318,16.966 2.8277318,17 2.9727318,17 C3.8997318,17 5.1267318,15.665 6.7227318,12.922 C6.8667318,12.862 7.0027318,12.808 7.1267318,12.763 C8.7847318,12.223 10.8217318,11.919 12.8197318,11.714 C14.1497318,12.415 15.7877318,12.728 16.7897318,12.728 C17.2457318,12.728 17.5647318,12.628 17.7217318,12.442 C17.8297318,12.334 17.9767318,12.145 17.9917318,11.779 C18.0147318,11.608 17.9787318,11.449 17.8857318,11.301 L17.8857318,11.301 Z M2.8517318,16.341 C2.8467318,16.344 2.8377318,16.345 2.8337318,16.345 C2.8167318,16.345 2.8037318,16.339 2.7927318,16.328 C2.7777318,16.313 2.7717318,16.29 2.7777318,16.27 C2.9247318,15.823 3.5157318,14.949 4.4707318,14.084 C4.6027318,13.973 4.8217318,13.828 5.1047318,13.664 C5.1297318,13.649 5.1587318,13.655 5.1767318,13.673 C5.1957318,13.692 5.1977318,13.721 5.1847318,13.743 C4.2427318,15.259 3.4557318,16.132 2.8517318,16.341 L2.8517318,16.341 Z M9.0387318,1.723 C9.0637318,1.662 9.1017318,1.605 9.1267318,1.566 C9.1397318,1.548 9.1597318,1.538 9.1857318,1.536 C9.2067318,1.534 9.2307318,1.542 9.2477318,1.558 L9.3247318,1.632 C9.3517318,1.66 9.3747318,1.684 9.3897318,1.706 C9.5657318,1.956 9.5847318,2.371 9.4557318,3.093 L9.4157318,3.309 C9.3617318,3.606 9.2957318,3.975 9.1997318,4.406 C9.1947318,4.435 9.1647318,4.457 9.1297318,4.457 L9.1277318,4.457 C9.0927318,4.457 9.0627318,4.434 9.0567318,4.406 C8.8247318,3.256 8.8157318,2.277 9.0387318,1.723 L9.0387318,1.723 Z M7.3767318,12.121 L7.3767318,12.118 L7.2307318,12.174 C7.1977318,12.186 7.1617318,12.199 7.1247318,12.214 C7.3697318,11.773 7.6247318,11.297 7.8887318,10.793 C8.4897318,9.633 8.9337318,8.578 9.2437318,7.581 C9.7897318,8.789 10.4857318,9.774 11.2737318,10.453 C11.4397318,10.598 11.6287318,10.743 11.8317318,10.886 C10.6687318,11.094 9.0687318,11.466 7.3767318,12.121 L7.3767318,12.121 Z M17.4567318,11.976 C17.4357318,11.998 17.3937318,12.018 17.3297318,12.039 L17.2847318,12.049 C17.2047318,12.061 17.1177318,12.069 17.0237318,12.069 C16.4187318,12.069 15.4727318,11.812 14.4867318,11.385 C14.4607318,11.373 14.4437318,11.34 14.4497318,11.31 C14.4547318,11.279 14.4827318,11.257 14.5147318,11.254 C14.6087318,11.252 14.7027318,11.252 14.7937318,11.252 C16.6557318,11.252 17.2017318,11.584 17.3497318,11.727 C17.3987318,11.784 17.4287318,11.835 17.4497318,11.868 C17.4547318,11.879 17.4587318,11.886 17.4637318,11.893 C17.4807318,11.916 17.4797318,11.951 17.4567318,11.976 L17.4567318,11.976 Z" id="Imported-Layers" fill="#FB4C2F" sketch:type="MSShapeGroup"></path>
    </g>
</svg>