<?xml version="1.0" encoding="utf-8"?>
<!-- Generator: Adobe Illustrator 16.0.0, SVG Export Plug-In . SVG Version: 6.00 Build 0)  -->
<!DOCTYPE svg PUBLIC "-//W3C//DTD SVG 1.1//EN" "http://www.w3.org/Graphics/SVG/1.1/DTD/svg11.dtd">
<svg version="1.1" id="Layer_1" xmlns="http://www.w3.org/2000/svg" xmlns:xlink="http://www.w3.org/1999/xlink" x="0px" y="0px"
	 width="48px" height="48px" viewBox="-23.5 24.5 48 48" enable-background="new -23.5 24.5 48 48" xml:space="preserve">
<g>
	<g>
		<path d="M5.002,52.009H4.208l-0.275-0.273C4.908,50.599,5.5,49.124,5.5,47.509c0-3.59-2.91-6.5-6.5-6.5s-6.5,2.91-6.5,6.5
			s2.91,6.5,6.5,6.5c1.614,0,3.088-0.592,4.225-1.566l0.276,0.274v0.792L8.5,58.5l1.49-1.491L5.002,52.009z M-1,52.009
			c-2.485,0-4.5-2.015-4.5-4.5s2.015-4.5,4.5-4.5s4.5,2.015,4.5,4.5S1.485,52.009-1,52.009z"/>
	</g>
</g>
</svg>
