<?xml version="1.0" encoding="utf-8"?>
<!-- Generator: Adobe Illustrator 16.0.0, SVG Export Plug-In . SVG Version: 6.00 Build 0)  -->
<!DOCTYPE svg PUBLIC "-//W3C//DTD SVG 1.1//EN" "http://www.w3.org/Graphics/SVG/1.1/DTD/svg11.dtd">
<svg version="1.1" id="Layer_1" xmlns="http://www.w3.org/2000/svg" xmlns:xlink="http://www.w3.org/1999/xlink" x="0px" y="0px"
	 width="48px" height="48px" viewBox="-23.5 24.5 48 48" enable-background="new -23.5 24.5 48 48" xml:space="preserve">
<symbol  id="ic_x5F_settings_x5F_dark_x0D_" viewBox="0 -48 48 48">
	<path d="M31.429-24.976c0.042,0.32,0.07,0.644,0.07,0.976c0,0.331-0.029,0.655-0.07,0.976l2.113,1.654
		c0.188,0.151,0.243,0.422,0.118,0.639l-2,3.463c-0.125,0.217-0.386,0.304-0.612,0.218l-2.49-1.004
		c-0.516,0.396-1.081,0.731-1.69,0.984l-0.375,2.648C26.456-14.183,26.25-14,26-14h-4c-0.25,0-0.456-0.183-0.494-0.422l-0.375-2.648
		c-0.61-0.253-1.175-0.587-1.691-0.983l-2.489,1.003c-0.226,0.086-0.487-0.001-0.612-0.218l-2-3.463
		c-0.125-0.217-0.07-0.487,0.118-0.639l2.112-1.653C16.528-23.344,16.5-23.669,16.5-24c0-0.332,0.029-0.656,0.071-0.976
		l-2.112-1.653c-0.188-0.152-0.243-0.422-0.118-0.639l2-3.464c0.125-0.216,0.386-0.304,0.612-0.217l2.489,1.003
		c0.516-0.396,1.081-0.731,1.69-0.983l0.375-2.649C21.544-33.817,21.75-34,22-34h4c0.25,0,0.456,0.183,0.494,0.421l0.375,2.649
		c0.609,0.253,1.174,0.587,1.689,0.984l2.49-1.004c0.226-0.086,0.487,0.001,0.612,0.217l2,3.464c0.125,0.216,0.07,0.486-0.118,0.639
		L31.429-24.976z M24-28.5c-2.487,0-4.5,2.015-4.5,4.5c0,2.485,2.014,4.5,4.5,4.5c2.484,0,4.5-2.015,4.5-4.5
		C28.5-26.485,26.484-28.5,24-28.5z"/>
	<polygon fill="none" points="48,-48 0,-48 0,0 48,0 	"/>
</symbol>
<use xlink:href="#ic_x5F_settings_x5F_dark_x0D_"  width="48" height="48" y="-48" transform="matrix(1 0 0 -1 -23.5 24.5)" overflow="visible"/>
</svg>
