<?xml version="1.0" encoding="utf-8"?>
<!-- Generator: Adobe Illustrator 16.0.0, SVG Export Plug-In . SVG Version: 6.00 Build 0)  -->
<!DOCTYPE svg PUBLIC "-//W3C//DTD SVG 1.1//EN" "http://www.w3.org/Graphics/SVG/1.1/DTD/svg11.dtd">
<svg version="1.1" id="Layer_1" xmlns="http://www.w3.org/2000/svg" xmlns:xlink="http://www.w3.org/1999/xlink" x="0px" y="0px"
	 width="48px" height="48px" viewBox="-23.5 24.5 48 48" enable-background="new -23.5 24.5 48 48" xml:space="preserve">
<symbol  id="ic_x5F_sharepeople_x5F_dark" viewBox="0 -48 48 48">
	<g>
		<path d="M24-24c2.208,0,4,1.793,4,4c0,2.208-1.792,4-4,4c-2.208,0-4-1.792-4-4C20-22.207,21.792-24,24-24z M24-26
			c-2.667,0-8-1.335-8-4v-2h16v2C32-27.335,26.667-26,24-26z"/>
	</g>
	<polygon fill="none" points="48,-48 0,-48 0,0 48,0 	"/>
	<g>
		<g>
			<path d="M35-19v3h-2v-3h-3v-2h3v-3h2v3h3v2H35z"/>
		</g>
	</g>
</symbol>
<use xlink:href="#ic_x5F_sharepeople_x5F_dark"  width="48" height="48" id="XMLID_100_" y="-48" transform="matrix(1 0 0 -1 -23.5 24.5)" overflow="visible"/>
</svg>
