<?xml version="1.0" encoding="utf-8"?>
<!-- Generator: Adobe Illustrator 16.0.0, SVG Export Plug-In . SVG Version: 6.00 Build 0)  -->
<!DOCTYPE svg PUBLIC "-//W3C//DTD SVG 1.1//EN" "http://www.w3.org/Graphics/SVG/1.1/DTD/svg11.dtd">
<svg version="1.1" xmlns="http://www.w3.org/2000/svg" xmlns:xlink="http://www.w3.org/1999/xlink" x="0px" y="0px" width="20px" height="20px" viewBox="0 0 20 20" enable-background="new 0 0 20 20" xml:space="preserve"><g><path fill="#8f8f8f" d="M18,4h-8L8,2H2C0.896,2,0.01,2.896,0.01,4L0,16c0,1.104,0.896,2,2,2h16 c1.104,0,2-0.896,2-2V6C20,4.896,19.104,4,18,4z M12.5,8c0.829,0,1.495,0.672,1.495,1.5S13.329,11,12.5,11c-0.828,0-1.5-0.672-1.5-1.5 S11.672,8,12.5,8z M8,7c1.104,0,2,0.896,2,2 c0,1.104-0.896,2-2,2s-1.995-0.896-1.995-2C6.005,7.896,6.896,7,8,7z M12,15H4v-1c0-1.332,2.667-2,4-2s4,0.668,4,2V15z M16,15h-3v-1 c0-0.85-0.492-1.484-1.188-1.947C12.062,12.02,12.3,12,12.5,12 c1.167,0,3.5,0.584,3.5,1.75V15z"></path></g></svg>