<?xml version="1.0" encoding="UTF-8" standalone="no"?>
<svg width="16px" height="16px" viewBox="0 0 16 16" version="1.1" xmlns="http://www.w3.org/2000/svg" xmlns:xlink="http://www.w3.org/1999/xlink" xmlns:sketch="http://www.bohemiancoding.com/sketch/ns">
    <title>Slice 1</title>
    <description>Created with Sketch (http://www.bohemiancoding.com/sketch)</description>
    <defs></defs>
    <g id="Page-1" stroke="none" stroke-width="1" fill="none" fill-rule="evenodd" sketch:type="MSPage">
        <g id="Imported-Layers" sketch:type="MSLayerGroup">
            <path d="M16,15 C16,15.553 15.553,16 15,16 L1,16 C0.447,16 0,15.553 0,15 L0,1 C0,0.447 0.447,0 1,0 L15,0 C15.553,0 16,0.447 16,1 L16,15" id="Fill-1" fill="#0F9D58" sketch:type="MSShapeGroup"></path>
            <path d="M12,3 L3,3 L3,13 L13,13 L13,3 L12,3 L12,3 Z M4,4 L6,4 L6,6 L4,6 L4,4 Z M4,7 L6,7 L6,9 L4,9 L4,7 Z M4,10 L6,10 L6,12 L4,12 L4,10 Z M7,10 L12,10 L12,12 L7,12 L7,10 Z M7,7 L12,7 L12,9 L7,9 L7,7 Z M7,4 L12,4 L12,6 L7,6 L7,4 Z" id="Fill-2" fill="#FFFFFF" sketch:type="MSShapeGroup"></path>
        </g>
    </g>
</svg>